<!-- Generator: Adobe Illustrator 19.0.1, SVG Export Plug-In  -->
<svg version="1.1"
	 xmlns="http://www.w3.org/2000/svg" xmlns:xlink="http://www.w3.org/1999/xlink" xmlns:a="http://ns.adobe.com/AdobeSVGViewerExtensions/3.0/"
	 x="0px" y="0px" width="357.731px" height="391.171px" viewBox="0 0 357.731 391.171"
	 style="enable-background:new 0 0 357.731 391.171;" xml:space="preserve">
<style type="text/css">
	.st0{fill-rule:evenodd;clip-rule:evenodd;}
	.st1{fill:none;}
</style>
<defs>
</defs>
<g>
	<path class="st0" d="M195.723,225.786"/>
	<g>
		<path class="st1" d="M91.328,61.646L22.88,98.525c-6.056,3.263-9.551,10.042-8.697,16.869l5.772,46.106l0,0l0.195,0.1
			l108.361-67.744l-23.317-29.539C101.808,60.264,95.978,59.141,91.328,61.646z"/>
		<path class="st1" d="M95.623,313.859l-22.659-60.397c-1.638-4.232-1.026-9.002,1.651-12.72c2.678-3.718,7.001-5.813,11.585-5.596
			l50.499,1.729L21.987,177.729l0.303,2.423l-0.01,0.001l15.528,124.579l70.761,44.337v0l0.056,11.812L67.82,309.57"/>
		<polygon class="st1" points="266.003,148.9 262.33,147.312 262.319,147.307 262.319,147.307 140.473,94.602 27.403,165.319 
			155.005,230.744 		"/>
		<path class="st1" d="M273.858,152.274L273.858,152.274L273.858,152.274l-111.834,82.09l17.882,36.018
			c1.272,2.249,3.369,3.76,5.904,4.256c2.533,0.492,5.047-0.115,7.073-1.719l66.409-52.445c0.557-0.448,1.082-0.905,1.584-1.367
			c0.124-0.116,0.24-0.235,0.361-0.352c3.092-2.945,7.094-7.217,8.612-10.529c2.346-5.117,3.441-10.718,3.441-16.347
			L273.858,152.274z"/>
		<polygon points="6.841,169.92 6.841,169.92 6.841,169.92 		"/>
		<polygon points="148.485,244.085 148.469,244.314 148.485,244.302 		"/>
		<path d="M96.424,314.653l7.156,0.434l-24.045-64.12c-0.804-2.078-0.519-4.309,0.784-6.117c1.303-1.809,3.322-2.783,5.539-2.683
			l62.611,2.148l0.016-0.229v0.217v129.777l-30.132-18.88v0l-9.783-6.13v0l-70.761-44.337L22.28,180.153l0.01-0.001l-0.303-2.423
			L6.841,169.92l13.114-8.42l-5.772-46.106c-0.855-6.827,2.641-13.606,8.697-16.869l68.448-36.879
			c4.649-2.505,10.479-1.382,13.865,2.671l23.317,29.539l0,0l11.654-7.286l-24.183-31.265c-7.649-9.155-20.82-11.694-31.321-6.034
			L16.213,86.149c-11.126,5.994-17.547,18.448-15.978,30.99l6.607,52.78l0,0l1.061,8.476L23.75,313.033l126.613,78.138
			l11.645-11.003v-115.62l-10.564-20.071l-14.744-7.602l-50.499-1.729c-4.584-0.217-8.908,1.878-11.585,5.596
			c-2.678,3.718-3.289,8.488-1.651,12.72l25.013,67.178l-0.178-1.737"/>
		<path d="M357.731,68.76L183.777,0c-24.285,30.142-36.345,66.547-43.612,86.569l-11.654,7.286l0,0L20.15,161.6l-0.195-0.1l0,0
			l-13.114,8.42l15.145,7.809L136.7,236.875l14.744,7.602l10.564,20.071l5.66,10.755c3.278,5.797,8.907,11.854,15.442,13.132
			c1.451,0.283,2.912,0.423,4.366,0.423c5.094,0,10.094-1.719,14.235-5l66.409-52.445c0.66-0.522,0.795-0.513,2.116-1.892
			l-0.782,69.454l0.092,0.016C305.616,235.688,315.136,133.31,357.731,68.76z M140.473,94.602l121.846,52.705l0,0l0.011,0.005
			l3.673,1.589l-110.997,81.844L27.403,165.319L140.473,94.602z M266.783,211.713c-1.519,3.312-3.579,5.348-6.671,8.293
			c-0.121,0.117-67.229,52.913-67.229,52.913c-2.026,1.603-4.54,2.21-7.073,1.719c-2.536-0.496-4.633-2.008-5.904-4.256
			l-17.882-36.018l109.032-80.899l-0.832,41.901C270.224,200.995,269.129,206.597,266.783,211.713z"/>
	</g>
	<g>
		<g>
			<path class="st0" d="M103.876,334.909c-0.029-0.016-0.058-0.032-0.087-0.048c0.048-0.051-0.003-0.072,0.031-0.12
				C103.9,334.78,103.919,334.835,103.876,334.909z"/>
			<path class="st0" d="M103.766,334.685c-0.02-0.065-0.076-0.05-0.13-0.071c0.045-0.043,0.104-0.043,0.173-0.015
				C103.794,334.628,103.78,334.656,103.766,334.685z"/>
			<path class="st0" d="M103.425,334.089c-0.014-0.024-0.003-0.078-0.033-0.045c-0.049-0.022,0.028-0.082,0.032-0.12
				c-0.07-0.008-0.114-0.057-0.163-0.117c0.131-0.037,0.083-0.148,0.095-0.249c0.021,0.049,0.016,0.105,0.098,0.136
				c-0.09,0.025-0.043,0.044-0.064,0.129c0.023-0.002,0.047-0.003,0.076,0.014c-0.024,0.056-0.01,0.101,0.044,0.134
				C103.488,334.026,103.463,334.077,103.425,334.089z"/>
			<path class="st0" d="M102.603,332.792c-0.066-0.034-0.079-0.124-0.012-0.143C102.6,332.695,102.627,332.735,102.603,332.792z"/>
			<path class="st0" d="M105.406,334.16c-0.027-0.053-0.127-0.084-0.056-0.167C105.39,334.043,105.43,334.092,105.406,334.16z"/>
			<path class="st0" d="M103.771,332.72c-0.053-0.064,0.024-0.076,0.031-0.175c0.012,0.021,0.024,0.042,0.055,0.057
				C103.757,332.659,103.872,332.718,103.771,332.72z"/>
			<path class="st0" d="M105.443,333.525c0.046-0.036,0.086,0.083,0.174,0.095C105.561,333.692,105.49,333.565,105.443,333.525z"/>
			<path class="st0" d="M105.136,332.974c-0.012-0.058-0.059-0.105-0.023-0.177c0.047,0.06,0.067,0.127,0.131,0.181
				C105.231,333.046,105.149,332.907,105.136,332.974z"/>
			<path class="st0" d="M102.69,331.609c-0.094,0.05-0.05-0.094-0.077-0.124C102.688,331.441,102.666,331.578,102.69,331.609z"/>
			<path class="st0" d="M102.991,331.392c0.075,0.021-0.01,0.088,0.087,0.102c-0.033,0.043-0.076,0.055-0.129,0.038
				C103.014,331.462,102.91,331.414,102.991,331.392z"/>
			<path class="st0" d="M101.73,330.702c-0.058-0.05-0.109-0.102-0.077-0.179C101.684,330.581,101.734,330.633,101.73,330.702z"/>
			<path class="st0" d="M106.197,333.118c-0.07-0.016-0.041-0.061-0.098-0.081c0.023-0.073,0.08-0.043,0.141-0.005
				C106.225,333.06,106.211,333.089,106.197,333.118z"/>
			<path class="st0" d="M105.643,332.787c-0.083-0.024-0.08-0.074-0.109-0.114C105.576,332.638,105.706,332.729,105.643,332.787z"/>
			<path class="st0" d="M106.032,332.781c-0.021-0.006-0.016-0.02-0.011-0.034c-0.126-0.109-0.09-0.267-0.198-0.382
				c0.03-0.09,0.099-0.058,0.14-0.115c0.073,0.061-0.036,0.076-0.01,0.131c0.063,0.05,0.087-0.004,0.108,0.059
				c-0.088,0.028-0.032,0.117-0.063,0.184c0.074,0.021,0.068,0.065,0.12,0.093C106.111,332.803,106.04,332.697,106.032,332.781z"/>
			<path class="st0" d="M102.595,330.628c0.031,0.029,0.038-0.081,0.021-0.098c0.073-0.06,0.007,0.068,0.076,0.069
				c-0.015,0.079-0.067,0.048-0.097,0.084c-0.047-0.035-0.077-0.075-0.109-0.115C102.523,330.508,102.582,330.583,102.595,330.628z"
				/>
			<path class="st0" d="M102.561,330.418c-0.099,0.034-0.075-0.124-0.142-0.16C102.511,330.182,102.551,330.357,102.561,330.418z"/>
			<path class="st0" d="M102.253,329.812c0.053-0.016,0.149,0.049,0.109,0.114C102.313,329.942,102.194,329.884,102.253,329.812z"/>
			<path class="st0" d="M106.981,332.425c-0.081-0.036-0.091-0.241,0.031-0.174C106.941,332.327,107,332.365,106.981,332.425z"/>
			<path class="st0" d="M105.557,331.564c-0.091,0.014-0.142-0.14-0.078-0.234c0.033,0.028,0.05,0.005,0.065-0.019
				C105.646,331.367,105.482,331.501,105.557,331.564z"/>
			<path class="st0" d="M102.099,329.509c-0.013-0.024-0.026-0.047-0.044-0.024c0.038-0.128-0.099-0.203-0.057-0.332
				C102.04,329.313,102.253,329.335,102.099,329.509z"/>
			<path class="st0" d="M106.672,331.71c-0.084-0.018-0.001-0.085,0.01-0.131c0.012,0.021,0.024,0.042,0.055,0.057
				C106.71,331.646,106.689,331.672,106.672,331.71z"/>
			<path class="st0" d="M101.987,329.12c-0.046,0.057-0.036-0.046-0.087-0.048c0.11,0.003-0.012-0.06,0.042-0.141
				c0.098,0.013-0.043,0.098,0.055,0.112C101.98,329.073,101.964,329.103,101.987,329.12z"/>
			<path class="st0" d="M101.888,328.929c-0.061-0.1-0.196-0.086-0.153-0.193c0.088,0.088,0.099-0.06,0.184,0.019
				C101.806,328.791,101.93,328.86,101.888,328.929z"/>
			<path class="st0" d="M107.351,331.453c-0.044-0.073-0.03-0.197,0.074-0.151C107.396,331.381,107.418,331.402,107.351,331.453z"/>
			<path class="st0" d="M101.699,328.362c-0.096-0.045-0.056-0.13-0.099-0.191c-0.049-0.023-0.073,0.029-0.096,0.084
				c-0.082-0.104,0.082-0.145,0.008-0.296c0.08,0.013,0.05,0.025,0.13,0.072c-0.037,0.091-0.028-0.02-0.097-0.026
				C101.579,328.128,101.722,328.22,101.699,328.362z"/>
			<path class="st0" d="M104.499,329.401c-0.071-0.059-0.028-0.163,0.02-0.208C104.552,329.263,104.578,329.347,104.499,329.401z"/>
			<path class="st0" d="M106.009,330.145c-0.026-0.06-0.029-0.013-0.087-0.048c0.028-0.04,0.072-0.033,0.107-0.05
				C106.056,330.07,106.022,330.111,106.009,330.145z"/>
			<path class="st0" d="M105.304,328.666c-0.038-0.068-0.072-0.138-0.023-0.232C105.274,328.512,105.383,328.625,105.304,328.666z"
				/>
			<path class="st0" d="M107.548,329.155c-0.056-0.027-0.051-0.071-0.087-0.103c0.013-0.067,0.095,0.071,0.108,0.004
				C107.595,329.08,107.56,329.12,107.548,329.155z"/>
			<path class="st0" d="M108.711,329.763c-0.062-0.055-0.047-0.133-0.002-0.22C108.714,329.613,108.776,329.731,108.711,329.763z"/>
			<path class="st0" d="M104.241,327.073c-0.029-0.016-0.058-0.032-0.087-0.047c0.023-0.012,0.045-0.024,0.021-0.043
				C104.215,326.938,104.291,327.031,104.241,327.073z"/>
			<path class="st0" d="M107.771,328.648c-0.077-0.057-0.039-0.148-0.153-0.193c0.028-0.041,0.079-0.011,0.119-0.017
				c0.015-0.055-0.068-0.11,0.01-0.131c0.037,0.032-0.024,0.093,0.055,0.112C107.697,328.483,107.82,328.55,107.771,328.648z"/>
			<path class="st0" d="M104.508,326.645c-0.008-0.028-0.053-0.045-0.044-0.078c0.027-0.067,0.115-0.034,0.13,0.016
				C104.587,326.667,104.516,326.561,104.508,326.645z"/>
			<path class="st0" d="M107.514,327.66c-0.083,0.018-0.178-0.195-0.078-0.234C107.449,327.508,107.428,327.6,107.514,327.66z"/>
			<path class="st0" d="M106.977,326.902c-0.031-0.052-0.093-0.095-0.056-0.167C106.961,326.785,107.001,326.834,106.977,326.902z"
				/>
			<path class="st0" d="M106.648,326.339c-0.041-0.03-0.014-0.082-0.055-0.112c0.021-0.026,0.063,0.012,0.098,0.026
				C106.676,326.282,106.662,326.311,106.648,326.339z"/>
			<path class="st0" d="M106.613,326.074c-0.073-0.027-0.029-0.089-0.077-0.124C106.565,325.919,106.68,326.016,106.613,326.074z"/>
			<path class="st0" d="M103.569,324.3c0.005-0.021,0.019-0.016,0.033-0.01c0.009-0.027-0.031-0.04-0.055-0.057
				c0.006-0.045,0.108-0.054,0.053-0.108c0.04-0.075,0.049,0.085,0.076,0.014C103.684,324.194,103.674,324.369,103.569,324.3z"/>
			<path class="st0" d="M103.621,324.082c-0.041-0.013-0.033-0.039-0.022-0.067c-0.03-0.019-0.06-0.037-0.076-0.014
				c-0.026-0.023,0.009-0.064,0.021-0.098c0.036,0.02,0.072,0.04,0.109,0.059C103.604,324.014,103.655,324.035,103.621,324.082z"/>
			<path class="st0" d="M103.186,323.79c-0.036-0.038-0.03-0.089-0.012-0.143C103.246,323.674,103.22,323.73,103.186,323.79z"/>
			<path class="st0" d="M106.097,325.218c-0.043-0.066,0.074-0.094,0.118-0.072C106.244,325.23,106.14,325.191,106.097,325.218z"/>
			<path class="st0" d="M106.336,325.294c-0.056-0.079-0.144-0.191-0.034-0.265C106.295,325.123,106.425,325.176,106.336,325.294z"
				/>
			<path class="st0" d="M106.075,325.096c-0.004-0.06-0.051-0.107-0.023-0.177c0.035,0.051,0.037,0.111,0.088,0.157
				C106.122,325.098,106.089,325.068,106.075,325.096z"/>
			<path class="st0" d="M105.705,324.894c-0.017-0.156-0.082-0.175,0.118-0.127C105.798,324.852,105.746,324.858,105.705,324.894z"
				/>
			<path class="st0" d="M103.051,323.279c-0.066-0.041-0.085-0.097-0.056-0.167C103.027,323.164,103.089,323.207,103.051,323.279z"
				/>
			<path class="st0" d="M102.634,322.504c0.04-0.184-0.08-0.3,0.018-0.428c0.036,0.124,0.067,0.249,0.057,0.387
				c0.027,0.01,0.038-0.029,0.054-0.053C102.858,322.507,102.729,322.549,102.634,322.504z"/>
			<path class="st0" d="M105.534,323.844c-0.073-0.075,0.115-0.067,0.053-0.108C105.691,323.701,105.58,323.861,105.534,323.844z"/>
			<path class="st0" d="M105.555,323.746c-0.038-0.044-0.051-0.095-0.001-0.165C105.589,323.626,105.588,323.681,105.555,323.746z"
				/>
			<path class="st0" d="M102.508,321.697c-0.029-0.016-0.058-0.032-0.087-0.048c0.016-0.04,0.049-0.031,0.064-0.074
				C102.485,321.618,102.538,321.645,102.508,321.697z"/>
			<path class="st0" d="M104.778,322.747c0.03-0.036,0.082-0.005,0.097-0.084C104.919,322.737,104.828,322.866,104.778,322.747z"/>
			<path class="st0" d="M106.23,323.104c-0.022-0.018-0.022-0.042-0.022-0.066"/>
			<path class="st0" d="M106.341,323.329"/>
			<path class="st0" d="M106.837,324.393"/>
			<path class="st0" d="M107.358,325.963"/>
			<path class="st0" d="M103.581,315.087c0.722,2.227,3.724,10.928,3.724,10.928c0.027,0.011,0.225,0.484,0.253,0.549
				c-0.068,0.048-0.047-0.082-0.087-0.102c-0.021,0.043-0.042,0.086-0.064,0.129c0.037,0.024,0.059-0.001,0.098,0.026
				c0.004,0.152-0.149,0.189-0.03,0.339c0.062-0.002,0.032-0.13,0.063-0.184c0.04-0.006,0.091,0.024,0.119-0.017
				c-0.013,0.04-0.185,0.182-0.063,0.294c0.041,0.016,0.068-0.01,0.086-0.062c0.08,0.053-0.096,0.171-0.019,0.263
				c0.066,0.057,0.071-0.072,0.141-0.005c-0.005,0.021-0.018,0.016-0.032,0.009c-0.045,0.009,0.022,0.092-0.075,0.096
				c0.024,0.025,0.082,0.131-0.01,0.131c0.026,0.035-0.001,0.086,0.055,0.112c0.061-0.013,0.081-0.147,0.15-0.136
				c-0.006,0.047-0.012,0.114-0.031,0.174c0.048,0.037,0.067-0.013,0.119,0.038c0.011,0.107,0.067,0.2,0.1,0.301
				c0.05,0.023-0.001-0.07,0.053-0.108c0.092,0.114-0.123,0.207,0.046,0.298c-0.004,0.038-0.081,0.097-0.031,0.12
				c-0.033,0.052-0.023-0.05-0.087-0.047c-0.01,0.021-0.021,0.043-0.032,0.064c0.095,0.082,0.064,0.201,0.165,0.281
				c0.084-0.02,0.049-0.16-0.045-0.188c0.025-0.056,0.039-0.109,0.02-0.153c0.013,0.056,0.175,0.152,0.089,0.268
				c0.071,0.054,0.091-0.047,0.162,0.007c-0.094,0.098-0.02,0.293,0.026,0.451c0.072,0.021,0.002-0.057,0.043-0.086
				c0.022,0.072,0.067,0.023,0.13,0.071c-0.019,0.103,0.055,0.179,0.024,0.286c0.141,0.094,0.018,0.127-0.029,0.339
				c-0.015-0.076,0-0.159-0.056-0.222c0.01-0.041,0.037-0.032,0.065-0.02c0.009-0.052-0.006-0.096-0.045-0.133
				c-0.041-0.031-0.026,0.065-0.01,0.076c-0.06-0.008-0.262-0.13-0.186-0.238c-0.114-0.026-0.169-0.215-0.165-0.336
				c-0.06-0.026-0.093,0.005-0.044-0.079c-0.164-0.141-0.245-0.306-0.253-0.494c-0.113,0.026-0.085-0.176-0.174-0.095
				c0.025-0.037,0.002-0.092-0.001-0.165c0.04,0.019,0.033,0.052,0.076,0.069c0.004-0.038-0.006-0.072-0.001-0.11
				c-0.031-0.005-0.058,0.003-0.075,0.04c-0.067-0.029-0.043-0.085-0.109-0.114c0.011-0.038,0.039-0.026,0.054-0.053
				c-0.06-0.025-0.112-0.052-0.055-0.112c-0.033-0.021-0.088-0.035-0.076-0.069c-0.048-0.037-0.036,0.105-0.097,0.029
				c0.104-0.102-0.048-0.375-0.155-0.413c-0.058-0.05,0.044-0.035,0.043-0.086c0.005-0.019-0.011-0.033,0-0.055
				c-0.059-0.052-0.083,0.002-0.141-0.05c0.067-0.139-0.094-0.329-0.177-0.48c0.048-0.057,0.017-0.09,0.042-0.141
				c0.099,0.063-0.037,0.083,0.034,0.155c0.038-0.055,0.027-0.04,0.119-0.017c0.07-0.138-0.018-0.217-0.11-0.224
				c-0.044,0.062,0.104,0.067,0.044,0.134c-0.026-0.074-0.132-0.082-0.162-0.007c-0.035-0.106-0.116-0.198-0.154-0.303
				c-0.079,0.056-0.048,0.031-0.119-0.038c-0.003,0.062,0.041,0.11,0.12,0.148c-0.022,0.039-0.079-0.024-0.097,0.029
				c0.003-0.068-0.066-0.115-0.077-0.179c0.03-0.054,0.094-0.003,0.152,0.028c-0.009-0.101-0.09-0.181-0.046-0.298
				c0.039-0.025,0.094-0.004,0.129-0.039c-0.009-0.107-0.085,0.023-0.141-0.049c-0.037-0.008-0.005,0.032-0.032,0.064
				c-0.144-0.065-0.145-0.307-0.306-0.386c0.059-0.164-0.055-0.277-0.101-0.41c-0.098-0.022-0.042,0.112-0.129,0.148
				c-0.098-0.083,0.067-0.157-0.098-0.136c0.044-0.046,0.098-0.062,0.162-0.048c0.001-0.129-0.055-0.24-0.133-0.346
				c0.114-0.072,0.028-0.174-0.013-0.253c-0.027-0.01-0.038,0.029-0.054,0.053c-0.008,0.033,0.046,0.048,0.076,0.069
				c-0.009,0.027-0.024,0.036-0.043,0.031c-0.007,0.014-0.014,0.029-0.021,0.043c-0.061-0.049,0.014-0.139-0.11-0.169
				c-0.03,0.052,0.023,0.079,0.023,0.121c-0.081,0.046-0.074-0.086-0.109-0.114c-0.101,0.149-0.067-0.122-0.153-0.193
				c0.053-0.008,0.139-0.056,0.118-0.126c-0.068,0.07-0.097-0.019-0.195,0.003c0.016-0.023,0.014-0.041-0.001-0.055
				c0.1,0.005,0.052-0.104,0.129-0.148c-0.027-0.042-0.168-0.157-0.11-0.279c-0.064-0.047-0.088,0.021-0.13,0.039
				c-0.072-0.082-0.107-0.168-0.175-0.205c0.014-0.028,0.028-0.057,0.042-0.086c0.029,0.016,0.058,0.032,0.087,0.047
				c-0.071,0.089,0.055,0.118,0.077,0.179c0.044-0.099-0.084-0.146-0.046-0.243c-0.197,0.06-0.145-0.158-0.283-0.264
				c0.038,0.043,0.008,0.107,0.066,0.145c-0.08,0.028-0.095-0.118-0.11-0.169c0.039-0.028,0.084-0.034,0.118-0.072
				c-0.005-0.098-0.1-0.021-0.141-0.05c0.026-0.032,0.003-0.05-0.022-0.067c0.101-0.032,0.075-0.111-0.055-0.167
				c0.124,0.02,0.027-0.035,0.096-0.139c-0.122-0.069-0.039,0.142-0.162,0.048c0.11-0.063,0.057-0.117,0.117-0.182
				c-0.104-0.06-0.045,0.117-0.107,0.105c-0.028-0.081-0.033-0.099,0.031-0.175c-0.094-0.056-0.02,0.067-0.086,0.062
				c-0.163-0.113-0.042-0.197-0.046-0.353c-0.051-0.028-0.082,0.002-0.141-0.05c0.051-0.095-0.044-0.146-0.024-0.231
				c-0.05-0.009-0.082,0.038-0.129,0.038c-0.023,0.032,0.002,0.048-0.01,0.076c0.051,0.047,0.064-0.022,0.097-0.029
				c0.017,0.105-0.031,0.153,0.035,0.265c-0.05-0.065-0.131-0.12-0.121-0.203c-0.065-0.043,0.024,0.093-0.054,0.053
				c0.057,0.068,0.067,0.151,0.11,0.224c-0.017,0.021-0.051-0.009-0.065,0.019c-0.013,0.073,0.068,0.002,0.109,0.06
				c-0.019,0.036-0.011,0.065,0.012,0.088c-0.2,0.065,0.1,0.15,0.002,0.274c0.063,0.048,0.094-0.043,0.119,0.038
				c-0.049,0.067-0.135,0.022-0.183,0.091c-0.063-0.03-0.018-0.092-0.076-0.124c0.016-0.023,0.049,0.004,0.076,0.014
				c0.038-0.073-0.024-0.115-0.056-0.167c-0.062,0.007-0.01,0.061-0.075,0.096c0.011,0.07,0.06,0.129,0.034,0.21
				c0.063,0.048,0.094-0.043,0.119,0.038c-0.202,0.176,0.089,0.491,0.147,0.709c0.047-0.001,0.065-0.091,0.119-0.072
				c-0.091-0.193-0.214-0.377-0.265-0.582c0.048-0.047,0.083,0.058,0.033,0.1c0.073,0.035,0.08,0.108,0.13,0.017
				c0.005,0.06,0.009,0.12,0.023,0.177c0.048,0.002,0.071-0.072,0.14-0.005c-0.076,0.08-0.04,0.088,0.002,0.165
				c0.059,0.053,0.071-0.036,0.13,0.016c0.067,0.109,0.054,0.275,0.014,0.363c0.027-0.009,0.066,0.02,0.087-0.007
				c0.029-0.06-0.084,0.019-0.022-0.067c0.096,0.081,0.073,0.199,0.165,0.281c-0.025,0.05-0.05,0.1-0.075,0.151
				c0.054,0.021,0.099,0.01,0.163,0.062c-0.088,0.1-0.121-0.013-0.184-0.019c-0.037,0.079,0.152,0.09,0.077,0.179
				c0.091,0.06,0.108-0.105,0.205-0.025c-0.011,0.021-0.035,0.002-0.054-0.002c-0.014,0.145,0.08,0.258,0.144,0.379
				c-0.048,0.088-0.154,0.001-0.163-0.062c-0.01,0.07-0.144,0.178-0.052,0.218c0.071,0.012-0.004-0.075,0.064-0.074
				c0.083,0.012-0.018,0.078,0.065,0.091c-0.05,0.056-0.087,0.018-0.085,0.117c0.045,0.03,0.078,0.02,0.097-0.029
				c0.096,0.073-0.103,0.12-0.009,0.187c0.057,0.011,0.067-0.12,0.14-0.06c-0.017,0.074-0.061,0.066-0.085,0.117
				c0,0.025,0,0.049,0.022,0.067c0.054-0.012,0.023-0.105,0.107-0.105c0.021,0.087,0.066,0.053,0.163,0.117
				c0.111,0.139,0.082,0.329,0.112,0.443c0.086-0.129,0.155,0.249,0.241,0.351c0.084-0.032-0.064-0.152,0.009-0.241
				c0.125,0.113-0.005,0.281,0.133,0.346c-0.016,0.023-0.049-0.004-0.076-0.014c-0.063,0.068,0.024,0.091-0.021,0.153
				c0.202,0.079,0.105,0.288,0.252,0.329c-0.024,0.175,0.095,0.241,0.025,0.396c-0.026-0.059-0.029-0.013-0.087-0.047
				c-0.044,0.215,0.155,0.215,0.294,0.188c-0.051,0.061-0.127,0.045-0.183,0.091c0.043,0.067,0.058,0.142,0.121,0.202
				c0.052,0.013,0.009-0.098,0.042-0.141c-0.043-0.006,0.142,0.236,0.132,0.291c0.028,0.035,0.116,0.009,0.065-0.019
				c0.079-0.02,0.024,0.066,0.033,0.1c-0.016,0.023-0.049-0.004-0.076-0.014c0.039,0.138,0.304,0.294,0.275,0.505
				c0.036,0.02,0.073,0.04,0.109,0.06c-0.021,0.043,0.046,0.06,0.001,0.11c0.22,0.094,0.096,0.29,0.306,0.386
				c-0.034,0.175,0.079,0.307,0.231,0.427c0.021-0.107,0.055-0.122,0.074-0.205c0.05,0.168-0.007,0.37,0.123,0.422
				c-0.139,0.035-0.164,0.174-0.334,0.173c0.045,0.078,0.116,0.149,0.164,0.226c-0.147,0.034-0.154-0.291-0.326-0.233
				c-0.027,0.044,0.072,0.052,0.098,0.081c-0.098,0.042,0.039,0.138-0.03,0.229c0.05-0.026,0.102-0.051,0.184,0.019
				c-0.081,0.016-0.081,0.073-0.107,0.16c0.079,0.034,0.192,0.106,0.099,0.136c0.063,0.048,0.108,0,0.13,0.071
				c0.073,0.016,0.04-0.019,0.064-0.074c0.038,0.069,0.078,0.136,0.056,0.222c0.073,0.042,0.088-0.092,0.162-0.048
				c-0.015,0.037-0.138,0.098-0.042,0.141c-0.035,0.021-0.058,0.074-0.119,0.017c-0.005,0.105,0.004,0.086-0.074,0.151
				c-0.044,0.05,0.11,0.041,0.066,0.091c-0.037,0.095-0.078-0.023-0.119-0.038c0.001,0.048,0.062,0.079,0.045,0.134
				c0.054,0.021,0.063-0.095,0.129-0.038c-0.063,0.041,0.009,0.127,0.044,0.079c-0.094,0.137,0.023,0.291,0.187,0.403
				c-0.036,0.016-0.06,0.068-0.097,0.084c-0.057-0.062-0.048-0.029-0.13-0.071c0.012-0.052,0.051-0.024,0.086-0.008
				c-0.021-0.146-0.164-0.257-0.252-0.384c-0.019,0.134,0.15,0.213,0.133,0.346c-0.039-0.056-0.079-0.111-0.142-0.16
				c-0.016,0.078,0.091,0.12,0.002,0.22c0.055,0.022,0.077-0.052,0.14-0.005c-0.022,0.037,0.004,0.06-0.021,0.098
				c0.041,0.036,0.057-0.008,0.075-0.041c0.043,0.024-0.001,0.074,0.066,0.09c-0.087,0.044,0.005,0.137-0.085,0.172
				c0.084,0.075,0.107-0.034,0.184,0.019c-0.028,0.082,0.084,0.219,0.142,0.215c-0.025,0.121,0.077,0.09,0.067,0.2
				c0.072,0.022,0.002-0.057,0.042-0.086c0.101,0.074,0.061,0.19,0.143,0.269c-0.038,0.051-0.053,0.063-0.129,0.093
				c0.035,0.051,0.039,0.167-0.042,0.196c0.057,0.065,0.051-0.06,0.108,0.005c0.036,0.044-0.007,0.112,0.066,0.146
				c-0.021,0.076-0.074,0.044-0.053,0.107c0.072,0.039,0.082-0.109,0.14-0.115c0.035-0.053-0.132-0.046-0.055-0.112
				c0.081-0.006,0.115,0.129,0.088,0.212c0.053,0.051,0.071,0,0.119,0.038c-0.029,0.101-0.037,0.292,0.046,0.298
				c0.027,0.024-0.017,0.039-0.043,0.031c0.009,0.065,0.008,0.132,0.11,0.169c-0.048,0.058,0.006,0.084-0.042,0.141
				c0.03-0.088-0.16-0.112-0.088-0.212c-0.097-0.026-0.106,0.054-0.195-0.052c-0.078,0.128,0.05,0.122,0.066,0.146
				c-0.058,0.089-0.081-0.05-0.152-0.029c0.04-0.049,0.03-0.082-0.034-0.1c0.047-0.062-0.008-0.089,0.053-0.108
				c0.055,0.045,0.027,0.103,0.108,0.06c0.016-0.047-0.094-0.058-0.055-0.112c-0.072-0.011-0.069,0.07-0.13-0.017
				c0.122,0.002-0.028-0.073-0.045-0.133c-0.022-0.005-0.112,0.04-0.064,0.074c-0.013-0.047-0.156-0.124-0.143-0.214
				c-0.16-0.022-0.103-0.152-0.25-0.164c0.001-0.094,0.074-0.104,0.041-0.196c-0.033-0.01-0.045,0.044-0.064,0.074
				c-0.127-0.042-0.088-0.133-0.153-0.193c0.034-0.038,0.057-0.027,0.076,0.014c0.065-0.07-0.039-0.119,0.042-0.141
				c-0.017-0.001-0.11,0.008-0.087-0.048c-0.073-0.016-0.04,0.019-0.064,0.074c-0.088-0.072-0.039-0.184-0.186-0.238
				c0.161-0.081-0.12-0.101-0.002-0.22c-0.096,0.046-0.064-0.059-0.141-0.05c0.008,0.065,0.008,0.132,0.109,0.169
				c-0.118,0.094,0.044,0.22,0.154,0.303c-0.047,0.02-0.093,0.041-0.118,0.127c0.102-0.206-0.388-0.412-0.146-0.654
				c-0.051-0.101-0.063-0.214-0.154-0.303c0.034-0.038,0.057-0.027,0.076,0.014c0.021-0.043,0.043-0.086,0.064-0.129
				c0-0.037-0.027-0.065-0.066-0.091c-0.035,0.066,0.038,0.099-0.031,0.174c-0.06-0.037-0.071-0.089-0.131-0.126
				c0.014-0.029,0.028-0.057,0.042-0.086c-0.006-0.029-0.024-0.054-0.044-0.078c-0.049-0.023-0.073,0.028-0.097,0.084
				c-0.07-0.116,0.135-0.112,0.031-0.229c0.023-0.021,0.05-0.029,0.087-0.007c0.017-0.042,0.021-0.08-0.001-0.11
				c-0.12,0.108-0.245-0.141-0.337-0.212c-0.007,0.11,0.172,0.327,0.046,0.353c0.031,0.101,0.12,0.185,0.132,0.291
				c-0.089,0.037-0.068-0.113-0.12-0.148c-0.018,0.092,0.019,0.082-0.053,0.163c0.155,0,0.048,0.093,0.206,0.085
				c-0.032,0.101-0.104,0.08-0.172,0.069c-0.008,0.073,0.095,0.045,0.13,0.071c-0.025,0.05,0.006,0.084-0.042,0.141
				c0.053,0.052,0.071,0.001,0.119,0.038c-0.055,0.097,0.011,0.044,0.055,0.112c-0.024,0.093,0.043,0.159,0.013,0.253
				c0.06,0.057,0.073-0.031,0.119-0.017c0-0.089-0.127-0.217,0.009-0.241c0.025,0.042-0.022,0.105-0.021,0.153
				c0.023-0.002,0.047-0.003,0.076,0.014c-0.047,0.094-0.048,0.111,0.034,0.155c-0.028,0.113-0.122,0.024-0.15,0.136
				c-0.005,0.02,0.011,0.033,0,0.055c0.063,0.047,0.088-0.021,0.13-0.039c0.092,0.021,0.036,0.087,0.109,0.114
				c-0.01,0.041-0.037,0.031-0.065,0.019c-0.006,0.112,0.179,0.167,0.068,0.31c0.116,0.165,0.09,0.324,0.253,0.439
				c-0.063,0.08,0.016,0.118,0.023,0.177c-0.072,0.043-0.097,0.024-0.129,0.093c-0.097-0.058-0.076-0.065-0.174-0.095
				c0.067-0.06,0.056-0.023,0.107-0.105c-0.002-0.079-0.083-0.134-0.023-0.232c-0.074-0.025-0.095,0.106-0.15,0.136
				c-0.055-0.028-0.04-0.17-0.131-0.126c-0.062-0.104,0.018-0.25-0.143-0.324c-0.028,0.081,0.024,0.14,0.002,0.22
				c-0.029-0.04-0.026-0.091-0.11-0.114c0.062-0.038,0.057-0.053-0.022-0.067c0.073-0.163-0.144-0.239-0.144-0.379
				c-0.055-0.058-0.062,0.027-0.086,0.062c-0.073-0.027-0.029-0.089-0.077-0.124c0.068,0.012,0.128-0.004,0.217,0.064
				c0.028-0.004,0.052-0.021,0.076-0.041c-0.007-0.041-0.037-0.075-0.055-0.112c-0.039-0.01-0.052,0.057-0.108-0.005
				c0.013-0.05,0.043-0.049,0.064-0.074c0.006-0.026-0.036-0.038-0.022-0.067c-0.083-0.02-0.026,0.047-0.086,0.063
				c-0.026,0.062,0.09,0.083,0.034,0.155c-0.243-0.497-0.409-1.016-0.694-1.5c0.123-0.073-0.002-0.22-0.11-0.224
				c0.059-0.055,0.147-0.022,0.205-0.079c0.002-0.106-0.126-0.059-0.109-0.17c-0.027-0.01-0.038,0.029-0.054,0.053
				c-0.047-0.078,0.001-0.184-0.067-0.255c-0.142,0.151-0.163-0.171-0.337-0.267c0.01-0.077,0.067-0.012,0.108,0.005
				c-0.051-0.133-0.049-0.068-0.131-0.181c0.02-0.028,0.069,0.028,0.086-0.008c0-0.037-0.027-0.065-0.066-0.09
				c0.031-0.015,0.057-0.042,0.075-0.096c0.027-0.089-0.102-0.026-0.044-0.134c-0.041-0.016-0.068,0.01-0.086,0.062
				c-0.115-0.186-0.153-0.14-0.187-0.403c-0.031-0.005-0.058,0.003-0.075,0.041c0.043-0.184-0.101-0.313-0.09-0.487
				c-0.024-0.001-0.049-0.003-0.065,0.019c-0.024-0.06,0.008-0.137,0.052-0.218c-0.05-0.044-0.082-0.034-0.097,0.029
				c-0.028-0.212-0.275-0.359-0.167-0.611c-0.059-0.052-0.071,0.036-0.13-0.016c-0.021,0.043,0.046,0.06,0.001,0.11
				c-0.026-0.164,0.006-0.389-0.135-0.566c0.063-0.046,0.094,0.117,0.14-0.005c-0.096-0.068-0.175-0.123-0.175-0.205
				c0.087-0.08,0.031,0.068,0.087,0.102c0.051-0.083-0.01-0.132-0.013-0.198c-0.055,0.014-0.104,0.046-0.151,0.082
				c-0.032-0.176,0.048-0.333-0.08-0.509c-0.026-0.008-0.036,0.035-0.065,0.019c-0.04-0.018-0.033-0.051-0.076-0.069
				c0.042-0.079,0.055-0.048,0.064-0.129c-0.034,0.004-0.073-0.004-0.119-0.038c0.006-0.094-0.041-0.171-0.067-0.255
				c-0.054-0.027-0.04,0.069-0.01,0.077c-0.121-0.035-0.05-0.21,0.03-0.285c-0.072-0.074-0.09,0.016-0.118,0.072
				c-0.039-0.117,0.057-0.274-0.036-0.375c-0.038-0.032-0.08,0.081-0.01,0.077c-0.076,0-0.123-0.057-0.152-0.138
				c0.003,0.027,0.011,0.107-0.054,0.052c-0.007,0.039,0.059,0.056,0.001,0.11c-0.078-0.038-0.035-0.112-0.088-0.157
				c0.051,0.009,0.117-0.06,0.053-0.108c0.025-0.027,0.024,0.024,0.065,0.036c0.008-0.076-0.007-0.145,0.063-0.239
				c-0.07-0.067-0.074,0.062-0.141,0.006c0.036-0.065,0.008-0.15,0.085-0.172c-0.067-0.136-0.166-0.286-0.166-0.391
				c0.037-0.012,0.081-0.005,0.097-0.084c-0.111-0.027-0.128,0.083-0.195-0.052c-0.051,0.064,0.01,0.095,0.012,0.143
				c-0.086,0.018-0.038-0.159-0.088-0.212c0.025-0.014,0.061,0.005,0.076-0.041c-0.052-0.044-0.04-0.087-0.142-0.105
				c0.017-0.075,0.069-0.043,0.086-0.117c-0.006-0.053-0.175-0.056-0.077-0.179c-0.048-0.038-0.066,0.014-0.119-0.038
				c-0.03,0.052,0,0.086,0.023,0.122c-0.244-0.203-0.219-0.645-0.365-0.938c-0.045,0.01-0.078,0.052-0.107,0.105
				c-0.041-0.055-0.008-0.132-0.077-0.179c0.023-0.056,0.067-0.049,0.108-0.05c-0.046-0.148-0.291-0.376-0.124-0.587
				c-0.09-0.028-0.038,0.074-0.097,0.084c-0.039-0.107-0.042-0.132-0.088-0.212c0.022-0.024,0.055-0.013,0.075-0.041
				c-0.005-0.119-0.252-0.25-0.132-0.346c-0.051-0.028-0.083,0.002-0.141-0.05c0.003-0.056,0.063-0.129-0.034-0.155
				c0.145-0.127-0.133-0.275-0.058-0.442c-0.028,0.023-0.085-0.043-0.108-0.004c0.008-0.094,0.04-0.195-0.099-0.246
				c0.032-0.046,0.037-0.084,0.031-0.119c-0.023,0.002-0.046,0.003-0.076-0.014c0.047-0.03,0.016-0.121-0.022-0.067
				c0.029-0.066-0.01-0.15-0.078-0.234c0.077,0.001,0.068-0.045,0.053-0.108c-0.027-0.011-0.038,0.029-0.053,0.052
				c-0.053-0.076-0.047-0.169-0.1-0.246c-0.057,0.088,0.044,0.082-0.042,0.141c-0.033-0.045-0.074-0.088-0.066-0.146
				c-0.033-0.009-0.045,0.044-0.064,0.074c0.021,0.061,0.147,0.091,0.077,0.179c-0.003-0.08-0.124-0.01-0.12-0.093
				c-0.08,0-0.066,0.066-0.064,0.129c0.048,0.018,0.072-0.034,0.108-0.05c0.065,0.052-0.009,0.098-0.042,0.141
				c0.019,0.056,0.009,0.12,0.088,0.158c-0.057-0.119,0.073-0.122,0.02-0.208c0.049-0.049,0.063,0.098,0.097-0.029
				c0.031-0.08-0.096,0.044-0.065-0.035c0.04-0.108,0.035-0.022,0.108,0.004c0-0.024,0-0.049-0.022-0.067
				c0.084,0.055,0.061,0.3,0.155,0.413c-0.105-0.007,0.002,0.069-0.075,0.096c-0.022-0.079-0.037-0.16-0.013-0.253
				c-0.229,0.023-0.071,0.277-0.105,0.38c0.122,0.1,0.164-0.041,0.271,0.012c-0.105,0.036,0.066,0.102-0.01,0.186
				c-0.001-0.057-0.086-0.193-0.163-0.117c0.138,0.062-0.028,0.104,0.088,0.212c0.071,0.054,0.091-0.047,0.162,0.007
				c-0.018,0.036-0.035,0.072-0.053,0.108c-0.03-0.019-0.06-0.038-0.076-0.014c-0.029,0.18,0.054,0.327,0.058,0.497
				c-0.093-0.027-0.051-0.095-0.099-0.136c-0.024,0.11-0.012,0.29,0.132,0.291c-0.027-0.041-0.027-0.09,0.02-0.153
				c0.055-0.037,0.047,0.075,0.098,0.026c0.018,0.11-0.082,0.237,0.089,0.267c-0.053,0.059,0,0.086,0.023,0.122
				c-0.027,0.007-0.042,0.052-0.075,0.041c0.096,0.106,0.05,0.352,0.198,0.382c0.017,0.074,0.012,0.155,0.024,0.231
				c0.028-0.005,0.052-0.021,0.075-0.041c0.055,0.053-0.047,0.062-0.053,0.107c0.077,0.052,0.117-0.004,0.162-0.048
				c0.054,0.068,0.049,0.173,0.164,0.172c-0.058,0.041-0.144-0.004-0.183,0.091c-0.083-0.09,0.129-0.08,0.01-0.186
				c-0.071-0.003-0.102,0.034-0.107,0.105c0.012,0.137,0.212,0.218,0.208,0.36c0.106,0.022,0.035-0.071,0.064-0.129
				c0.065,0.042,0.03,0.113,0.023,0.177c-0.023,0.002-0.047,0.003-0.076-0.014c-0.004,0.05,0.058,0.051-0.01,0.077
				c0.097,0.075-0.042,0.22,0.143,0.27c-0.07,0.032-0.035,0.176,0.055,0.167c-0.122,0.096-0.063,0.252,0.024,0.341
				c-0.011,0.038-0.039,0.026-0.053,0.053c0.083,0.071,0.067,0.183,0.174,0.15c-0.025,0.05-0.049,0.1-0.074,0.151
				c0.092,0.098,0.097-0.066,0.173-0.015c-0.043,0.092-0.005,0.161,0.056,0.222c-0.05,0.026-0.082,0.112-0.129,0.148
				c0.08,0.027,0.103-0.119,0.194-0.058c-0.158,0.047-0.078,0.259,0.025,0.342c-0.003,0.095-0.105,0.113-0.042,0.196
				c0.056-0.021,0.102-0.103,0.108,0.005c0.054,0.003,0.088-0.057,0.118-0.127c0.02,0.006,0.016,0.02,0.011,0.033
				c0.015,0.008,0.029,0.016,0.044,0.024c-0.025,0.066-0.082,0.039-0.107,0.105c-0.02,0.1,0.107,0.05,0.185,0.128
				c-0.043,0.08,0.068,0.114,0.045,0.189c-0.114-0.04-0.113-0.113-0.099-0.191c-0.038,0.011-0.089-0.017-0.141-0.049
				c0.041,0.067-0.035,0.08,0.066,0.145c-0.008,0.084-0.079-0.022-0.086,0.062c0.104,0.049,0.136,0.211,0.197,0.327
				c-0.035,0.033-0.085-0.083-0.077-0.124c-0.134,0.014-0.063,0.174-0.009,0.241c0.094,0.027-0.033-0.119,0.042-0.086
				c0.112,0.06-0.036,0.083,0.034,0.155c0.123-0.143,0.062,0.263,0.252,0.329c-0.054,0.058-0.05,0.194-0.095,0.303
				c0.14-0.051,0.104,0.257,0.067,0.31c0.03,0.019,0.06,0.038,0.076,0.014c-0.041,0.042,0.039,0.095-0.009,0.186
				c0.136,0.019,0.04,0.116,0.045,0.244c0.046,0.013,0.069-0.04,0.13,0.016c-0.017,0.233,0.096,0.323,0.113,0.554
				c0.05,0.012,0.074-0.041,0.098,0.026c-0.129,0.042-0.016,0.132,0.087,0.157c-0.11-0.006-0.145,0.124-0.074,0.206
				c0.09,0.005-0.035-0.105,0.053-0.108c0.04,0.019,0.033,0.052,0.076,0.069c-0.034,0.037-0.086,0.007-0.064,0.074
				c0.034,0.012,0.039-0.06,0.075-0.041c0.077,0.094,0.04,0.142-0.021,0.153c-0.001,0.091,0.102-0.03,0.109,0.059
				c-0.083,0.012-0.086,0.093-0.085,0.172c0.106,0.001,0.02,0.051,0.119,0.093c-0.07,0.021-0.035,0.103,0.012,0.143
				c0.041-0.005,0.008-0.041,0.075-0.041c-0.093,0.056,0.105,0.284-0.062,0.294c0.066,0.048-0.058,0.152,0.013,0.198
				c0.087,0.027,0.032-0.07,0.096-0.139c0.046,0.054,0.031,0.125,0.077,0.179c-0.196,0.087-0.023,0.287-0.04,0.361
				c0.06-0.023,0.057-0.112,0.074-0.151c-0.033-0.028-0.049-0.005-0.065,0.019c-0.061-0.063,0.031-0.066,0.02-0.153
				c0.057,0.105,0.044,0.139,0.207,0.196c-0.015,0.079-0.078,0.014-0.108,0.05c0.151,0.065,0.154,0.491,0.243,0.625
				c-0.004,0.025-0.018,0.157-0.085,0.117c-0.043,0.108,0.123,0.145-0.009,0.186c0.06,0.037,0.085-0.031,0.13-0.039
				c0.008-0.033-0.046-0.048-0.077-0.069c0.047-0.071,0.116,0.01,0.108-0.105c0.03,0.085-0.013,0.11-0.03,0.229
				c0.023-0.001,0.046-0.003,0.076,0.014c-0.037,0.072-0.052-0.024-0.119,0.017c-0.014,0.059,0.062,0.092,0.001,0.165
				c-0.164-0.233-0.256-0.487-0.352-0.74c-0.057-0.065-0.051,0.061-0.108-0.004c-0.021-0.063,0.024-0.055,0.053-0.107
				c-0.087-0.048-0.116,0.079-0.161,0.158c0.052,0.141,0.251,0.258,0.209,0.47c0.013,0.051,0.096,0.082,0.099,0.136
				c-0.088-0.026-0.074-0.015-0.01,0.076c-0.013,0.068-0.065,0.02-0.086,0.062c0.166,0.09,0.08,0.146,0.121,0.258
				c0.048,0.037,0.067-0.013,0.119,0.038c-0.073,0.014-0.103,0.08-0.042,0.141c0.048,0.037,0.036-0.105,0.097-0.029
				c-0.026,0.032-0.003,0.05,0.022,0.067c-0.026,0.01-0.047,0.036-0.064,0.074c0.085,0.133,0.121,0.201,0.24,0.296
				c-0.129,0.069,0.07,0.101,0.012,0.198c0.073,0.017-0.001-0.07,0.053-0.107c0.016,0.063,0.021,0.128,0.077,0.179
				c-0.004,0.038-0.08,0.098-0.031,0.12c-0.092,0.004-0.076,0.021-0.118,0.127c-0.024-0.133-0.144-0.157-0.111-0.279
				c-0.094-0.04-0.044,0.058-0.119,0.017c0.026-0.082,0.073-0.101,0.129-0.093c0.011-0.046-0.02-0.08,0.01-0.132
				c-0.108,0.027-0.09-0.095-0.087-0.157c-0.084-0.022-0.038,0.089-0.118,0.127c-0.035-0.06-0.007-0.071,0.031-0.12
				c-0.033-0.013-0.113-0.044-0.153-0.138c0.044-0.011,0.068-0.081,0.096-0.139c-0.061-0.005-0.107,0.036-0.184-0.019
				c0.033-0.059-0.035-0.088-0.044-0.134c-0.032,0.029-0.083,0-0.119,0.017c-0.028-0.188-0.116-0.357-0.21-0.525
				c0.07-0.131-0.107-0.189-0.067-0.31c-0.227-0.127-0.042-0.458-0.297-0.517c0.049-0.051-0.003-0.073,0.032-0.12
				c-0.077-0.026-0.094-0.07-0.141-0.105c-0.017,0.079,0.068,0.116-0.031,0.174c0.078-0.054,0.055,0.029,0.098,0.081
				c-0.055,0.061-0.058-0.008-0.087-0.047c-0.052,0.101,0.018,0.166,0.045,0.243c0.042,0.021,0.028-0.091-0.001-0.11
				c0.094,0.003,0.062,0.201,0.111,0.279c-0.075-0.021-0.013-0.082-0.088-0.102c0.071,0.148,0.01,0.229,0.036,0.375
				c0.054,0.038,0.039-0.132,0.108-0.051c-0.014,0.029-0.028,0.058-0.043,0.086c0.115,0.127,0.116,0.316,0.091,0.432
				c0.059-0.123,0.085,0.045,0.131,0.126c-0.039,0.022-0.063,0.075-0.086,0.007c-0.085,0.152,0.109,0.115,0.045,0.243
				c0.064,0.034,0.105-0.005,0.151-0.026c0.04,0.039-0.045,0.144-0.074,0.151c-0.017,0.081,0.172,0.169,0.056,0.222
				c0.01,0.03,0.092,0.129,0.12,0.093c-0.056,0.087-0.015,0.277,0.101,0.411c0.007-0.098-0.004-0.085,0.063-0.184
				c0.055,0.045,0.098,0.093,0.153,0.138c-0.003,0.055-0.132-0.017-0.075,0.041c-0.075,0.055-0.023-0.076-0.033-0.1
				c-0.111,0.017-0.119,0.234,0.024,0.287c0.044,0.109-0.131,0.284,0.014,0.363c-0.014,0.028-0.028,0.057-0.042,0.086
				c0.051,0.047,0.064-0.021,0.097-0.029c0.049,0.059-0.057,0.164,0.034,0.21c0.073,0.017,0.021-0.076,0.053-0.108
				c0.019,0.2,0.011,0.395,0.177,0.48c0.014,0.057,0.046,0.109-0.01,0.186c-0.04-0.031-0.07-0.033-0.086,0.007
				c0.102,0.044,0.055,0.256,0.187,0.348c0.029-0.051,0.056-0.102,0.01-0.131c0.067,0.017,0.127,0.194,0.165,0.281
				c-0.055,0.101-0.02-0.058-0.109-0.06c-0.035,0.072,0.034,0.113-0.009,0.186c-0.031-0.005-0.058,0.003-0.075,0.041
				c-0.06-0.031-0.026-0.06-0.087-0.048c0.003,0.023,0.006,0.047-0.01,0.076c0.151,0.049,0.126,0.083,0.218,0.174
				c0.061-0.079-0.084-0.097-0.023-0.177c0.074,0.021,0.045,0.072,0.119,0.093c-0.077-0.016-0.078,0.154-0.052,0.217
				c0.027,0.011,0.038-0.029,0.053-0.052c0.093,0.021,0.035,0.087,0.109,0.114c-0.023,0.038-0.08-0.027-0.108-0.004
				c-0.019,0.134,0.102,0.226,0.101,0.355c-0.086,0.026-0.015-0.089-0.077-0.124c-0.02-0.006-0.032,0.01-0.054-0.002
				c0.06,0.076,0.005,0.117,0.002,0.22c-0.093,0.022-0.091-0.068-0.022-0.122c-0.069-0.065-0.074,0.103-0.108-0.005
				c-0.033,0.066-0.012,0.187-0.118,0.127c-0.016-0.049,0.017-0.077,0.075-0.041c0.009-0.027-0.031-0.04-0.055-0.057
				c0.017-0.074,0.061-0.066,0.086-0.117c-0.036-0.099-0.097-0.191-0.068-0.31c-0.205-0.074-0.1-0.24-0.187-0.348
				c-0.128,0.045,0.015,0.201-0.095,0.248c-0.01-0.201-0.162-0.279-0.102-0.52c-0.088-0.029-0.16-0.045-0.088-0.158
				c-0.086-0.024-0.159,0.022-0.161,0.103c-0.054-0.014-0.011-0.058-0.044-0.078c0.065,0.017,0.083-0.106,0.162-0.048
				c-0.123-0.092-0.041-0.245-0.1-0.356c-0.018,0.173-0.056,0.291-0.051,0.327c-0.135-0.016-0.032-0.259-0.036-0.375
				c-0.087,0.017-0.101-0.106-0.11-0.169c0.017-0.021,0.05,0.009,0.065-0.019c0.004-0.02-0.011-0.034,0-0.055
				c-0.029,0.002-0.047,0.037-0.086,0.007c-0.048-0.138-0.028-0.297-0.058-0.441c-0.019-0.006-0.032,0.009-0.054-0.003
				c0.015,0.159-0.026,0.224-0.018,0.373c-0.112-0.095-0.086-0.231-0.165-0.336c0.046-0.057,0.036,0.046,0.087,0.048
				c0.032-0.04,0.013-0.065,0.021-0.098c-0.073-0.063-0.137,0.016-0.163-0.062c0.017-0.04,0.049-0.031,0.064-0.074
				c0.021,0.012,0.004,0.035,0.001,0.055c0.05,0.028,0.176-0.019,0.087,0.048c0.121,0.073,0.12-0.056,0.085-0.117
				c-0.022,0.098-0.089-0.079-0.14,0.005c-0.045-0.036,0.056-0.114,0.02-0.153c-0.078-0.031-0.082,0.101-0.075,0.151
				c-0.029,0.054-0.1-0.016-0.129,0.039c-0.062-0.049-0.007-0.133-0.077-0.179c-0.07,0.024-0.028,0.081-0.096,0.139
				c-0.113-0.034-0.008-0.132-0.11-0.169c0.049-0.047,0.053,0.067,0.13,0.071c-0.019-0.049-0.023-0.103-0.066-0.145
				c0.091,0.055,0.115,0.004,0.184-0.036c0.005-0.019-0.011-0.033,0-0.055c-0.057-0.065-0.051,0.06-0.108-0.004
				c0.082-0.104-0.125-0.472-0.242-0.406c0.045-0.062-0.005-0.11,0.064-0.129c-0.078-0.074-0.107-0.001-0.173-0.04
				c0.044,0.079,0.006,0.182,0.067,0.255c-0.088-0.029-0.161-0.221-0.165-0.336c-0.043-0.023-0.057,0.044-0.108-0.004
				c0.027-0.086,0.058-0.175-0.067-0.255c0.08-0.034,0.046-0.101,0.151-0.082c-0.086-0.029-0.002-0.123-0.099-0.19
				c0.134,0.014,0.003-0.151,0.085-0.172c-0.089-0.107-0.074,0.099-0.151,0.027c0.049-0.07,0.036-0.121-0.001-0.165
				c-0.04,0.005-0.072,0.033-0.108,0.05c0.014,0.184,0.131,0.333,0.091,0.487c-0.075-0.02,0.01-0.088-0.088-0.103
				c0.113-0.272-0.246-0.404-0.168-0.666c-0.233-0.164-0.188-0.603-0.395-0.653c-0.035-0.063-0.057-0.13-0.099-0.191
				c0.112-0.071-0.015-0.16-0.013-0.253c-0.029,0.002-0.047,0.037-0.087,0.007c0.083-0.031,0.046-0.151-0.023-0.122
				c0.037-0.213-0.165-0.355-0.167-0.556c0.063,0.039,0.062-0.062,0.075-0.096c-0.048-0.019-0.053,0.091-0.097,0.084
				c-0.131-0.132-0.079-0.319-0.123-0.477c-0.121,0.04-0.189-0.146-0.121-0.203c-0.07-0.016-0.041-0.061-0.098-0.081
				c0.151-0.135-0.215-0.405-0.125-0.642c-0.229-0.095-0.022-0.452-0.242-0.515c0.035,0.044,0.026,0.102,0.034,0.155
				c-0.102-0.012-0.03-0.215-0.111-0.334c-0.033-0.049-0.195-0.21-0.099-0.246c0.027-0.045-0.072-0.052-0.098-0.081
				c0.025-0.136-0.07-0.236-0.036-0.375c-0.108-0.12-0.186-0.422-0.265-0.637c-2.236-5.527-3.755-11.266-5.262-17.01
				c-0.054-0.038-0.078,0.014-0.108,0.051c0.239,0.394,0.167,0.88,0.39,1.279c-0.058,0.05-0.042,0.07-0.042,0.141
				c0.037,0.008,0.005-0.032,0.032-0.065c0.06,0.056-0.04,0.159,0.067,0.201c-0.027,0.063-0.09,0.015-0.119,0.072
				c0.213,0.138,0.249,0.439,0.233,0.701c0.083,0.183,0.189,0.36,0.157,0.577c0.023,0.017,0.041,0.017,0.054,0.003
				c-0.005,0.325,0.241,0.711,0.17,0.94c0.058,0.034,0.062-0.012,0.087,0.048c-0.016,0.023-0.049-0.004-0.076-0.014
				c0.221,0.351,0.105,0.711,0.355,1.069c-0.097,0.064,0.062,0.229,0.09,0.322c0.046,0.156-0.03,0.296,0.079,0.343
				c-0.029,0.155,0.007,0.291,0.133,0.401c-0.008,0.084-0.078-0.022-0.086,0.062c-0.033,0.026,0.085,0.091,0.087,0.047
				c-0.057,0.115,0.047,0.182,0.024,0.287c0.033,0.028,0.049,0.006,0.065-0.019c-0.049,0.143,0.045,0.243,0.036,0.375
				c0.126-0.022,0.016,0.005,0.098,0.081c-0.042,0.013-0.067,0.064-0.053,0.107c0.028-0.006,0.061,0.004,0.098,0.026
				c-0.098,0.114,0.119,0.232,0.036,0.429c0.037,0.022,0.064,0.015,0.086-0.007c0.022,0.208,0.199,0.66,0.136,0.73
				c0.013,0.106,0.152,0.175,0.068,0.31c0.106,0.071,0.203,0.226,0.133,0.291c0.253,0.616,0.34,1.219,0.6,1.859
				c-0.011,0.038-0.039,0.026-0.054,0.053c0.064,0.038,0.052,0.061,0.131,0.126c0.004,0.379,0.346,0.814,0.314,1.265
				c0.037,0.024,0.059-0.001,0.097,0.026c0.033,0.162,0.037,0.332,0.123,0.477c-0.049,0.006,0.056,0.108-0.021,0.098
				c0.059-0.084,0.145,0.532,0.341,0.706c-0.097,0.079-0.016,0.211,0.111,0.279c-0.01,0.041-0.037,0.031-0.065,0.019
				c0.115,0.173,0.134,0.376,0.253,0.549c-0.022,0.024-0.055,0.013-0.075,0.041c0.143,0.257,0.147,0.666,0.364,0.828
				c-0.011,0.021,0.119,0.103,0.1,0.099c0.127,0.292,0.014,0.509,0.21,0.782c-0.004,0.235,0.179,0.57,0.278,0.835
				c-0.017,0.075-0.08,0.008-0.097,0.083c0,0.025,0,0.049,0.022,0.067c0.158-0.116,0.15,0.183,0.23,0.262
				c-0.078,0.056-0.041-0.071-0.099-0.081c-0.079-0.01-0.025,0.09-0.031,0.119c0.247,0.051,0.189,0.313,0.328,0.453
				c-0.017,0.075-0.08,0.009-0.096,0.084c-0.006,0.026,0.036,0.038,0.022,0.067c0.033,0.01,0.045-0.044,0.064-0.074
				c0.059,0.037,0.074,0.088,0.034,0.155c-0.032,0.012-0.084-0.037-0.097,0.029c-0.044-0.024,0.001-0.074-0.066-0.091
				c-0.048,0.075,0.06,0.104-0.009,0.186c0.114,0.027,0.086,0.097,0.121,0.148c0.085-0.009-0.054-0.105-0.002-0.165
				c0.144,0.077,0.027-0.058,0.053-0.108c0.169,0.128,0.031,0.151,0.165,0.281c-0.023,0.038-0.08-0.027-0.108-0.004
				c-0.01,0.021,0.018,0.031,0.033,0.045c-0.034,0.038-0.057,0.027-0.076-0.015c-0.064,0.111-0.001,0.184-0.062,0.294
				c0.05,0.042,0.062,0.07,0.119,0.038c0.023,0.073-0.087,0.185-0.008,0.241c0.045,0.029,0.048-0.071,0.075-0.096
				c0.063,0.042-0.004,0.112-0.053,0.107c-0.033,0.065,0.099,0.081,0.066,0.146c0.039,0.01,0.052-0.057,0.108,0.005
				c-0.099,0.112-0.045,0.377,0.079,0.343c0.014,0.075,0.095,0.131,0.023,0.232c0.161,0.053,0.051,0.233,0.186,0.238
				c-0.165,0.144,0.205,0.279,0.101,0.465c0.089,0.126,0.084,0.281,0.188,0.403c0.061,0.033-0.023-0.087,0.064-0.019
				c-0.078,0.268,0.205,0.428,0.19,0.678c-0.04-0.018-0.033-0.051-0.076-0.069c-0.026-0.008-0.036,0.035-0.065,0.019
				c0.048,0.096,0.159,0.173,0.197,0.272c-0.035,0.029-0.041-0.019-0.065-0.036c-0.069-0.013,0.038,0.071-0.031,0.119
				c0.045-0.007,0.067,0.005,0.087,0.047c-0.156,0.141,0.151,0.247,0.069,0.42c0.063,0.047,0.106,0.034,0.13-0.038
				c0.073,0.027,0.029,0.089,0.076,0.124c-0.021,0.025-0.063-0.012-0.098-0.026c-0.054,0.065-0.021,0.104-0.02,0.153
				c0.041,0.016,0.068-0.01,0.086-0.062c-0.024,0.135,0.071,0.236,0.1,0.355c0.039,0.009,0.052-0.058,0.108,0.004
				c-0.146,0.115,0.087,0.438,0.048,0.573c0.092,0.015,0.115,0.154,0.152,0.028c0.041,0.067-0.001,0.086-0.053,0.108
				c0.012,0.073,0.184,0.043,0.142,0.16c-0.067-0.017-0.022-0.067-0.065-0.091c-0.009,0.027-0.024,0.036-0.043,0.031
				c0.061,0.165,0.209,0.305,0.134,0.511c0.089-0.031,0.082-0.014,0.184,0.019c-0.032,0.066-0.103,0.012-0.162-0.007
				c-0.103,0.128,0.138,0.155,0.056,0.277c0.093,0.085,0.105-0.077,0.183-0.036c-0.039,0.078-0.109,0.063-0.161,0.103
				c-0.038,0.081,0.084,0.048,0.066,0.09c0.033,0.009,0.044-0.044,0.064-0.074c0.042,0.052,0.025,0.157-0.042,0.141
				c0.148,0.085,0.048,0.112,0.196,0.162c-0.028,0.128,0,0.131,0.078,0.234c-0.038,0.027-0.102-0.021-0.118,0.072
				c-0.036-0.02-0.073-0.04-0.109-0.06c-0.022-0.06,0.075-0.054-0.033-0.1c0.01-0.041,0.037-0.031,0.065-0.019
				c-0.039-0.102-0.109-0.435-0.251-0.329c-0.049-0.022,0.028-0.082,0.031-0.119c-0.085-0.038-0.124,0.024-0.129,0.093
				c-0.032-0.029-0.079-0.202,0.02-0.153c0.001-0.08-0.094-0.131-0.024-0.232c-0.048-0.019-0.053,0.091-0.097,0.084
				c-0.084-0.039-0.015-0.247-0.142-0.16c-0.052-0.031,0.031-0.074,0.054-0.053c-0.016-0.062-0.042-0.122-0.11-0.169
				c0.022-0.024,0.055-0.013,0.075-0.041c0.015-0.047-0.038-0.074-0.023-0.122c-0.028,0.005-0.052,0.021-0.075,0.041
				c0.019-0.165-0.036-0.307-0.112-0.444c-0.059-0.025,0.012,0.054-0.043,0.086c-0.063-0.036-0.007-0.108-0.098-0.136
				c-0.014,0.077,0.005,0.145,0.099,0.191c-0.12,0.09,0.098,0.223,0.046,0.353c-0.115-0.209-0.143-0.417-0.232-0.592
				c0.046-0.057,0.036,0.046,0.087,0.048c0.055-0.134-0.176-0.069-0.121-0.203c0.027,0.029,0.039,0.062,0.065,0.091
				c0.071-0.07-0.049-0.083,0.021-0.153c-0.042-0.035-0.057,0.008-0.075,0.041c-0.015-0.026,0.002-0.062-0.044-0.079
				c0.102-0.06-0.058-0.329-0.134-0.456c-0.088-0.007,0.06,0.065,0.001,0.11c-0.049-0.236-0.119-0.466-0.244-0.68
				c-0.033-0.009-0.045,0.044-0.064,0.074c-0.105-0.048-0.01-0.134,0.042-0.141c-0.014-0.105-0.096,0.028-0.163-0.062
				c0.007-0.104,0.098,0.044,0.119-0.017c-0.051-0.138,0.002-0.306-0.155-0.412c0.097-0.084,0.024-0.131,0.03-0.23
				c-0.052-0.051-0.071,0-0.119-0.038c0.034-0.126-0.018-0.227-0.057-0.332c-0.069-0.007-0.012,0.099-0.009,0.132
				c-0.089-0.051-0.085-0.19-0.046-0.298c-0.059-0.053-0.071,0.036-0.13-0.017c-0.039,0.062,0.028,0.122-0.042,0.141
				c-0.076-0.209-0.078-0.361-0.048-0.573c-0.079-0.079-0.077,0.088-0.151,0.027c-0.05-0.181-0.088-0.365-0.242-0.516
				c0.077-0.12-0.032-0.156-0.067-0.2c0.022-0.043,0.073,0.005,0.086-0.062c-0.15-0.098-0.074-0.452-0.231-0.427
				c-0.05-0.213-0.244-0.476-0.2-0.656c-0.126-0.079-0.063-0.214-0.219-0.284c0.068-0.1-0.038-0.148,0.041-0.251
				c-0.053-0.051-0.072,0-0.12-0.038c-0.132-0.389-0.39-1.225-0.367-1.157c-0.165-0.306-0.316-0.616-0.354-0.959
				c0.015-0.09-0.092-0.205-0.078-0.234c-0.066-0.09-0.148-0.205-0.122-0.367c-0.043-0.024-0.453-1.095-0.442-1.117
				c-0.265-0.57-0.385-1.183-0.621-1.761c0.072-0.119-0.152-0.499-0.234-0.757c-0.044-0.139-0.017-0.266-0.133-0.346
				c0.014-0.029,0.028-0.058,0.043-0.086c-0.142-0.034-0.027-0.23-0.176-0.315c0.024-0.313-0.246-0.681-0.258-1.043
				c-0.029-0.016-0.058-0.032-0.087-0.048c-0.024-0.464-0.3-0.853-0.314-1.32c-0.161-0.16-0.062-0.398-0.221-0.558
				c0.059-0.14-0.091-0.217-0.046-0.353c-0.166-0.293-0.228-0.618-0.279-0.945c-0.25-0.685-0.343-1.415-0.591-2.1
				c0.014-0.029,0.028-0.057,0.043-0.086c0.007-0.034-0.037-0.022-0.054-0.002c-0.059-0.384-0.15-0.65-0.204-1.041
				c-0.029-0.016-0.058-0.032-0.087-0.047c-0.012-0.073,0.111-0.06,0.02-0.153c-0.037-0.008-0.005,0.032-0.032,0.064
				c-0.035-0.04-0.041-0.118,0.009-0.131c-0.302-1.024-0.575-2.271-0.809-3.296"/>
			<path class="st0" d="M102.334,329.201c0.035,0.057,0.124,0.098,0.077,0.179C102.352,329.33,102.303,329.277,102.334,329.201z"/>
			<path class="st0" d="M100.239,324.611c-0.017,0.02-0.05-0.009-0.065,0.019c-0.008,0.033,0.046,0.047,0.076,0.069
				c-0.091,0.075-0.044,0.073-0.096,0.139c-0.069-0.084-0.124-0.171-0.111-0.279c0.129,0.053,0.03-0.045,0.086-0.117
				C100.256,324.472,100.19,324.558,100.239,324.611z"/>
			<path class="st0" d="M108.069,328.101c-0.08-0.056-0.099-0.129-0.121-0.203C108.03,327.881,108.042,328.04,108.069,328.101z"/>
			<path class="st0" d="M106.556,327.027c-0.087,0.082-0.203-0.21-0.132-0.236C106.54,326.848,106.447,326.968,106.556,327.027z"/>
			<path class="st0" d="M103.669,325.885c-0.062-0.125-0.089-0.192-0.133-0.346C103.631,325.64,103.685,325.752,103.669,325.885z"/>
			<path class="st0" d="M104.701,328.937c-0.061,0.023-0.083-0.121-0.11-0.169C104.671,328.739,104.686,328.886,104.701,328.937z"/>
			<path class="st0" d="M105.223,330.507c-0.088-0.022,0.008-0.114,0.032-0.119C105.302,330.401,105.275,330.525,105.223,330.507z"
				/>
			<path class="st0" d="M104.247,332.762c-0.073-0.027-0.035-0.088-0.045-0.134C104.212,332.635,104.308,332.665,104.247,332.762z"
				/>
			<path class="st0" d="M102.974,330.644c-0.082-0.037-0.117-0.143-0.055-0.167C102.964,330.524,103.021,330.569,102.974,330.644z"
				/>
			<path class="st0" d="M102.873,330.179c-0.078,0.022-0.153-0.113-0.131-0.182C102.85,330.038,102.808,330.124,102.873,330.179z"/>
			<path class="st0" d="M107.13,332.124c0.077,0.099,0.064,0.226,0.111,0.334C107.165,332.426,107.08,332.253,107.13,332.124z"/>
			<path class="st0" d="M101.197,329.043c-0.075-0.044-0.115-0.159-0.044-0.189C101.217,328.903,101.262,328.957,101.197,329.043z"
				/>
			<path class="st0" d="M104.142,330.627c-0.069-0.04-0.034-0.112-0.056-0.167C104.166,330.426,104.174,330.567,104.142,330.627z"/>
			<path class="st0" d="M107.63,332.453c-0.078,0.056-0.041-0.071-0.098-0.081C107.611,332.295,107.599,332.412,107.63,332.453z"/>
			<path class="st0" d="M107.478,332.315c-0.022-0.012-0.044-0.024-0.066-0.036c0.044-0.094-0.008-0.054-0.044-0.133
				c0.02-0.028,0.068,0.028,0.087-0.007c0.05,0.056-0.015,0.1,0.087,0.102C107.529,332.29,107.499,332.289,107.478,332.315z"/>
			<path class="st0" d="M107.281,332.153c-0.087-0.035-0.046-0.109-0.055-0.167C107.303,332.024,107.343,332.073,107.281,332.153z"
				/>
			<path class="st0" d="M104.779,330.401c-0.082-0.096,0.089-0.091,0.117-0.182c0.022,0.03,0.018,0.068,0.001,0.11
				C104.824,330.285,104.864,330.408,104.779,330.401z"/>
			<path class="st0" d="M107.125,331.575c-0.022-0.012-0.043-0.024-0.065-0.035c0.014-0.029,0.029-0.058,0.042-0.086
				C107.125,331.49,107.178,331.517,107.125,331.575z"/>
			<path class="st0" d="M104.744,330.136c0.064,0.03,0.12,0.062,0.077,0.124c-0.061-0.043-0.089-0.096-0.088-0.158
				c-0.041-0.03-0.026,0.065-0.01,0.077c-0.09-0.004-0.075-0.197-0.078-0.289c-0.125-0.007,0.023-0.045-0.13-0.071
				c0.023-0.174,0.147-0.179,0.116-0.346c0.066,0.046,0.107,0.161,0.013,0.198c0.172,0.017,0.06,0.193,0.165,0.281
				C104.719,329.98,104.775,330.069,104.744,330.136z"/>
			<path class="st0" d="M102.256,328.857c-0.029-0.049-0.082-0.139-0.001-0.165C102.307,328.734,102.321,328.835,102.256,328.857z"
				/>
			<path class="st0" d="M105.07,330.314c-0.036-0.026-0.031-0.064-0.001-0.11c0.029,0.016,0.058,0.032,0.087,0.048
				C105.148,330.336,105.077,330.23,105.07,330.314z"/>
			<path class="st0" d="M108.263,331.842c-0.028-0.089-0.078-0.01-0.141-0.05c0.074-0.077-0.09-0.083-0.034-0.155
				C108.136,331.733,108.341,331.693,108.263,331.842z"/>
			<path class="st0" d="M106.84,331.091c-0.084-0.03-0.035-0.1-0.002-0.165C106.915,330.958,106.828,331.039,106.84,331.091z"/>
			<path class="st0" d="M107.675,331.302c-0.004-0.04,0.024-0.1,0.086-0.117c0.087,0.059,0.027,0.26-0.085,0.227
				C107.727,331.359,107.759,331.28,107.675,331.302z"/>
			<path class="st0" d="M104.267,328.809c0.11,0.059,0.067,0.164,0.003,0.275c0.009,0.058,0.096,0.094,0.12,0.148
				c-0.004-0.027-0.007-0.053,0.021-0.043c-0.052-0.077-0.084-0.236,0.008-0.296c0.093,0.046,0.02,0.141,0.034,0.21
				c0.036,0.02,0.073,0.039,0.109,0.059c-0.014,0.126,0.107,0.304-0.072,0.371c0.033,0.028,0.049,0.006,0.065-0.019
				c0.08,0.08-0.052,0.116-0.118,0.072c0.065-0.116-0.019-0.027-0.077-0.069c0.046-0.142-0.108-0.225-0.068-0.365
				c-0.044,0.007-0.067-0.005-0.087-0.048c0.051-0.052,0.084-0.132-0.001-0.11C104.229,328.929,104.313,328.944,104.267,328.809z"/>
			<path class="st0" d="M106.816,330.859c-0.022-0.012-0.043-0.024-0.065-0.036c0.033-0.08,0.091-0.082,0.129-0.148
				c0.084,0.012-0.018,0.079,0.066,0.09c-0.018,0.053-0.075-0.011-0.097,0.029C106.837,330.816,106.827,330.838,106.816,330.859z"/>
			<path class="st0" d="M100.468,327.333c-0.077-0.009-0.048-0.142,0.01-0.131C100.562,327.219,100.479,327.287,100.468,327.333z"/>
			<path class="st0" d="M101.879,327.831c0.039,0.063-0.164-0.074-0.066-0.146C101.892,327.717,101.846,327.786,101.879,327.831z"/>
			<path class="st0" d="M107.541,330.901c-0.016,0.023-0.049-0.004-0.076-0.014c0.014-0.028,0.028-0.057,0.043-0.086
				C107.606,330.841,107.507,330.874,107.541,330.901z"/>
			<path class="st0" d="M106.932,330.513c-0.042-0.043-0.101-0.08-0.131-0.126c0.018-0.036,0.035-0.072,0.053-0.107
				c0.04,0.031,0.07,0.033,0.087-0.007C106.943,330.351,106.918,330.438,106.932,330.513z"/>
			<path class="st0" d="M107.573,330.781c-0.128,0.024-0.072-0.161-0.142-0.215c0.078-0.064,0.103,0.208,0.173,0.04
				c0.067,0.017,0.023,0.066,0.066,0.091c-0.049,0.012-0.103,0.013-0.14,0.06C107.544,330.766,107.558,330.773,107.573,330.781z"/>
			<path class="st0" d="M106.724,330.208c-0.068-0.06,0.016-0.176-0.11-0.169C106.724,329.954,106.856,330.122,106.724,330.208z"/>
			<path class="st0" d="M106.376,330.018c0.017-0.057,0.063-0.025,0.075-0.096c-0.033-0.028-0.049-0.006-0.065,0.019
				c-0.046-0.029-0.02-0.08,0.009-0.131c0.041,0.035,0.056-0.008,0.075-0.041c0.029,0.016,0.058,0.032,0.087,0.048
				c-0.028,0.04-0.08,0.01-0.108,0.05c-0.022,0.058,0.052-0.009,0.087,0.048C106.484,329.948,106.461,330.077,106.376,330.018z"/>
			<path class="st0" d="M106.05,329.784c-0.104-0.049-0.132-0.12-0.088-0.212C106.031,329.631,106.075,329.697,106.05,329.784z"/>
			<path class="st0" d="M107.386,330.488c-0.038-0.099-0.07-0.142-0.023-0.232c-0.018,0.097,0.111,0.151,0.099,0.246
				C107.432,330.484,107.402,330.465,107.386,330.488z"/>
			<path class="st0" d="M104.31,328.778c-0.022-0.012-0.043-0.024-0.065-0.036c0.053-0.065,0.038-0.11-0.045-0.134
				c0.014-0.029,0.028-0.058,0.042-0.086C104.278,328.604,104.34,328.678,104.31,328.778z"/>
			<path class="st0" d="M107.309,330.309c-0.065-0.036-0.046-0.096-0.098-0.136C107.278,330.137,107.354,330.251,107.309,330.309z"
				/>
			<path class="st0" d="M101.527,327.147c-0.001-0.098-0.104-0.165-0.089-0.267C101.502,326.952,101.623,327.085,101.527,327.147z"
				/>
			<path class="st0" d="M107.83,330.539c-0.181-0.022-0.202-0.277-0.209-0.36c-0.038,0.061-0.076,0.04-0.109-0.06
				c0.023-0.021,0.05-0.029,0.087-0.007c-0.054-0.098-0.179-0.259-0.111-0.334c0.088,0.099,0.092,0.17,0.229,0.207
				c0.009,0.083,0.071,0.151-0.019,0.263c0.046-0.023,0.086-0.064,0.14-0.06c0.029,0.04,0.044,0.085,0.044,0.134
				c-0.031,0.031-0.055,0.083-0.097,0.084C107.825,330.475,107.758,330.471,107.83,330.539z"/>
			<path class="st0" d="M106.7,329.921c-0.078-0.082-0.042-0.125,0.031-0.174C106.781,329.855,106.66,329.81,106.7,329.921z"/>
			<path class="st0" d="M107.426,330.127c0.056,0.026,0.051,0.071,0.088,0.103C107.458,330.301,107.384,330.191,107.426,330.127z"/>
			<path class="st0" d="M104.013,328.151c-0.053,0.071,0.006,0.108-0.031,0.174c-0.068-0.035-0.091-0.083-0.131-0.126
				c0.032-0.083,0.088-0.092,0.151-0.082c0.005-0.075,0.018-0.152-0.066-0.2c0.013-0.067,0.064-0.019,0.086-0.062
				c-0.013,0.143,0.065,0.151,0.024,0.286c0.036,0.02,0.072,0.04,0.108,0.059c-0.019,0.036-0.011,0.064,0.012,0.088
				C104.094,328.297,104.087,328.16,104.013,328.151z"/>
			<path class="st0" d="M104.156,328.42c-0.085-0.036-0.119-0.087-0.088-0.157C104.104,328.313,104.175,328.353,104.156,328.42z"/>
			<path class="st0" d="M107.176,329.963c-0.054-0.033-0.069-0.078-0.044-0.134c0.057,0.065,0.051-0.06,0.108,0.005
				C107.256,329.878,107.219,329.952,107.176,329.963z"/>
			<path class="st0" d="M100.774,326.434c-0.062-0.03-0.037-0.087-0.012-0.143C100.791,326.331,100.818,326.372,100.774,326.434z"/>
			<path class="st0" d="M107.36,329.982c-0.06-0.025-0.09-0.059-0.055-0.112c0.038,0.024,0.059-0.001,0.098,0.026
				C107.389,329.924,107.374,329.953,107.36,329.982z"/>
			<path class="st0" d="M105.685,328.956c-0.1-0.05-0.082-0.134-0.088-0.212c0.027-0.006,0.061,0.004,0.097,0.026
				C105.634,328.85,105.741,328.879,105.685,328.956z"/>
			<path class="st0" d="M107.098,329.674c-0.102-0.067-0.012-0.192-0.056-0.277c0.089,0.072,0.03,0.187,0.121,0.258
				C107.146,329.676,107.112,329.646,107.098,329.674z"/>
			<path class="st0" d="M106.586,329.258c0.034-0.022,0.085,0.007,0.13,0.016c-0.014,0.029-0.028,0.057-0.043,0.086
				C106.599,329.34,106.661,329.278,106.586,329.258z"/>
			<path class="st0" d="M107.424,329.798c-0.049,0.053-0.064-0.051-0.109-0.059c0.018-0.036,0.035-0.072,0.053-0.108
				c0.072,0.07,0.115-0.034,0.141,0.05c-0.018,0.089-0.105-0.029-0.141,0.005C107.376,329.726,107.428,329.753,107.424,329.798z"/>
			<path class="st0" d="M103.913,327.85c-0.08-0.072,0.027-0.094-0.034-0.155C103.963,327.653,103.966,327.79,103.913,327.85z"/>
			<path class="st0" d="M106.52,329.112c-0.044-0.054-0.034-0.124-0.045-0.188C106.511,328.98,106.578,329.028,106.52,329.112z"/>
			<path class="st0" d="M100.465,325.718c-0.06-0.025-0.034-0.075-0.023-0.122C100.529,325.622,100.528,325.702,100.465,325.718z"/>
			<path class="st0" d="M106.094,328.688c-0.079-0.044-0.068-0.115-0.11-0.169C106.037,328.499,106.14,328.618,106.094,328.688z"/>
			<path class="st0" d="M103.647,327.103c0.041,0.073,0.097,0.142,0.11,0.224C103.646,327.399,103.601,327.194,103.647,327.103z"/>
			<path class="st0" d="M107.645,329.071c0.037,0.008,0.005-0.032,0.032-0.065c0.078,0.02,0.073,0.064,0.087,0.103
				c-0.093,0.003-0.021,0.031-0.053,0.107c-0.028,0.006-0.061-0.004-0.098-0.026c-0.01,0.033,0.061,0.043,0.044,0.079
				c0.029-0.002,0.047-0.037,0.087-0.007c-0.113,0.104-0.153,0.209-0.291,0.087c0.02-0.028,0.068,0.028,0.086-0.007
				c-0.027-0.083-0.057-0.111-0.153-0.138c0.026-0.081-0.109-0.114-0.034-0.21c-0.067-0.002-0.059-0.112-0.109-0.06
				c-0.055-0.086,0.074-0.056,0.108-0.05c0.062,0.043,0.045,0.109,0.153,0.138c0.034-0.053-0.076-0.063-0.023-0.122
				c0.054,0.012,0.039,0.099,0.076,0.014C107.595,328.964,107.628,329.015,107.645,329.071z"/>
			<path class="st0" d="M106.549,328.718c-0.101-0.125,0.097-0.143,0.149-0.301c-0.004-0.079-0.1-0.129-0.088-0.212
				c0.106-0.001,0.059,0.176,0.13,0.071c0.062,0.065,0.025,0.18,0.131,0.181c-0.01,0.051,0.028,0.104-0.031,0.12
				C106.732,328.434,106.575,328.604,106.549,328.718z"/>
			<path class="st0" d="M100.332,325.318c-0.09-0.111-0.086-0.135-0.251-0.219c0.092-0.083,0.098-0.157,0.203-0.244
				c0.04,0.018,0.033,0.052,0.076,0.069c-0.036,0.052-0.099,0.022-0.118,0.127c0.061,0.058,0.065-0.053,0.108-0.051
				C100.404,325.113,100.367,325.23,100.332,325.318z"/>
			<path class="st0" d="M103.625,327.091c-0.058-0.057-0.059-0.119-0.001-0.165C103.627,326.98,103.641,327.032,103.625,327.091z"/>
			<path class="st0" d="M107.765,329.274c0.018-0.053,0.075,0.011,0.097-0.029C107.915,329.316,107.771,329.359,107.765,329.274z"/>
			<path class="st0" d="M106.493,328.551c-0.038-0.013-0.027-0.041-0.055-0.057c0.028-0.057,0.057-0.115,0.085-0.172
				C106.595,328.387,106.571,328.546,106.493,328.551z"/>
			<path class="st0" d="M103.515,326.867c-0.067-0.017-0.023-0.067-0.066-0.09c0.05-0.053,0.045-0.006,0.098,0.026
				C103.536,326.824,103.526,326.846,103.515,326.867z"/>
			<path class="st0" d="M105.199,327.706c-0.061-0.039-0.064-0.21,0.042-0.141C105.193,327.623,105.247,327.649,105.199,327.706z"/>
			<path class="st0" d="M107.253,328.802c0.028-0.065,0.12-0.017,0.13,0.016C107.356,328.864,107.305,328.835,107.253,328.802z"/>
			<path class="st0" d="M103.59,326.771c-0.053-0.045-0.056-0.106-0.023-0.177c0.022,0.024,0.031,0.052,0.011,0.089
				c0.017,0.014,0.025,0.003,0.032-0.01C103.637,326.696,103.602,326.737,103.59,326.771z"/>
			<path class="st0" d="M103.99,326.799c-0.077-0.038,0.019-0.128-0.056-0.167C104.014,326.598,104.03,326.737,103.99,326.799z"/>
			<path class="st0" d="M108.489,329.205c-0.064-0.099-0.013-0.097-0.055-0.167c0.034-0.021,0.066-0.05,0.119-0.017
				c-0.053-0.005-0.059,0.106,0.001,0.055C108.563,329.125,108.533,329.167,108.489,329.205z"/>
			<path class="st0" d="M99.92,324.027c-0.019-0.043-0.088-0.072-0.044-0.134C99.949,323.92,99.964,323.965,99.92,324.027z"/>
			<path class="st0" d="M104.919,326.651c-0.06-0.025-0.089-0.059-0.055-0.112C104.924,326.564,104.954,326.598,104.919,326.651z"/>
			<path class="st0" d="M102.919,325.558c-0.092-0.029-0.033-0.149,0.042-0.086C102.977,325.534,102.947,325.498,102.919,325.558z"
				/>
			<path class="st0" d="M104.613,326.265c-0.022-0.073,0.059-0.177-0.056-0.222c0.099-0.01,0.175,0.143,0.132,0.236
				C104.634,326.31,104.649,326.223,104.613,326.265z"/>
			<path class="st0" d="M99.6,323.278c-0.084-0.055-0.085-0.134-0.088-0.212C99.606,323.055,99.619,323.196,99.6,323.278z"/>
			<path class="st0" d="M107.926,327.776c-0.058,0.039-0.105-0.077-0.142-0.105C107.834,327.634,107.941,327.733,107.926,327.776z"
				/>
			<path class="st0" d="M106.337,326.688c-0.07-0.016-0.041-0.061-0.098-0.081c0.094-0.095-0.019-0.129,0.02-0.208
				c0.071,0.04,0.053,0.107,0.153,0.138C106.357,326.617,106.367,326.596,106.337,326.688z"/>
			<path class="st0" d="M103.336,324.938c-0.011-0.086-0.101-0.078-0.131-0.126c0.024-0.088,0.082-0.076,0.152-0.027
				C103.312,324.847,103.399,324.87,103.336,324.938z"/>
			<path class="st0" d="M107.235,326.715c-0.043-0.054-0.016-0.13,0.02-0.208C107.336,326.55,107.27,326.637,107.235,326.715z"/>
			<path class="st0" d="M105.343,325.626c-0.06-0.025-0.09-0.059-0.055-0.112C105.348,325.539,105.378,325.573,105.343,325.626z"/>
			<path class="st0" d="M106.115,326.021c-0.084-0.043-0.075-0.112-0.045-0.189C106.096,325.892,106.142,325.945,106.115,326.021z"
				/>
			<path class="st0" d="M105.559,325.58c-0.056-0.029-0.019-0.03,0-0.055c-0.031-0.128-0.113-0.218-0.014-0.308
				c0.055,0.082-0.005,0.197,0.089,0.267C105.617,325.538,105.59,325.565,105.559,325.58z"/>
			<path class="st0" d="M104.026,324.66c-0.04-0.08-0.076-0.161-0.035-0.265C104.029,324.475,104.072,324.554,104.026,324.66z"/>
			<path class="st0" d="M107.058,326.236c-0.038-0.05-0.046-0.109-0.023-0.177c0.04,0.031,0.07,0.033,0.087-0.007
				c0.093,0.039,0.091,0.107,0.11,0.169c-0.081,0.046-0.031-0.099-0.109-0.114C107.05,326.095,107.082,326.201,107.058,326.236z"/>
			<path class="st0" d="M105.871,325.34c-0.074-0.027-0.029-0.089-0.077-0.124C105.836,325.182,105.912,325.29,105.871,325.34z"/>
			<path class="st0" d="M105.969,325.366c-0.015,0.08-0.086-0.01-0.108,0.051C105.815,325.36,105.915,325.302,105.969,325.366z"/>
			<path class="st0" d="M105.328,325.098c0.05-0.086,0.017-0.101-0.055-0.112c0.042-0.079,0.055-0.048,0.064-0.129
				c0.029,0.04,0.026,0.09,0.109,0.115c-0.01,0.052,0.024,0.091-0.02,0.153C105.398,325.13,105.365,325.12,105.328,325.098z"/>
			<path class="st0" d="M102.154,323.362c-0.021-0.006-0.016-0.02-0.011-0.034c-0.014-0.008-0.029-0.016-0.044-0.024
				c0.072-0.02,0.018-0.083,0.075-0.151C102.242,323.215,102.221,323.312,102.154,323.362z"/>
			<path class="st0" d="M99.078,321.598c0.066-0.019,0.038,0.033,0.077,0.069C99.119,321.727,99.025,321.662,99.078,321.598z"/>
			<path class="st0" d="M107.251,326.068c-0.056-0.039-0.089-0.084-0.099-0.136C107.175,325.909,107.324,326.002,107.251,326.068z"
				/>
			<path class="st0" d="M102.913,323.559c-0.062-0.055-0.084-0.122-0.066-0.201C102.909,323.413,102.931,323.48,102.913,323.559z"/>
			<path class="st0" d="M106.891,325.625c-0.079-0.007-0.121-0.038-0.142-0.105c0.057-0.071,0.077,0.04,0.13,0.017
				c0.047-0.115-0.05-0.091-0.088-0.158c0.013-0.039,0.064-0.036,0.032-0.065C106.934,325.318,106.953,325.508,106.891,325.625z"/>
			<path class="st0" d="M103.488,323.682c0.023-0.074-0.024-0.128,0.02-0.208c0.112,0.046,0.041,0.147,0.088,0.212
				C103.572,323.721,103.534,323.715,103.488,323.682z"/>
			<path class="st0" d="M105.377,324.496c0.054,0.021,0.082,0.049,0.098,0.081C105.441,324.64,105.317,324.564,105.377,324.496z"/>
			<path class="st0" d="M106.768,325.202c-0.054-0.021-0.082-0.049-0.098-0.081c0.02-0.011,0.04-0.023,0.054-0.053
				C106.777,325.101,106.792,325.146,106.768,325.202z"/>
			<path class="st0" d="M105.333,324.418c-0.077-0.032,0.01-0.113-0.001-0.165C105.367,324.297,105.366,324.352,105.333,324.418z"/>
			<path class="st0" d="M104.951,324.017c-0.028,0.006-0.061-0.004-0.098-0.026c0.086-0.058-0.015-0.053,0.042-0.141
				C104.975,323.888,104.994,323.943,104.951,324.017z"/>
			<path class="st0" d="M104.951,324.017c0.119,0.038,0.009,0.144,0.099,0.19C104.967,324.231,104.876,324.101,104.951,324.017z"/>
			<path class="st0" d="M106.528,325.017c-0.057-0.032-0.146-0.055-0.077-0.124C106.479,324.933,106.568,324.956,106.528,325.017z"
				/>
			<path class="st0" d="M105.201,324.181c-0.002-0.048-0.063-0.079-0.012-0.143C105.263,324.07,105.276,324.16,105.201,324.181z"/>
			<path class="st0" d="M105.122,323.783c0.013-0.05,0.043-0.049,0.064-0.074c0.078,0.053,0.156,0.081,0.153,0.193
				c-0.035,0.029-0.041-0.019-0.065-0.036c-0.01,0.052,0.024,0.091-0.02,0.153c-0.051-0.012-0.101,0.023-0.119-0.038
				c0.085-0.037,0.077-0.075,0.117-0.182C105.206,323.786,105.182,323.839,105.122,323.783z"/>
			<path class="st0" d="M105.069,323.945c-0.06-0.105-0.106-0.213-0.079-0.344C105.08,323.701,105.217,323.885,105.069,323.945z"/>
			<path class="st0" d="M106.265,324.544c-0.068-0.059,0.012-0.089,0.053-0.108C106.366,324.47,106.283,324.538,106.265,324.544z"/>
			<path class="st0" d="M106.633,324.637c-0.04-0.086-0.102-0.166-0.056-0.277c0.082,0.025-0.003,0.099,0.044,0.134
				c0.054,0.038,0.039-0.132,0.108-0.05C106.636,324.512,106.696,324.594,106.633,324.637z"/>
			<path class="st0" d="M104.545,323.385c0.083-0.071,0.271,0.002,0.207,0.14C104.655,323.398,104.627,323.418,104.545,323.385z"/>
			<path class="st0" d="M104.98,323.568c-0.016,0.023-0.048-0.004-0.076-0.014c0.018-0.036,0.035-0.072,0.053-0.107
				C105.059,323.459,104.919,323.544,104.98,323.568z"/>
			<path class="st0" d="M105.903,323.991c-0.038-0.013-0.027-0.041-0.055-0.057c0.029-0.036,0.054-0.088,0.108-0.05
				C105.938,323.919,105.92,323.955,105.903,323.991z"/>
			<path class="st0" d="M106.25,324.126c0.042-0.07,0.1-0.09,0.172-0.07C106.435,324.121,106.334,324.188,106.25,324.126z"/>
			<path class="st0" d="M105.054,323.363c0.049-0.015,0.168,0.043,0.109,0.114C105.089,323.418,105.006,323.467,105.054,323.363z"/>
			<path class="st0" d="M106.368,323.999c-0.084-0.049-0.02-0.13-0.131-0.126c0.091-0.084,0.019-0.082,0.031-0.174
				c0.011,0.027,0.037,0.05,0.076,0.069C106.303,323.86,106.405,323.909,106.368,323.999z"/>
			<path class="st0" d="M106.225,323.675c-0.135-0.015-0.051-0.254-0.198-0.327C106.198,323.284,106.185,323.579,106.225,323.675z"
				/>
			<path class="st0" d="M106.051,323.58c-0.05-0.016-0.05-0.046-0.076-0.069c0.013-0.067,0.064-0.02,0.086-0.062
				C106.115,323.514,106.05,323.499,106.051,323.58z"/>
			<path class="st0" d="M105.839,322.891c-0.036-0.038-0.03-0.089-0.012-0.144c0.075,0.021,0.013,0.082,0.087,0.103
				C105.893,322.873,105.86,322.862,105.839,322.891z"/>
			<path class="st0" d="M104.456,321.833c-0.115,0.083-0.098-0.109-0.109-0.169C104.414,321.639,104.37,321.803,104.456,321.833z"/>
			<path class="st0" d="M102.022,320.557c-0.064-0.037,0.005-0.16,0.075-0.095C102.085,320.532,102.039,320.5,102.022,320.557z"/>
			<path class="st0" d="M104.585,321.685c0.039,0.037-0.071,0.064-0.085,0.117c-0.037-0.032-0.09-0.059-0.055-0.112
				C104.489,321.683,104.546,321.712,104.585,321.685z"/>
			<path class="st0" d="M104.477,321.681c-0.068-0.047,0.023-0.156,0.097-0.084C104.558,321.675,104.514,321.668,104.477,321.681z"
				/>
			<path class="st0" d="M105.498,322.184c-0.027-0.083-0.061-0.165-0.035-0.265c0.093,0.027-0.011,0.113,0.098,0.136
				C105.54,322.098,105.519,322.142,105.498,322.184z"/>
			<path class="st0" d="M104.726,321.68c-0.022-0.012-0.044-0.024-0.065-0.036c0.014-0.029,0.028-0.057,0.042-0.086
				C104.725,321.594,104.779,321.621,104.726,321.68z"/>
			<path class="st0" d="M104.159,321.206c0.042,0.089,0.174,0.038,0.12,0.148C104.215,321.367,104.15,321.27,104.159,321.206z"/>
			<path class="st0" d="M101.823,320.01c-0.039-0.025-0.066-0.054-0.066-0.091c0.015-0.08,0.086,0.009,0.108-0.05
				c0.002-0.089-0.075,0.016-0.12-0.038c0.048-0.051-0.003-0.072,0.032-0.12c0.083,0.024,0.08,0.074,0.109,0.115
				c0.067-0.1-0.081-0.135-0.023-0.232c-0.069-0.061-0.129-0.009-0.152-0.083c0.05-0.052,0.044-0.007,0.098,0.026
				c0.067-0.093-0.131-0.108-0.034-0.21c0.15,0.213,0.21,0.452,0.266,0.692c-0.033-0.033-0.085-0.06-0.087-0.102
				C101.896,319.91,101.87,319.992,101.823,320.01z"/>
			<path class="st0" d="M104.387,321.358c0.033-0.065-0.004-0.109-0.001-0.165c-0.048-0.002-0.071,0.072-0.14,0.005
				c-0.007-0.107,0.067-0.064,0.118-0.127c0.077,0.063,0.027,0.163,0.143,0.214C104.48,321.35,104.451,321.405,104.387,321.358z"/>
			<path class="st0" d="M105.376,321.872c-0.075-0.039-0.025-0.115,0.01-0.186C105.455,321.726,105.383,321.808,105.376,321.872z"/>
			<path class="st0" d="M103.681,320.944c-0.022-0.012-0.044-0.024-0.065-0.036c0.014-0.029,0.028-0.057,0.043-0.086
				C103.719,320.848,103.714,320.892,103.681,320.944z"/>
			<path class="st0" d="M105.253,321.449c0.055,0.076,0.093,0.156,0.099,0.246C105.253,321.697,105.247,321.538,105.253,321.449z"/>
			<path class="st0" d="M104.625,321.269c-0.081-0.013-0.036-0.063-0.066-0.09C104.591,321.136,104.701,321.22,104.625,321.269z"/>
			<path class="st0" d="M105.232,321.438c-0.069-0.033-0.06-0.129-0.012-0.143C105.248,321.335,105.276,321.376,105.232,321.438z"/>
			<path class="st0" d="M104.869,320.72c-0.061-0.025-0.057-0.069-0.022-0.122C104.906,320.623,104.903,320.667,104.869,320.72z"/>
			<path class="st0" d="M103.454,318.442c-0.123,0.007-0.107,0.056-0.151,0.137c-0.096-0.077-0.009-0.158-0.153-0.138
				c0.021-0.061,0.073-0.031,0.119-0.017c-0.027-0.137-0.083-0.303-0.069-0.42C103.323,318.144,103.238,318.384,103.454,318.442z"/>
			<path class="st0" d="M103.545,334.237c-0.06-0.043-0.003-0.121-0.023-0.177C103.548,334.113,103.595,334.161,103.545,334.237z"/>
			<path class="st0" d="M102.935,331.114c-0.013,0.05-0.043,0.049-0.064,0.074c-0.027-0.023,0.008-0.064,0.02-0.098
				c-0.023,0.002-0.046,0.003-0.076-0.014C102.864,331.017,102.887,331.08,102.935,331.114z"/>
			<path class="st0" d="M106.152,332.929c0.003,0.074-0.046-0.102-0.131-0.071c0.028-0.04,0.072-0.034,0.108-0.05
				C106.204,332.866,106.078,332.87,106.152,332.929z"/>
			<path class="st0" d="M104.815,332.116c-0.019,0.049-0.051,0.059-0.097,0.029c0.042-0.013,0.046-0.057,0.02-0.098
				C104.77,331.999,104.784,332.103,104.815,332.116z"/>
			<path class="st0" d="M105.27,332.2c0.029-0.002,0.047-0.037,0.086-0.007c-0.018,0.054-0.044,0.081-0.075,0.096
				c-0.04-0.025,0.02-0.079-0.033-0.1C105.264,332.166,105.276,332.188,105.27,332.2z"/>
			<path class="st0" d="M102.183,330.457c-0.094-0.039,0.027-0.054,0.043-0.086c0.022-0.058-0.052,0.009-0.087-0.047
				c0.065-0.117,0.014-0.2-0.056-0.277c0.027-0.025,0.059-0.036,0.086-0.062c-0.026,0.088,0.008,0.249,0.1,0.355
				C102.207,330.399,102.238,330.44,102.183,330.457z"/>
			<path class="st0" d="M105.714,332.252c-0.044-0.21-0.114-0.338-0.081-0.563c0.039,0.016,0.038,0.067,0.065,0.036
				c0.054,0.065-0.011,0.051-0.01,0.131c0.078-0.037,0.099,0.247,0.142,0.16C105.906,332.04,105.783,332.196,105.714,332.252z"/>
			<path class="st0" d="M101.354,329.731c-0.08-0.032-0.135-0.229-0.133-0.346C101.262,329.501,101.314,329.614,101.354,329.731z"/>
			<path class="st0" d="M105.569,331.817c-0.002-0.066-0.064-0.116-0.012-0.198C105.652,331.658,105.565,331.751,105.569,331.817z"
				/>
			<path class="st0" d="M102.284,329.693c-0.012,0.054-0.057,0.008-0.075,0.041c-0.042-0.03-0.015-0.081-0.023-0.122
				C102.225,329.567,102.188,329.694,102.284,329.693z"/>
			<path class="st0" d="M107.737,332.238c0.011-0.021,0.035-0.002,0.054,0.002c0.034-0.047-0.016-0.068,0.031-0.119
				c0.045,0.06,0.099,0.117,0.034,0.21C107.799,332.276,107.834,332.241,107.737,332.238z"/>
			<path class="st0" d="M106.176,330.646c0.016-0.099-0.06-0.064-0.088-0.157c0.063-0.061,0.067-0.053,0.107-0.105
				C106.176,330.47,106.23,330.607,106.176,330.646z"/>
			<path class="st0" d="M101.414,327.877c0.069,0.013-0.001-0.096,0.075-0.096c0.06,0.025-0.024,0.093,0.055,0.112
				c-0.072,0.004-0.075,0.105-0.194,0.058c0.018-0.054,0.024-0.105-0.012-0.143C101.369,327.761,101.384,327.865,101.414,327.877z"
				/>
			<path class="st0" d="M101.249,327.596c-0.078-0.062,0.018-0.176-0.11-0.224c0.043-0.072,0.058,0.034,0.087-0.008
				C101.231,327.442,101.265,327.512,101.249,327.596z"/>
			<path class="st0" d="M101.214,327.221c0.038,0.024,0.059-0.001,0.097,0.026c-0.011,0.107,0.034,0.198,0.111,0.279
				c-0.141,0.023-0.086-0.17-0.229-0.207c0.065-0.081-0.007-0.121-0.088-0.157c-0.007-0.106,0.031-0.117,0.052-0.218
				c0.027,0.029,0.039,0.062,0.066,0.091c-0.011,0.054-0.057,0.008-0.075,0.041c-0.004,0.02,0.011,0.034,0,0.055
				c0.039,0.009,0.052-0.058,0.109,0.005C101.266,327.181,101.255,327.203,101.214,327.221z"/>
			<path class="st0" d="M108.951,330.059c-0.016,0.022-0.028,0-0.022-0.012c-0.03-0.019-0.06-0.037-0.076-0.014
				c-0.026-0.023,0.009-0.064,0.021-0.098C108.914,329.972,108.922,330.019,108.951,330.059z"/>
			<path class="st0" d="M107.976,328.569c-0.033,0.04-0.197-0.182-0.133-0.291c0.023,0.02-0.001,0.143,0.066,0.09
				C107.969,328.424,107.869,328.527,107.976,328.569z"/>
			<path class="st0" d="M107.45,327.789c-0.052-0.061-0.183-0.058-0.131-0.181c0.135-0.018,0.081,0.178,0.217,0.119
				C107.528,327.811,107.457,327.705,107.45,327.789z"/>
			<path class="st0" d="M103.944,325.216c-0.054,0.054-0.046-0.056-0.076-0.069c0.013-0.039,0.065-0.035,0.032-0.065
				c0.005-0.021,0.019-0.016,0.032-0.01c0.014,0.008,0.029,0.016,0.043,0.024c-0.03-0.012-0.093,0.116-0.032,0.064
				C103.974,325.188,103.906,325.189,103.944,325.216z"/>
			<path class="st0" d="M106.677,325.945c-0.06,0.017-0.09-0.131-0.132-0.181c-0.09,0.047-0.203-0.069-0.25-0.109
				c0.093-0.023,0.2-0.003,0.303,0.002c-0.159,0.06,0.06,0.099,0.088,0.212C106.647,325.887,106.638,325.908,106.677,325.945z"/>
			<path class="st0" d="M106.186,325.485c-0.074-0.003-0.099-0.178-0.154-0.248c0.042-0.068,0.067,0.108,0.119,0.038
				C106.141,325.311,106.11,325.424,106.186,325.485z"/>
			<path class="st0" d="M106.501,325.575c-0.019,0.079-0.06,0.009-0.044-0.024c-0.037-0.021-0.065-0.015-0.087,0.007
				c-0.025-0.023-0.016-0.057-0.044-0.079c0.038,0.023,0.153,0.014,0.032-0.064c0.021-0.026,0.063,0.012,0.098,0.026
				C106.431,325.498,106.447,325.543,106.501,325.575z"/>
			<path class="st0" d="M106.136,324.747c0.025,0.023,0.015,0.057,0.044,0.079c-0.017,0.075-0.08,0.009-0.097,0.084
				C106.072,324.854,106.112,324.841,106.136,324.747z"/>
			<path class="st0" d="M105.06,322.902c0.034,0.038-0.04,0.021-0.022-0.012c-0.036-0.002-0.063,0.024-0.086,0.062
				c-0.038-0.049,0.054-0.153,0.107-0.105C105.044,322.87,105.046,322.888,105.06,322.902z"/>
			<path class="st0" d="M102.409,321.561c-0.023-0.018-0.001-0.028,0.01-0.022c0.037-0.066-0.117-0.076-0.034-0.155
				c0.1,0.031,0.057,0.105,0.088,0.157C102.457,321.562,102.424,321.533,102.409,321.561z"/>
			<path d="M97.364,318.951c0,0,2.174,6.259,2.597,7.285l0.247-0.3l-2.34-7.426L97.364,318.951z"/>
		</g>
		<path class="st0" d="M99.961,326.235"/>
	</g>
	<polyline class="st0" points="99.876,323.893 99.876,323.419 100.026,323.757 100.147,323.362 97.599,313.342 96.599,314.405 	"/>
</g>
</svg>