<!-- Generator: Adobe Illustrator 19.0.1, SVG Export Plug-In  -->
<svg version="1.1"
	 xmlns="http://www.w3.org/2000/svg" xmlns:xlink="http://www.w3.org/1999/xlink" xmlns:a="http://ns.adobe.com/AdobeSVGViewerExtensions/3.0/"
	 x="0px" y="0px" width="424.755px" height="411.301px" viewBox="0 0 424.755 411.301"
	 style="enable-background:new 0 0 424.755 411.301;" xml:space="preserve">
<style type="text/css">
	.st0{fill:#FFFFFF;}
	.st1{fill:#FFFFFF;stroke:#000000;stroke-width:13;stroke-miterlimit:10;}
	.st2{fill:#FFFFFF;stroke:#000000;stroke-width:6;stroke-miterlimit:10;}
	.st3{fill-rule:evenodd;clip-rule:evenodd;}
</style>
<defs>
</defs>
<g>
	<path class="st0" d="M22.625,280.609c23.45-29.037,38.588-58.452,51.246-88.763C60.132,221.057,44.497,250.286,22.625,280.609z"/>
	<path d="M262.035,0.411c-65.934,97.115-59.243,194.776-112.987,264.041l159.085,86.669
		c60.718-84.985,46.94-161.633,116.623-267.104L262.035,0.411z"/>
	<path class="st1" d="M219.292,8.411c-65.934,97.115-59.243,194.776-112.987,264.041L265.39,359.12
		c60.718-84.985,46.94-161.633,116.622-267.104L219.292,8.411z"/>
	<path class="st2" d="M193.499,20.172C100.834,92.225,77.086,187.191,4.603,236.51l124.611,131.498
		c83.964-62.122,94.49-139.285,193.298-218.131L193.499,20.172z"/>
	
		<rect x="121.693" y="308.041" transform="matrix(0.7413 -0.6711 0.6711 0.7413 -197.0741 196.5657)" class="st0" width="69.536" height="91.798"/>
	
		<rect x="155.548" y="316.792" transform="matrix(0.8713 0.4908 -0.4908 0.8713 180.6466 -43.2322)" class="st0" width="34.398" height="12"/>
	<g>
		<g>
			<path class="st3" d="M120.811,362.68c-0.043-0.012-0.086-0.024-0.129-0.036c0.031-0.064-0.042-0.078-0.026-0.135
				C120.771,362.535,120.823,362.592,120.811,362.68z"/>
			<path class="st3" d="M120.56,362.458c-0.058-0.066-0.118-0.04-0.194-0.054c0.031-0.054,0.102-0.065,0.2-0.047
				C120.564,362.39,120.562,362.424,120.56,362.458z"/>
			<path class="st3" d="M119.837,361.876c-0.03-0.023-0.045-0.084-0.063-0.043c-0.07-0.015-0.01-0.093-0.025-0.135
				c-0.089,0.004-0.166-0.041-0.257-0.097c0.138-0.063,0.021-0.174-0.018-0.285c0.051,0.049,0.075,0.111,0.19,0.129
				c-0.094,0.043-0.028,0.056-0.008,0.151c0.027-0.006,0.054-0.012,0.099,0.002c0.001,0.065,0.042,0.11,0.124,0.136
				C119.879,361.797,119.876,361.856,119.837,361.876z"/>
			<path class="st3" d="M118.165,360.624c-0.097-0.025-0.16-0.119-0.09-0.153C118.111,360.519,118.165,360.559,118.165,360.624z"/>
			<path class="st3" d="M122.249,361.596c-0.06-0.052-0.197-0.068-0.155-0.17C122.167,361.472,122.242,361.518,122.249,361.596z"/>
			<path class="st3" d="M119.527,360.336c-0.098-0.06-0.012-0.087-0.055-0.194c0.025,0.021,0.051,0.041,0.096,0.052
				C119.478,360.272,119.647,360.316,119.527,360.336z"/>
			<path class="st3" d="M121.958,360.904c0.036-0.047,0.147,0.074,0.259,0.071C122.187,361.062,122.035,360.938,121.958,360.904z"/>
			<path class="st3" d="M121.298,360.364c-0.045-0.06-0.126-0.102-0.121-0.186c0.088,0.056,0.148,0.125,0.253,0.172
				C121.45,360.425,121.279,360.29,121.298,360.364z"/>
			<path class="st3" d="M117.645,359.332c-0.086,0.071-0.109-0.092-0.158-0.12C117.553,359.151,117.599,359.303,117.645,359.332z"/>
			<path class="st3" d="M117.89,359.043c0.101,0.009,0.034,0.097,0.159,0.095c-0.017,0.052-0.062,0.074-0.135,0.065
				C117.956,359.115,117.805,359.081,117.89,359.043z"/>
			<path class="st3" d="M116.014,358.526c-0.096-0.043-0.184-0.091-0.187-0.18C115.895,358.404,115.982,358.451,116.014,358.526z"/>
			<path class="st3" d="M122.646,360.328c-0.092-0.004-0.082-0.059-0.16-0.07c-0.01-0.083,0.073-0.061,0.166-0.031
				C122.649,360.26,122.648,360.294,122.646,360.328z"/>
			<path class="st3" d="M121.806,360.071c-0.113-0.011-0.135-0.066-0.191-0.104C121.648,359.922,121.852,359.997,121.806,360.071z"
				/>
			<path class="st3" d="M122.27,359.994c-0.028-0.003-0.03-0.018-0.031-0.034c-0.209-0.095-0.249-0.272-0.439-0.376
				c-0.012-0.102,0.088-0.081,0.107-0.149c0.12,0.053-0.003,0.088,0.058,0.143c0.102,0.043,0.102-0.02,0.161,0.044
				c-0.09,0.046,0.024,0.132,0.022,0.21c0.1,0.009,0.116,0.058,0.193,0.079C122.376,360.004,122.235,359.902,122.27,359.994z"/>
			<path class="st3" d="M117.012,358.29c0.053,0.026,0.002-0.094-0.027-0.11c0.056-0.078,0.045,0.072,0.128,0.061
				c0.023,0.088-0.055,0.064-0.071,0.108c-0.075-0.029-0.132-0.067-0.191-0.104C116.862,358.173,116.972,358.244,117.012,358.29z"/>
			<path class="st3" d="M116.86,358.07c-0.1,0.055-0.155-0.12-0.254-0.147C116.675,357.823,116.816,358.005,116.86,358.07z"/>
			<path class="st3" d="M116.17,357.471c0.055-0.027,0.205,0.026,0.191,0.104C116.31,357.6,116.138,357.559,116.17,357.471z"/>
			<path class="st3" d="M123.22,359.439c-0.117-0.025-0.237-0.243-0.055-0.194C123.12,359.341,123.211,359.37,123.22,359.439z"/>
			<path class="st3" d="M121.057,358.767c-0.102,0.031-0.245-0.126-0.217-0.238c0.055,0.024,0.062-0.003,0.067-0.033
				C121.06,358.537,120.934,358.712,121.057,358.767z"/>
			<path class="st3" d="M115.825,357.172c-0.028-0.024-0.056-0.046-0.065-0.018c-0.021-0.145-0.226-0.201-0.244-0.348
				C115.651,356.971,115.919,356.956,115.825,357.172z"/>
			<path class="st3" d="M122.471,358.723c-0.11-0.004-0.046-0.092-0.058-0.144c0.025,0.021,0.051,0.041,0.096,0.052
				C122.482,358.647,122.471,358.678,122.471,358.723z"/>
			<path class="st3" d="M115.486,356.772c-0.025,0.069-0.068-0.043-0.129-0.036c0.133-0.017-0.047-0.063-0.024-0.16
				c0.125-0.003,0,0.114,0.126,0.111C115.453,356.723,115.449,356.758,115.486,356.772z"/>
			<path class="st3" d="M115.266,356.584c-0.126-0.097-0.281-0.058-0.286-0.181c0.152,0.079,0.086-0.083,0.231-0.013
				C115.095,356.45,115.28,356.501,115.266,356.584z"/>
			<path class="st3" d="M123.149,358.323c-0.091-0.07-0.141-0.207,0.009-0.176C123.164,358.237,123.203,358.256,123.149,358.323z"/>
			<path class="st3" d="M114.74,356.006c-0.138-0.031-0.135-0.13-0.22-0.188c-0.071-0.016-0.073,0.044-0.071,0.108
				c-0.154-0.098,0.021-0.171-0.147-0.321c0.103,0,0.073,0.018,0.194,0.054c0.004,0.105-0.044-0.017-0.131-0.011
				C114.472,355.775,114.692,355.849,114.74,356.006z"/>
			<path class="st3" d="M118.646,356.622c-0.116-0.051-0.119-0.171-0.086-0.228C118.636,356.465,118.712,356.55,118.646,356.622z"/>
			<path class="st3" d="M120.849,357.153c-0.062-0.06-0.041-0.009-0.129-0.036c0.013-0.048,0.069-0.049,0.102-0.074
				C120.866,357.064,120.846,357.114,120.849,357.153z"/>
			<path class="st3" d="M119.222,355.684c-0.082-0.067-0.159-0.136-0.151-0.246C119.104,355.524,119.294,355.626,119.222,355.684z"
				/>
			<path class="st3" d="M122.17,355.808c-0.081-0.019-0.098-0.067-0.159-0.095c-0.02-0.075,0.151,0.06,0.132-0.015
				C122.187,355.718,122.167,355.768,122.17,355.808z"/>
			<path class="st3" d="M123.885,356.255c-0.104-0.048-0.127-0.135-0.118-0.237C123.81,356.092,123.947,356.207,123.885,356.255z"/>
			<path class="st3" d="M117.106,354.157c-0.043-0.012-0.086-0.024-0.129-0.035c0.021-0.017,0.041-0.034,0.002-0.05
				C117.003,354.016,117.143,354.103,117.106,354.157z"/>
			<path class="st3" d="M122.169,355.221c-0.122-0.047-0.124-0.153-0.286-0.181c0.012-0.049,0.089-0.026,0.133-0.04
				c-0.011-0.062-0.139-0.107-0.058-0.143c0.062,0.027,0.02,0.105,0.125,0.111C121.993,355.055,122.176,355.105,122.169,355.221z"/>
			<path class="st3" d="M117.199,353.647c-0.025-0.029-0.088-0.039-0.095-0.077c-0.002-0.077,0.12-0.057,0.165-0.006
				C117.305,353.656,117.164,353.554,117.199,353.647z"/>
			<path class="st3" d="M121.339,354.201c-0.09,0.034-0.317-0.179-0.217-0.238C121.181,354.048,121.204,354.151,121.339,354.201z"/>
			<path class="st3" d="M120.295,353.479c-0.065-0.051-0.162-0.085-0.155-0.17C120.213,353.355,120.287,353.401,120.295,353.479z"/>
			<path class="st3" d="M119.602,352.931c-0.066-0.025-0.06-0.086-0.125-0.111c0.012-0.031,0.082,0.001,0.131,0.01
				C119.605,352.864,119.604,352.898,119.602,352.931z"/>
			<path class="st3" d="M119.42,352.651c-0.102-0.016-0.082-0.091-0.157-0.12C119.281,352.493,119.47,352.576,119.42,352.651z"/>
			<path class="st3" d="M114.833,351.285c-0.005-0.023,0.014-0.02,0.034-0.016c-0.004-0.031-0.058-0.037-0.096-0.052
				c-0.017-0.05,0.1-0.078,0.007-0.126c0.008-0.088,0.104,0.083,0.099,0.002C114.915,351.15,114.995,351.34,114.833,351.285z"/>
			<path class="st3" d="M114.78,351.041c-0.056-0.006-0.06-0.036-0.062-0.068c-0.046-0.015-0.091-0.029-0.098-0.001
				c-0.044-0.02-0.023-0.07-0.027-0.109c0.054,0.015,0.107,0.03,0.161,0.044C114.724,350.97,114.797,350.984,114.78,351.041z"/>
			<path class="st3" d="M114.104,350.804c-0.063-0.035-0.083-0.091-0.09-0.153C114.116,350.668,114.114,350.733,114.104,350.804z"/>
			<path class="st3" d="M118.349,351.82c-0.087-0.064,0.039-0.114,0.104-0.099C118.531,351.807,118.387,351.784,118.349,351.82z"/>
			<path class="st3" d="M118.675,351.859c-0.109-0.076-0.273-0.18-0.181-0.28C118.536,351.681,118.72,351.716,118.675,351.859z"/>
			<path class="st3" d="M118.258,351.693c-0.037-0.064-0.118-0.106-0.121-0.186c0.069,0.048,0.103,0.114,0.189,0.154
				C118.316,351.686,118.26,351.66,118.258,351.693z"/>
			<path class="st3" d="M117.708,351.542c-0.102-0.165-0.191-0.174,0.075-0.158C117.797,351.479,117.738,351.495,117.708,351.542z"
				/>
			<path class="st3" d="M113.673,350.277c-0.101-0.033-0.153-0.09-0.155-0.17C113.583,350.157,113.68,350.192,113.673,350.277z"/>
			<path class="st3" d="M112.763,349.516c-0.049-0.206-0.255-0.309-0.204-0.465c0.108,0.127,0.212,0.257,0.273,0.407
				c0.038,0.006,0.03-0.038,0.036-0.067C113.033,349.479,112.9,349.546,112.763,349.516z"/>
			<path class="st3" d="M116.947,350.439c-0.128-0.068,0.102-0.093,0.007-0.126C117.06,350.256,117.012,350.449,116.947,350.439z"/>
			<path class="st3" d="M116.92,350.329c-0.068-0.04-0.111-0.093-0.089-0.177C116.898,350.193,116.926,350.253,116.92,350.329z"/>
			<path class="st3" d="M112.185,348.667c-0.043-0.012-0.086-0.024-0.129-0.036c-0.002-0.046,0.042-0.042,0.038-0.092
				C112.116,348.586,112.194,348.606,112.185,348.667z"/>
			<path class="st3" d="M115.461,349.391c0.017-0.044,0.095-0.02,0.072-0.108C115.625,349.355,115.584,349.511,115.461,349.391z"/>
			<path class="st3" d="M117.391,349.515c-0.036-0.015-0.049-0.042-0.062-0.068"/>
			<path class="st3" d="M117.642,349.737"/>
			<path class="st3" d="M118.799,350.796"/>
			<path class="st3" d="M120.255,352.397"/>
			<path class="st3" d="M105.19,338.31c2.583,2.214,15.028,14.153,15.028,14.153c0.038,0.007,0.525,0.482,0.594,0.547
				c-0.056,0.064-0.1-0.08-0.159-0.095c-0.003,0.05-0.005,0.1-0.008,0.151c0.058,0.019,0.07-0.012,0.131,0.01
				c0.086,0.163-0.078,0.231,0.144,0.371c0.073-0.013-0.031-0.146-0.021-0.21c0.045-0.014,0.121,0.009,0.134-0.04
				c0.006,0.046-0.126,0.229,0.081,0.329c0.057,0.009,0.076-0.023,0.07-0.083c0.124,0.042-0.025,0.202,0.116,0.287
				c0.11,0.049,0.047-0.091,0.166-0.031c0.005,0.023-0.014,0.02-0.034,0.016c-0.049,0.018,0.074,0.095-0.039,0.117
				c0.042,0.023,0.168,0.127,0.058,0.143c0.05,0.033,0.044,0.093,0.125,0.111c0.065-0.025,0.02-0.173,0.108-0.174
				c0.018,0.052,0.045,0.125,0.055,0.194c0.078,0.032,0.073-0.027,0.163,0.019c0.069,0.113,0.187,0.204,0.279,0.307
				c0.072,0.016-0.038-0.075,0.007-0.126c0.171,0.107-0.038,0.245,0.212,0.314c0.016,0.042-0.045,0.12,0.026,0.135
				c-0.011,0.063-0.054-0.05-0.129-0.035c-0.001,0.025-0.003,0.05-0.004,0.075c0.157,0.071,0.183,0.206,0.346,0.274
				c0.091-0.037-0.026-0.182-0.153-0.195c0-0.065-0.012-0.125-0.057-0.169c0.045,0.058,0.291,0.132,0.248,0.273
				c0.114,0.045,0.084-0.067,0.198-0.022c-0.062,0.122,0.131,0.32,0.269,0.482c0.098,0.01-0.028-0.062,0.006-0.1
				c0.064,0.073,0.093,0.013,0.194,0.053c0.032,0.115,0.16,0.184,0.18,0.305c0.219,0.076,0.089,0.134,0.144,0.371
				c-0.057-0.079-0.084-0.172-0.184-0.229c-0.01-0.046,0.028-0.041,0.067-0.033c-0.016-0.057-0.057-0.103-0.124-0.136
				c-0.065-0.026,0.003,0.075,0.029,0.084c-0.075,0.003-0.383-0.093-0.349-0.224c-0.151-0.008-0.316-0.201-0.376-0.333
				c-0.085-0.017-0.109,0.023-0.094-0.077c-0.271-0.123-0.455-0.287-0.564-0.487c-0.122,0.049-0.195-0.174-0.259-0.071
				c0.01-0.044-0.046-0.099-0.089-0.178c0.058,0.013,0.067,0.05,0.128,0.061c-0.015-0.042-0.045-0.076-0.059-0.118
				c-0.041,0-0.069,0.014-0.069,0.057c-0.095-0.019-0.096-0.084-0.191-0.103c-0.007-0.043,0.033-0.035,0.036-0.067
				c-0.085-0.016-0.162-0.036-0.125-0.111c-0.051-0.016-0.124-0.022-0.128-0.061c-0.077-0.031,0.012,0.12-0.101,0.049
				c0.071-0.129-0.255-0.396-0.404-0.418c-0.096-0.043,0.034-0.045,0.006-0.101c-0.005-0.022-0.031-0.034-0.029-0.059
				c-0.098-0.046-0.098,0.017-0.196-0.028c0.007-0.162-0.286-0.338-0.466-0.486c0.027-0.071-0.028-0.101-0.025-0.16
				c0.153,0.051,0,0.096,0.123,0.161c0.016-0.067,0.012-0.048,0.133-0.04c0.011-0.162-0.137-0.231-0.25-0.222
				c-0.02,0.075,0.16,0.054,0.124,0.136c-0.071-0.075-0.201-0.065-0.198,0.022c-0.098-0.108-0.244-0.193-0.345-0.299
				c-0.065,0.075-0.041,0.042-0.163-0.02c0.029,0.067,0.107,0.112,0.222,0.138c-0.006,0.046-0.108-0.012-0.101,0.049
				c-0.032-0.074-0.14-0.113-0.187-0.179c0.007-0.063,0.111-0.02,0.197,0.003c-0.064-0.108-0.203-0.179-0.212-0.314
				c0.033-0.034,0.11-0.021,0.135-0.065c-0.067-0.114-0.09,0.04-0.195-0.028c-0.048-0.003,0.011,0.035-0.004,0.075
				c-0.207-0.045-0.336-0.306-0.571-0.362c-0.016-0.188-0.212-0.289-0.338-0.425c-0.129-0.006,0.009,0.129-0.076,0.183
				c-0.162-0.072-0.003-0.182-0.19-0.129c0.028-0.058,0.084-0.085,0.168-0.081c-0.067-0.139-0.193-0.249-0.342-0.349
				c0.098-0.098-0.058-0.193-0.149-0.271c-0.038-0.006-0.03,0.039-0.037,0.066c0.008,0.037,0.08,0.043,0.128,0.061
				c0.004,0.031-0.01,0.043-0.035,0.042c-0.001,0.017-0.002,0.034-0.003,0.05c-0.1-0.042-0.057-0.152-0.221-0.163
				c-0.009,0.062,0.069,0.081,0.091,0.127c-0.072,0.064-0.134-0.08-0.192-0.104c-0.042,0.179-0.145-0.119-0.286-0.181
				c0.059-0.018,0.137-0.086,0.074-0.158c-0.045,0.087-0.126-0.003-0.232,0.038c0.007-0.028-0.005-0.047-0.03-0.059
				c0.123-0.013,0.007-0.122,0.076-0.183c-0.055-0.04-0.284-0.139-0.28-0.281c-0.101-0.04-0.095,0.038-0.135,0.065
				c-0.13-0.075-0.217-0.162-0.318-0.19c0.002-0.033,0.004-0.067,0.005-0.1c0.043,0.012,0.086,0.024,0.129,0.036
				c-0.038,0.109,0.129,0.118,0.187,0.179c0.001-0.114-0.178-0.143-0.183-0.254c-0.205,0.1-0.257-0.144-0.479-0.234
				c0.069,0.04,0.066,0.114,0.156,0.145c-0.081,0.045-0.176-0.11-0.221-0.163c0.032-0.037,0.082-0.052,0.104-0.099
				c-0.058-0.104-0.131-0.005-0.196-0.028c0.014-0.04-0.022-0.054-0.062-0.068c0.104-0.052,0.031-0.133-0.155-0.17
				c0.159-0.001,0.014-0.043,0.042-0.167c-0.182-0.053,0.028,0.16-0.169,0.081c0.099-0.088,0.006-0.137,0.045-0.217
				c-0.156-0.046,0.008,0.135-0.073,0.133c-0.076-0.082-0.091-0.1-0.055-0.194c-0.143-0.043,0.011,0.076-0.07,0.083
				c-0.255-0.093-0.155-0.205-0.242-0.373c-0.076-0.021-0.098,0.017-0.195-0.028c0.011-0.112-0.13-0.149-0.151-0.245
				c-0.065-0.001-0.078,0.056-0.135,0.065c-0.011,0.038,0.028,0.052,0.028,0.084c0.086,0.041,0.065-0.035,0.101-0.049
				c0.076,0.111,0.044,0.171,0.182,0.28c-0.094-0.061-0.221-0.106-0.252-0.197c-0.1-0.035,0.078,0.096-0.036,0.067
				c0.105,0.064,0.16,0.151,0.251,0.222c-0.01,0.025-0.065-0.001-0.068,0.032c0.023,0.082,0.083-0.01,0.162,0.045
				c-0.004,0.043,0.02,0.072,0.061,0.093c-0.206,0.106,0.199,0.143,0.148,0.296c0.101,0.04,0.09-0.063,0.163,0.02
				c-0.023,0.081-0.15,0.048-0.172,0.131c-0.091-0.021-0.071-0.096-0.157-0.12c0.007-0.028,0.06-0.005,0.099,0.002
				c0.007-0.085-0.09-0.12-0.155-0.17c-0.071,0.018,0.02,0.068-0.039,0.117c0.05,0.074,0.14,0.128,0.152,0.22
				c0.101,0.041,0.09-0.063,0.163,0.019c-0.15,0.226,0.366,0.514,0.551,0.739c0.055-0.01,0.029-0.11,0.104-0.099
				c-0.211-0.192-0.456-0.368-0.625-0.58c0.033-0.06,0.131,0.048,0.093,0.102c0.106,0.025,0.153,0.102,0.165-0.005
				c0.038,0.063,0.074,0.128,0.121,0.186c0.058-0.007,0.047-0.091,0.165-0.031c-0.049,0.1-0.001,0.102,0.089,0.178
				c0.098,0.046,0.066-0.052,0.164-0.006c0.138,0.106,0.21,0.287,0.208,0.389c0.027-0.015,0.09,0.01,0.1-0.023
				c0.003-0.07-0.091,0.036-0.062-0.068c0.158,0.071,0.193,0.201,0.346,0.274c-0.003,0.059-0.006,0.117-0.01,0.176
				c0.076,0.013,0.124-0.007,0.228,0.037c-0.052,0.124-0.152,0.008-0.231,0.013c-0.003,0.092,0.23,0.069,0.187,0.179
				c0.141,0.048,0.074-0.132,0.233-0.064c-0.002,0.024-0.041,0.009-0.066,0.008c0.059,0.159,0.232,0.264,0.373,0.384
				c-0.01,0.104-0.185,0.029-0.228-0.037c0.025,0.078-0.079,0.218,0.053,0.244c0.092,0-0.044-0.08,0.038-0.092
				c0.106-0.002,0.02,0.088,0.126,0.086c-0.031,0.069-0.094,0.035-0.04,0.142c0.07,0.024,0.104,0.008,0.101-0.049
				c0.154,0.062-0.06,0.148,0.088,0.203c0.074,0.002,0.017-0.141,0.136-0.09c0.019,0.083-0.038,0.082-0.041,0.142
				c0.013,0.027,0.026,0.053,0.062,0.068c0.058-0.022-0.027-0.118,0.073-0.133c0.071,0.09,0.107,0.045,0.257,0.097
				c0.207,0.13,0.272,0.34,0.369,0.458c0.035-0.155,0.318,0.241,0.475,0.335c0.084-0.05-0.157-0.152-0.117-0.262
				c0.209,0.099,0.142,0.304,0.342,0.35c-0.007,0.028-0.06,0.005-0.099-0.002c-0.04,0.085,0.076,0.094,0.056,0.169
				c0.283,0.049,0.278,0.292,0.476,0.31c0.063,0.193,0.241,0.242,0.24,0.423c-0.062-0.059-0.041-0.009-0.129-0.035
				c0.061,0.24,0.3,0.204,0.451,0.15c-0.029,0.075-0.129,0.072-0.171,0.132c0.087,0.064,0.144,0.143,0.252,0.197
				c0.069,0.004-0.041-0.108-0.024-0.159c-0.055,0.001,0.295,0.229,0.312,0.29c0.052,0.033,0.144-0.011,0.068-0.033
				c0.083-0.036,0.063,0.068,0.093,0.102c-0.007,0.028-0.06,0.005-0.098-0.001c0.12,0.142,0.52,0.262,0.596,0.496
				c0.054,0.015,0.108,0.03,0.162,0.045c-0.002,0.05,0.086,0.056,0.059,0.118c0.313,0.062,0.269,0.295,0.571,0.362
				c0.052,0.195,0.257,0.317,0.503,0.419c-0.031-0.119,0.002-0.142-0.02-0.235c0.149,0.172,0.188,0.4,0.37,0.434
				c-0.148,0.063-0.105,0.217-0.309,0.247c0.096,0.076,0.218,0.14,0.316,0.215c-0.158,0.063-0.338-0.286-0.515-0.193
				c-0.008,0.053,0.114,0.043,0.16,0.07c-0.095,0.063,0.119,0.142,0.085,0.253c0.047-0.037,0.095-0.073,0.231-0.013
				c-0.089,0.032-0.058,0.094-0.044,0.192c0.113,0.022,0.287,0.08,0.19,0.129c0.101,0.04,0.13-0.02,0.194,0.053
				c0.096,0.004,0.039-0.027,0.038-0.092c0.081,0.067,0.165,0.133,0.185,0.23c0.11,0.032,0.056-0.116,0.169-0.081
				c0.001,0.043-0.114,0.131,0.024,0.16c-0.03,0.029-0.031,0.09-0.134,0.04c0.049,0.114,0.05,0.092-0.009,0.176
				c-0.027,0.062,0.154,0.024,0.127,0.086c0.006,0.109-0.106-0.011-0.163-0.019c0.027,0.052,0.117,0.074,0.124,0.136
				c0.076,0.013,0.026-0.114,0.134-0.065c-0.054,0.055,0.078,0.136,0.094,0.077c-0.04,0.164,0.182,0.31,0.438,0.401
				c-0.035,0.024-0.037,0.084-0.071,0.108c-0.1-0.056-0.073-0.022-0.194-0.053c-0.013-0.058,0.049-0.035,0.1-0.024
				c-0.103-0.154-0.333-0.248-0.505-0.369c0.048,0.148,0.292,0.203,0.342,0.35c-0.077-0.053-0.154-0.105-0.254-0.147
				c0.022,0.087,0.173,0.113,0.118,0.237c0.077,0.013,0.065-0.07,0.166-0.031c-0.006,0.044,0.037,0.064,0.027,0.109
				c0.068,0.031,0.064-0.019,0.069-0.057c0.064,0.018,0.037,0.08,0.126,0.086c-0.082,0.063,0.078,0.146-0.011,0.201
				c0.14,0.066,0.11-0.056,0.23-0.013c0.01,0.094,0.216,0.221,0.284,0.206c0.034,0.135,0.14,0.084,0.186,0.204
				c0.098,0.01-0.028-0.062,0.005-0.101c0.16,0.062,0.173,0.194,0.314,0.265c-0.019,0.062-0.03,0.078-0.105,0.124
				c0.069,0.049,0.135,0.173,0.054,0.219c0.103,0.06,0.029-0.074,0.132-0.015c0.067,0.041,0.051,0.122,0.157,0.145
				c0.014,0.085-0.065,0.061-0.007,0.126c0.107,0.029,0.041-0.133,0.107-0.149c0.014-0.064-0.182-0.026-0.125-0.111
				c0.094-0.021,0.205,0.118,0.218,0.213c0.09,0.046,0.086-0.012,0.163,0.02c0.019,0.114,0.11,0.321,0.213,0.313
				c0.045,0.022,0,0.045-0.035,0.042c0.044,0.068,0.079,0.141,0.221,0.163c-0.027,0.071,0.052,0.09,0.024,0.16
				c-0.011-0.101-0.25-0.092-0.218-0.213c-0.13-0.01-0.099,0.077-0.262-0.021c-0.025,0.152,0.124,0.123,0.157,0.145
				c-0.022,0.107-0.123-0.039-0.197-0.003c0.023-0.06-0.008-0.094-0.093-0.102c0.024-0.075-0.056-0.095,0.007-0.126
				c0.089,0.038,0.087,0.107,0.161,0.045c-0.006-0.054-0.143-0.045-0.125-0.111c-0.093,0.001-0.046,0.088-0.165,0.005
				c0.148-0.02-0.072-0.074-0.124-0.136c-0.03-0.001-0.113,0.064-0.038,0.091c-0.041-0.049-0.252-0.105-0.284-0.206
				c-0.204,0.005-0.204-0.146-0.387-0.132c-0.049-0.102,0.034-0.125-0.054-0.219c-0.045-0.005-0.03,0.055-0.038,0.091
				c-0.174-0.022-0.176-0.127-0.286-0.181c0.021-0.047,0.054-0.039,0.099,0.002c0.041-0.087-0.11-0.121-0.024-0.16
				c-0.02,0.002-0.128,0.028-0.13-0.036c-0.095-0.004-0.038,0.028-0.038,0.092c-0.143-0.062-0.144-0.192-0.349-0.223
				c0.15-0.116-0.197-0.088-0.119-0.237c-0.09,0.067-0.108-0.052-0.195-0.029c0.044,0.068,0.079,0.141,0.221,0.163
				c-0.091,0.123,0.169,0.229,0.345,0.299c-0.045,0.03-0.09,0.061-0.075,0.158c0.013-0.241-0.683-0.375-0.521-0.679
				c-0.115-0.1-0.188-0.22-0.345-0.299c0.021-0.047,0.054-0.039,0.098,0.001c0.003-0.05,0.006-0.1,0.008-0.151
				c-0.02-0.039-0.067-0.066-0.127-0.086c-0.008,0.077,0.098,0.1,0.055,0.194c-0.091-0.029-0.132-0.083-0.224-0.113
				c0.002-0.034,0.004-0.067,0.005-0.101c-0.022-0.03-0.057-0.054-0.094-0.077c-0.071-0.016-0.073,0.044-0.072,0.108
				c-0.146-0.113,0.103-0.145-0.085-0.253c0.016-0.027,0.044-0.04,0.1-0.024c-0.002-0.048-0.017-0.09-0.059-0.119
				c-0.087,0.138-0.368-0.108-0.516-0.168c0.049,0.12,0.379,0.322,0.242,0.373c0.091,0.103,0.242,0.177,0.313,0.29
				c-0.087,0.056-0.141-0.11-0.222-0.138c0.027,0.102,0.066,0.085,0.023,0.185c0.185-0.028,0.107,0.092,0.292,0.055
				c0.015,0.115-0.082,0.105-0.17,0.106c0.029,0.08,0.137,0.031,0.194,0.054c-0.004,0.059,0.052,0.089,0.024,0.16
				c0.09,0.046,0.086-0.012,0.163,0.019c-0.015,0.115,0.036,0.046,0.126,0.111c0.02,0.104,0.135,0.163,0.149,0.271
				c0.102,0.051,0.07-0.047,0.133-0.04c-0.047-0.097-0.267-0.212-0.117-0.262c0.052,0.04,0.029,0.117,0.056,0.169
				c0.027-0.007,0.054-0.012,0.099,0.001c-0.007,0.11,0.001,0.128,0.122,0.161c0.026,0.127-0.134,0.048-0.108,0.174
				c0.005,0.022,0.031,0.034,0.03,0.06c0.101,0.04,0.095-0.038,0.135-0.065c0.122,0.006,0.089,0.088,0.191,0.104
				c0.01,0.046-0.028,0.04-0.068,0.032c0.052,0.122,0.303,0.148,0.245,0.323c0.227,0.158,0.28,0.333,0.535,0.428
				c-0.033,0.098,0.082,0.124,0.121,0.187c-0.064,0.059-0.104,0.043-0.105,0.124c-0.147-0.045-0.126-0.056-0.259-0.071
				c0.049-0.077,0.055-0.035,0.073-0.133c-0.044-0.085-0.171-0.13-0.151-0.246c-0.102-0.014-0.058,0.132-0.108,0.174
				c-0.081-0.02-0.138-0.176-0.224-0.113c-0.129-0.101-0.111-0.273-0.343-0.324c0.009,0.093,0.103,0.146,0.119,0.237
				c-0.056-0.038-0.079-0.093-0.192-0.104c0.055-0.052,0.04-0.068-0.062-0.068c0.002-0.189-0.299-0.232-0.373-0.384
				c-0.096-0.052-0.061,0.04-0.071,0.083c-0.102-0.016-0.081-0.091-0.158-0.12c0.088,0.001,0.151-0.028,0.294,0.03
				c0.031-0.01,0.052-0.032,0.069-0.057c-0.03-0.043-0.084-0.074-0.126-0.111c-0.051-0.003-0.032,0.071-0.132,0.014
				c-0.011-0.056,0.026-0.06,0.037-0.092c-0.006-0.029-0.063-0.035-0.062-0.068c-0.11-0.007-0.007,0.055-0.07,0.083
				c0.002,0.072,0.152,0.074,0.122,0.161c-0.554-0.492-1.028-1.023-1.625-1.494c0.108-0.101-0.119-0.237-0.251-0.222
				c0.042-0.07,0.164-0.051,0.203-0.122c-0.054-0.114-0.183-0.041-0.221-0.163c-0.038-0.006-0.03,0.038-0.036,0.067
				c-0.097-0.076-0.096-0.199-0.216-0.263c-0.091,0.189-0.286-0.155-0.546-0.227c-0.029-0.085,0.075-0.025,0.132-0.015
				c-0.132-0.134-0.095-0.065-0.253-0.172c0.009-0.034,0.097,0.018,0.1-0.024c-0.019-0.04-0.066-0.066-0.127-0.086
				c0.029-0.022,0.046-0.056,0.039-0.117c-0.015-0.101-0.136-0.01-0.124-0.136c-0.057-0.009-0.076,0.023-0.07,0.083
				c-0.236-0.18-0.257-0.124-0.438-0.401c-0.04,0-0.068,0.014-0.069,0.057c-0.046-0.206-0.286-0.319-0.366-0.509
				c-0.03,0.003-0.06,0.006-0.068,0.033c-0.061-0.061-0.062-0.15-0.052-0.244c-0.083-0.038-0.117-0.022-0.101,0.049
				c-0.145-0.224-0.52-0.337-0.524-0.629c-0.098-0.046-0.066,0.052-0.164,0.006c-0.002,0.05,0.087,0.056,0.059,0.118
				c-0.118-0.173-0.198-0.421-0.46-0.586c0.051-0.061,0.174,0.109,0.165-0.031c-0.152-0.056-0.275-0.101-0.318-0.189
				c0.061-0.102,0.073,0.067,0.159,0.095c0.018-0.098-0.082-0.14-0.12-0.212c-0.058,0.025-0.1,0.068-0.137,0.116
				c-0.131-0.184-0.119-0.368-0.365-0.534c-0.035-0.004-0.025,0.044-0.068,0.032c-0.058-0.013-0.066-0.049-0.128-0.061
				c0.008-0.093,0.04-0.062,0.008-0.151c-0.039,0.011-0.089,0.009-0.163-0.02c-0.042-0.102-0.14-0.178-0.216-0.263
				c-0.079-0.019-0.011,0.081,0.028,0.085c-0.163-0.016-0.171-0.218-0.114-0.312c-0.126-0.067-0.099,0.033-0.104,0.099
				c-0.108-0.119-0.077-0.306-0.241-0.398c-0.062-0.027-0.053,0.102,0.028,0.084c-0.091,0.014-0.178-0.039-0.256-0.121
				c0.018,0.029,0.07,0.113-0.037,0.066c0.012,0.043,0.101,0.05,0.059,0.118c-0.114-0.027-0.101-0.114-0.188-0.154
				c0.065,0.001,0.109-0.086,0.007-0.126c0.016-0.034,0.041,0.021,0.097,0.027c-0.031-0.083-0.085-0.155-0.051-0.269
				c-0.119-0.06-0.056,0.08-0.166,0.031c0.009-0.076-0.069-0.163,0.011-0.201c-0.153-0.135-0.35-0.279-0.406-0.392
				c0.038-0.02,0.095-0.02,0.072-0.108c-0.148-0.009-0.109,0.112-0.262-0.021c-0.027,0.078,0.062,0.101,0.09,0.152
				c-0.093,0.035-0.13-0.165-0.218-0.213c0.023-0.02,0.076-0.005,0.069-0.058c-0.085-0.038-0.094-0.087-0.225-0.087
				c-0.019-0.083,0.06-0.059,0.041-0.142c-0.035-0.056-0.24-0.028-0.187-0.179c-0.077-0.032-0.072,0.027-0.163-0.02
				c-0.009,0.061,0.045,0.092,0.091,0.127c-0.4-0.175-0.603-0.656-0.933-0.946c-0.048,0.018-0.066,0.07-0.073,0.133
				c-0.078-0.052-0.08-0.141-0.187-0.179c-0.002-0.064,0.054-0.065,0.102-0.074c-0.133-0.151-0.547-0.353-0.459-0.611
				c-0.123-0.014-0.007,0.087-0.072,0.108c-0.103-0.108-0.12-0.135-0.218-0.213c0.013-0.03,0.059-0.024,0.069-0.058
				c-0.068-0.127-0.434-0.224-0.342-0.349c-0.076-0.021-0.098,0.017-0.195-0.028c-0.026-0.061,0.007-0.15-0.123-0.161
				c0.106-0.163-0.306-0.273-0.303-0.466c-0.022,0.029-0.125-0.031-0.132,0.015c-0.04-0.103-0.055-0.218-0.249-0.248
				c0.014-0.056,0-0.098-0.025-0.134c-0.027,0.006-0.054,0.012-0.098-0.002c0.04-0.041-0.045-0.134-0.062-0.068
				c0-0.076-0.092-0.16-0.217-0.238c0.093-0.013,0.057-0.061,0.007-0.126c-0.038-0.007-0.03,0.038-0.036,0.066
				c-0.104-0.073-0.145-0.174-0.249-0.247c-0.022,0.106,0.097,0.081,0.024,0.16c-0.063-0.043-0.136-0.082-0.156-0.145
				c-0.044-0.004-0.03,0.056-0.038,0.092c0.057,0.062,0.225,0.071,0.187,0.179c-0.046-0.086-0.154,0.011-0.192-0.079
				c-0.096,0.015-0.044,0.083-0.008,0.151c0.067,0.011,0.068-0.049,0.103-0.074c0.106,0.044,0.041,0.108,0.024,0.16
				c0.053,0.057,0.074,0.127,0.188,0.154c-0.131-0.119,0.023-0.145-0.086-0.228c0.033-0.061,0.128,0.095,0.101-0.049
				c-0.005-0.091-0.092,0.064-0.097-0.026c-0.009-0.123,0.03-0.03,0.132-0.015c-0.013-0.026-0.026-0.053-0.062-0.068
				c0.129,0.044,0.231,0.313,0.404,0.418c-0.13,0.011,0.039,0.074-0.039,0.117c-0.068-0.082-0.13-0.166-0.15-0.271
				c-0.263,0.066,0.061,0.312,0.075,0.429c0.199,0.086,0.175-0.074,0.331-0.036c-0.107,0.058,0.133,0.099,0.087,0.203
				c-0.031-0.061-0.206-0.193-0.257-0.096c0.198,0.042,0.021,0.117,0.218,0.213c0.114,0.045,0.085-0.067,0.198-0.022
				c-0.002,0.042-0.004,0.084-0.007,0.126c-0.046-0.015-0.092-0.03-0.099-0.002c0.061,0.199,0.237,0.343,0.333,0.525
				c-0.126-0.013-0.112-0.093-0.19-0.129c0.03,0.123,0.139,0.315,0.312,0.29c-0.053-0.039-0.079-0.092-0.057-0.168
				c0.047-0.05,0.095,0.072,0.131,0.01c0.08,0.115,0.026,0.27,0.248,0.272c-0.033,0.073,0.045,0.093,0.092,0.127
				c-0.029,0.012-0.023,0.063-0.069,0.058c0.171,0.097,0.246,0.371,0.439,0.376c0.059,0.077,0.096,0.165,0.151,0.245
				c0.031-0.01,0.051-0.032,0.069-0.058c0.093,0.047-0.024,0.075-0.007,0.126c0.119,0.042,0.139-0.025,0.169-0.081
				c0.1,0.063,0.15,0.178,0.287,0.156c-0.047,0.055-0.174,0.022-0.172,0.131c-0.148-0.082,0.112-0.11-0.087-0.202
				c-0.087,0.01-0.104,0.055-0.073,0.133c0.087,0.146,0.37,0.197,0.44,0.351c0.138,0.004,0.005-0.083,0.008-0.151
				c0.1,0.033,0.096,0.117,0.121,0.187c-0.027,0.006-0.054,0.012-0.099-0.002c0.022,0.054,0.096,0.044,0.028,0.084
				c0.156,0.063,0.067,0.245,0.314,0.265c-0.067,0.048,0.051,0.196,0.155,0.17c-0.095,0.125,0.058,0.283,0.21,0.364
				c0.007,0.043-0.033,0.035-0.036,0.067c0.137,0.062,0.177,0.185,0.288,0.13c-0.003,0.059-0.006,0.117-0.009,0.176
				c0.162,0.089,0.081-0.089,0.2-0.048c-0.003,0.107,0.079,0.174,0.185,0.23c-0.047,0.037-0.039,0.135-0.076,0.183
				c0.11,0.015,0.06-0.147,0.202-0.097c-0.165,0.079,0.043,0.294,0.21,0.364c0.046,0.103-0.066,0.141,0.054,0.219
				c0.056-0.032,0.068-0.13,0.132-0.014c0.067-0.006,0.075-0.077,0.074-0.158c0.028,0.003,0.03,0.018,0.031,0.034
				c0.022,0.006,0.043,0.012,0.065,0.018c0.004,0.076-0.077,0.057-0.073,0.133c0.029,0.111,0.155,0.035,0.29,0.105
				c-0.01,0.094,0.142,0.111,0.153,0.195c-0.157-0.022-0.195-0.102-0.22-0.188c-0.04,0.019-0.116-0.003-0.196-0.028
				c0.084,0.065,0,0.093,0.156,0.145c0.036,0.092-0.106-0.009-0.07,0.083c0.15,0.034,0.274,0.204,0.409,0.317
				c-0.025,0.042-0.146-0.075-0.158-0.12c-0.153,0.04,0.016,0.199,0.117,0.262c0.127,0.012-0.102-0.122,0.005-0.101
				c0.166,0.045,0.001,0.096,0.123,0.161c0.072-0.177,0.213,0.272,0.476,0.31c-0.034,0.072,0.042,0.219,0.047,0.344
				c0.141-0.08,0.26,0.258,0.245,0.323c0.046,0.015,0.092,0.03,0.099,0.002c-0.027,0.052,0.097,0.095,0.087,0.203
				c0.173-0.004,0.109,0.118,0.183,0.255c0.062,0.006,0.062-0.055,0.164-0.006c0.103,0.255,0.286,0.331,0.428,0.577
				c0.067,0.004,0.067-0.058,0.131,0.011c-0.133,0.068,0.051,0.145,0.188,0.154c-0.135,0.013-0.108,0.16,0.02,0.235
				c0.111-0.011-0.097-0.107,0.007-0.126c0.058,0.013,0.067,0.05,0.128,0.061c-0.021,0.046-0.1,0.023-0.038,0.092
				c0.047,0.007,0.015-0.072,0.069-0.057c0.142,0.087,0.123,0.146,0.056,0.169c0.048,0.099,0.106-0.051,0.162,0.044
				c-0.093,0.028-0.054,0.116-0.011,0.201c0.128-0.018,0.05,0.052,0.192,0.079c-0.073,0.035,0.013,0.118,0.091,0.152
				c0.046-0.013-0.012-0.045,0.069-0.057c-0.082,0.077,0.277,0.288,0.081,0.328c0.104,0.04,0.011,0.174,0.12,0.211
				c0.119,0.013,0.001-0.081,0.042-0.167c0.084,0.049,0.104,0.129,0.187,0.179c-0.188,0.129,0.124,0.314,0.143,0.396
				c0.059-0.036,0.01-0.131,0.009-0.176c-0.054-0.024-0.062,0.003-0.067,0.032c-0.107-0.057,0.002-0.077-0.057-0.169
				c0.125,0.104,0.127,0.142,0.352,0.174c0.024,0.088-0.086,0.029-0.102,0.074c0.216,0.043,0.445,0.502,0.622,0.631
				c0.009,0.028,0.062,0.172-0.04,0.142c0.005,0.124,0.224,0.134,0.087,0.203c0.091,0.029,0.085-0.049,0.135-0.065
				c-0.008-0.037-0.08-0.043-0.128-0.061c0.018-0.085,0.144-0.011,0.073-0.133c0.081,0.086,0.043,0.121,0.085,0.253
				c0.027-0.006,0.054-0.011,0.099,0.002c-0.007,0.084-0.075-0.016-0.134,0.04c0.015,0.066,0.123,0.088,0.089,0.178
				c-0.32-0.222-0.564-0.48-0.814-0.735c-0.103-0.06-0.029,0.075-0.132,0.015c-0.058-0.064,0-0.064,0.007-0.125
				c-0.13-0.036-0.097,0.106-0.109,0.2c0.136,0.142,0.438,0.233,0.5,0.469c0.043,0.053,0.158,0.071,0.19,0.129
				c-0.12-0.012-0.096-0.003,0.028,0.084c0.02,0.075-0.067,0.033-0.07,0.083c0.246,0.067,0.174,0.143,0.281,0.256
				c0.078,0.032,0.073-0.026,0.163,0.019c-0.08,0.028-0.081,0.105,0.024,0.16c0.077,0.031-0.012-0.119,0.101-0.049
				c-0.014,0.04,0.023,0.054,0.062,0.068c-0.026,0.016-0.037,0.047-0.037,0.092c0.172,0.128,0.252,0.195,0.444,0.276
				c-0.118,0.098,0.137,0.096,0.12,0.211c0.096,0.005-0.038-0.075,0.007-0.126c0.052,0.065,0.093,0.135,0.187,0.179
				c0.016,0.042-0.045,0.12,0.026,0.135c-0.108,0.021-0.08,0.037-0.074,0.158c-0.099-0.14-0.256-0.143-0.28-0.282
				c-0.134-0.027-0.023,0.07-0.134,0.04c-0.012-0.093,0.035-0.122,0.105-0.124c-0.011-0.052-0.066-0.083-0.058-0.144
				c-0.115,0.048-0.158-0.087-0.188-0.154c-0.113-0.009,0.002,0.103-0.074,0.158c-0.074-0.059-0.046-0.075-0.026-0.135
				c-0.047-0.009-0.159-0.027-0.256-0.122c0.046-0.02,0.038-0.1,0.042-0.167c-0.076,0.005-0.109,0.058-0.231,0.013
				c0.009-0.07-0.088-0.088-0.124-0.136c-0.023,0.038-0.1,0.015-0.133,0.04c-0.133-0.197-0.328-0.364-0.529-0.528
				c0.015-0.154-0.228-0.184-0.245-0.323c-0.339-0.096-0.293-0.487-0.629-0.505c0.031-0.064-0.042-0.078-0.025-0.135
				c-0.106-0.015-0.149-0.058-0.225-0.088c0.022,0.089,0.142,0.113,0.055,0.194c0.064-0.072,0.081,0.021,0.16,0.07
				c-0.034,0.076-0.074,0.002-0.129-0.036c-0.009,0.118,0.11,0.176,0.183,0.254c0.062,0.015-0.015-0.104-0.059-0.118
				c0.114-0.013,0.181,0.206,0.28,0.281c-0.101-0.009-0.059-0.086-0.159-0.095c0.164,0.147,0.133,0.245,0.241,0.398
				c0.085,0.032-0.023-0.149,0.102-0.074c-0.002,0.034-0.003,0.068-0.005,0.101c0.205,0.117,0.306,0.32,0.337,0.45
				c0.006-0.143,0.125,0.033,0.223,0.113c-0.035,0.031-0.036,0.093-0.1,0.023c-0.021,0.179,0.192,0.104,0.183,0.254
				c0.095,0.025,0.123-0.024,0.167-0.056c0.068,0.035,0.022,0.163-0.009,0.176c0.022,0.09,0.296,0.152,0.184,0.229
				c0.028,0.03,0.179,0.123,0.193,0.079c-0.021,0.104,0.129,0.301,0.338,0.425c-0.043-0.107-0.049-0.091-0.021-0.21
				c0.09,0.038,0.166,0.083,0.256,0.122c0.025,0.06-0.167,0.005-0.069,0.058c-0.06,0.073-0.068-0.078-0.093-0.102
				c-0.124,0.038-0.019,0.273,0.18,0.305c0.11,0.11-0.007,0.33,0.209,0.389c-0.002,0.033-0.004,0.067-0.005,0.1
				c0.086,0.042,0.065-0.035,0.101-0.048c0.09,0.055,0.019,0.187,0.152,0.221c0.096,0.005-0.015-0.086,0.007-0.126
				c0.128,0.213,0.222,0.424,0.466,0.486c0.046,0.059,0.112,0.109,0.087,0.203c-0.064-0.026-0.101-0.023-0.099,0.023
				c0.145,0.029,0.202,0.266,0.408,0.342c0.008-0.061,0.013-0.12-0.058-0.143c0.089,0.007,0.255,0.187,0.346,0.274
				c-0.013,0.119-0.054-0.059-0.162-0.045c-0.004,0.084,0.1,0.115,0.087,0.203c-0.04,0-0.068,0.014-0.068,0.058
				c-0.089-0.022-0.063-0.06-0.129-0.036c0.016,0.025,0.032,0.05,0.028,0.084c0.207,0.026,0.195,0.067,0.353,0.148
				c0.032-0.096-0.152-0.09-0.121-0.186c0.1,0.009,0.092,0.069,0.192,0.079c-0.1-0.003-0.012,0.18,0.053,0.244
				c0.038,0.006,0.03-0.038,0.036-0.066c0.122,0.006,0.089,0.088,0.191,0.104c-0.007,0.045-0.11-0.015-0.132,0.015
				c0.048,0.148,0.242,0.226,0.308,0.365c-0.089,0.043-0.065-0.093-0.158-0.12c-0.026-0.003-0.034,0.016-0.066,0.007
				c0.112,0.071,0.068,0.125,0.118,0.237c-0.1,0.041-0.145-0.057-0.091-0.127c-0.116-0.057-0.035,0.124-0.132,0.015
				c-0.005,0.077,0.085,0.204-0.074,0.158c-0.045-0.05-0.021-0.086,0.068-0.058c-0.004-0.031-0.058-0.037-0.096-0.052
				c-0.019-0.083,0.039-0.082,0.041-0.142c-0.095-0.101-0.218-0.189-0.245-0.322c-0.284-0.043-0.247-0.24-0.408-0.342
				c-0.129,0.072,0.124,0.214,0.017,0.285c-0.118-0.215-0.341-0.272-0.397-0.543c-0.121-0.016-0.215-0.02-0.189-0.154
				c-0.115-0.011-0.178,0.052-0.139,0.14c-0.072-0.006-0.044-0.061-0.094-0.077c0.087,0.006,0.044-0.13,0.168-0.081
				c-0.196-0.077-0.178-0.257-0.308-0.366c0.07,0.19,0.086,0.324,0.112,0.362c-0.17,0.008-0.176-0.274-0.241-0.398
				c-0.095,0.034-0.177-0.096-0.221-0.163c0.01-0.025,0.065,0.001,0.068-0.032c-0.006-0.023-0.031-0.035-0.03-0.06
				c-0.034,0.007-0.036,0.049-0.1,0.023c-0.131-0.141-0.19-0.316-0.303-0.466c-0.026-0.003-0.034,0.016-0.066,0.007
				c0.102,0.169,0.088,0.246,0.175,0.406c-0.185-0.083-0.226-0.234-0.376-0.333c0.025-0.069,0.068,0.043,0.129,0.036
				c0.017-0.049-0.018-0.073-0.026-0.11c-0.121-0.055-0.156,0.042-0.228-0.037c-0.001-0.046,0.043-0.042,0.038-0.091
				c0.031,0.009,0.024,0.037,0.03,0.059c0.075,0.021,0.201-0.052,0.13,0.036c0.183,0.057,0.115-0.082,0.04-0.142
				c0.025,0.11-0.149-0.069-0.166,0.031c-0.072-0.031,0.006-0.133-0.057-0.168c-0.11-0.02-0.044,0.124-0.01,0.176
				c-0.006,0.064-0.128,0.001-0.134,0.065c-0.1-0.042-0.079-0.142-0.187-0.179c-0.072,0.039,0.009,0.093-0.042,0.167
				c-0.153-0.016-0.08-0.141-0.221-0.163c0.034-0.06,0.099,0.063,0.194,0.053c-0.048-0.05-0.082-0.107-0.156-0.145
				c0.138,0.043,0.141-0.016,0.201-0.072c-0.005-0.022-0.031-0.034-0.029-0.059c-0.103-0.06-0.029,0.074-0.132,0.015
				c0.043-0.127-0.4-0.487-0.504-0.394c0.021-0.075-0.065-0.118,0.009-0.151c-0.133-0.066-0.129,0.018-0.229-0.012
				c0.095,0.077,0.103,0.195,0.215,0.264c-0.121-0.016-0.31-0.21-0.376-0.333c-0.064-0.017-0.045,0.057-0.132,0.015
				c-0.013-0.097-0.023-0.2-0.216-0.264c0.078-0.051,0.001-0.117,0.138-0.115c-0.119-0.016-0.067-0.132-0.219-0.188
				c0.168-0.009-0.076-0.164,0.011-0.201c-0.163-0.099-0.036,0.12-0.167,0.056c0.022-0.084-0.021-0.137-0.089-0.178
				c-0.046,0.012-0.069,0.049-0.103,0.073c0.115,0.196,0.333,0.336,0.366,0.509c-0.1-0.009-0.035-0.097-0.159-0.095
				c-0.009-0.314-0.509-0.392-0.553-0.688c-0.366-0.135-0.545-0.617-0.819-0.634c-0.075-0.062-0.137-0.13-0.219-0.188
				c0.096-0.097-0.103-0.17-0.149-0.271c-0.034,0.007-0.037,0.049-0.1,0.023c0.083-0.048-0.024-0.172-0.092-0.127
				c-0.068-0.236-0.386-0.353-0.494-0.57c0.097,0.031,0.041-0.078,0.039-0.117c-0.068-0.012-0.015,0.108-0.072,0.108
				c-0.227-0.119-0.263-0.33-0.4-0.493c-0.124,0.065-0.304-0.124-0.252-0.197c-0.092-0.004-0.081-0.058-0.16-0.07
				c0.11-0.173-0.472-0.399-0.489-0.67c-0.325-0.061-0.266-0.484-0.563-0.512c0.065,0.042,0.085,0.106,0.122,0.161
				c-0.128,0.006-0.15-0.227-0.31-0.34c-0.065-0.047-0.345-0.192-0.249-0.247c0.008-0.053-0.114-0.043-0.16-0.07
				c-0.042-0.151-0.209-0.242-0.241-0.398c-0.193-0.11-0.446-0.421-0.655-0.64c-5.603-5.561-10.458-11.482-15.302-17.409
				c-0.084-0.031-0.086,0.03-0.103,0.074c0.495,0.382,0.665,0.92,1.144,1.31c-0.043,0.064-0.014,0.083,0.024,0.16
				c0.048,0.002-0.011-0.036,0.004-0.076c0.101,0.049,0.036,0.179,0.186,0.204c0.001,0.073-0.1,0.032-0.104,0.099
				c0.329,0.11,0.53,0.429,0.65,0.715c0.196,0.183,0.417,0.354,0.493,0.595c0.037,0.015,0.057,0.011,0.066-0.007
				c0.165,0.351,0.664,0.724,0.701,0.984c0.088,0.027,0.068-0.024,0.129,0.036c-0.007,0.028-0.06,0.005-0.098-0.002
				c0.45,0.339,0.502,0.748,0.991,1.09c-0.082,0.087,0.195,0.236,0.278,0.332c0.138,0.16,0.121,0.325,0.276,0.356
				c0.047,0.173,0.163,0.313,0.371,0.409c0.035,0.092-0.105-0.01-0.07,0.083c-0.025,0.034,0.15,0.083,0.129,0.035
				c-0.008,0.135,0.152,0.188,0.181,0.305c0.055,0.024,0.062-0.003,0.067-0.033c0.016,0.163,0.183,0.254,0.241,0.398
				c0.14-0.047,0.022,0.003,0.16,0.07c-0.044,0.021-0.047,0.081-0.007,0.126c0.03-0.011,0.075-0.007,0.131,0.011
				c-0.058,0.141,0.265,0.229,0.271,0.457c0.055,0.017,0.085,0.005,0.1-0.023c0.137,0.22,0.587,0.676,0.549,0.764
				c0.072,0.112,0.275,0.161,0.245,0.323c0.165,0.058,0.363,0.208,0.313,0.29c0.629,0.62,1.052,1.255,1.702,1.898
				c0.007,0.043-0.033,0.035-0.036,0.066c0.096,0.03,0.094,0.057,0.224,0.113c0.205,0.408,0.845,0.817,1.045,1.309
				c0.057,0.019,0.07-0.012,0.13,0.011c0.124,0.169,0.22,0.351,0.4,0.493c-0.055,0.016-0.237,0.044-0.144,0.216
				c0.109,0.014,0.115-0.043,0.228,0.037c0.076,0.001,0.04-0.147-0.058-0.144c0.026-0.101,0.221,0.06,0.127,0.086
				c0.321,0.156,0.329,0.462,0.656,0.615c-0.075,0.103,0.092,0.231,0.28,0.281c0.01,0.046-0.028,0.04-0.067,0.033
				c0.229,0.166,0.359,0.382,0.594,0.546c-0.013,0.03-0.059,0.024-0.069,0.058c0.307,0.252,0.529,0.692,0.874,0.828
				c-0.002,0.024-0.041,0.008-0.065,0.007c0.306,0.293,0.524,0.628,0.903,0.887c0.119,0.254,0.516,0.582,0.774,0.852
				c0.02,0.084-0.092,0.023-0.072,0.107c0.013,0.027,0.026,0.053,0.062,0.068c0.128-0.154,0.277,0.17,0.414,0.241
				c-0.064,0.075-0.087-0.069-0.161-0.069c-0.099,0.004,0.018,0.102,0.026,0.134c0.323,0.011,0.392,0.304,0.633,0.43
				c0.02,0.084-0.092,0.024-0.071,0.108c0.006,0.029,0.063,0.034,0.061,0.068c0.044,0.005,0.031-0.055,0.038-0.091
				c0.091,0.029,0.135,0.082,0.122,0.161c-0.032,0.018-0.12-0.025-0.101,0.048c-0.065-0.018-0.038-0.08-0.127-0.086
				c-0.017,0.09,0.127,0.102,0.087,0.203c0.151,0.009,0.154,0.089,0.223,0.138c0.097-0.025-0.12-0.104-0.089-0.177
				c0.213,0.057,0.001-0.068,0.007-0.126c0.271,0.107,0.117,0.157,0.346,0.274c-0.008,0.045-0.11-0.015-0.132,0.015
				c0,0.025,0.039,0.03,0.063,0.043c-0.021,0.047-0.054,0.039-0.099-0.002c-0.018,0.131,0.096,0.199,0.081,0.328
				c0.082,0.036,0.111,0.065,0.163,0.02c0.066,0.074-0.007,0.216,0.117,0.262c0.07,0.024,0.02-0.085,0.039-0.117
				c0.098,0.034,0.055,0.122-0.007,0.125c-0.005,0.076,0.162,0.069,0.156,0.145c0.051,0.003,0.032-0.071,0.132-0.014
				c-0.059,0.139,0.145,0.415,0.276,0.356c0.057,0.079,0.183,0.124,0.15,0.246c0.221,0.029,0.185,0.242,0.349,0.224
				c-0.122,0.186,0.393,0.264,0.368,0.484c0.173,0.12,0.249,0.288,0.438,0.401c0.091,0.025-0.074-0.089,0.067-0.032
				c0.048,0.304,0.472,0.425,0.586,0.697c-0.058-0.013-0.067-0.049-0.128-0.061c-0.035-0.003-0.025,0.044-0.068,0.033
				c0.108,0.095,0.282,0.158,0.38,0.258c-0.026,0.038-0.059-0.013-0.097-0.027c-0.089-0.001,0.083,0.07,0.025,0.134
				c0.05-0.016,0.083-0.007,0.129,0.035c-0.113,0.18,0.311,0.239,0.304,0.441c0.101,0.04,0.146,0.018,0.135-0.065
				c0.102,0.016,0.081,0.091,0.157,0.12c-0.012,0.031-0.082-0.002-0.131-0.011c-0.03,0.08,0.03,0.116,0.057,0.169
				c0.057,0.01,0.076-0.023,0.07-0.083c0.043,0.15,0.209,0.242,0.308,0.366c0.051,0.003,0.032-0.072,0.132-0.015
				c-0.115,0.151,0.336,0.457,0.361,0.61c0.118-0.001,0.219,0.145,0.197,0.003c0.084,0.065,0.044,0.093-0.007,0.126
				c0.053,0.077,0.243,0.013,0.255,0.147c-0.089-0.006-0.062-0.068-0.126-0.086c0.003,0.031-0.009,0.043-0.036,0.041
				c0.161,0.168,0.412,0.291,0.431,0.527c0.09-0.049,0.091-0.029,0.231-0.013c-0.003,0.076-0.117,0.031-0.198,0.022
				c-0.056,0.157,0.247,0.142,0.214,0.288c0.157,0.075,0.085-0.102,0.201-0.072c-0.005,0.091-0.098,0.087-0.138,0.14
				c-0.002,0.094,0.126,0.036,0.127,0.086c0.044,0.004,0.03-0.055,0.038-0.092c0.078,0.049,0.113,0.165,0.024,0.16
				c0.223,0.066,0.117,0.112,0.321,0.139c0.034,0.144,0.07,0.142,0.217,0.239c-0.031,0.036-0.133-0.004-0.104,0.099
				c-0.054-0.015-0.108-0.03-0.162-0.045c-0.059-0.061,0.062-0.072-0.093-0.102c-0.01-0.046,0.028-0.041,0.067-0.033
				c-0.101-0.103-0.361-0.45-0.475-0.31c-0.07-0.015-0.01-0.093-0.025-0.134c-0.122-0.026-0.136,0.048-0.105,0.124
				c-0.053-0.025-0.202-0.204-0.057-0.169c-0.041-0.086-0.182-0.124-0.151-0.246c-0.068-0.012-0.015,0.108-0.072,0.108
				c-0.122-0.027-0.149-0.264-0.255-0.147c-0.079-0.025-0.003-0.085,0.036-0.067c-0.053-0.064-0.115-0.124-0.221-0.163
				c0.013-0.03,0.059-0.024,0.069-0.058c-0.007-0.054-0.085-0.073-0.092-0.127c-0.031,0.01-0.051,0.032-0.069,0.058
				c-0.065-0.181-0.206-0.325-0.369-0.459c-0.084-0.017,0.042,0.056-0.006,0.101c-0.094-0.028-0.065-0.115-0.19-0.129
				c0.024,0.086,0.083,0.156,0.22,0.188c-0.096,0.119,0.235,0.223,0.242,0.373c-0.249-0.205-0.391-0.424-0.591-0.597
				c0.025-0.069,0.068,0.043,0.129,0.036c-0.005-0.154-0.248-0.043-0.252-0.197c0.047,0.026,0.079,0.06,0.126,0.086
				c0.048-0.088-0.103-0.081-0.056-0.169c-0.068-0.031-0.064,0.019-0.069,0.058c-0.032-0.025-0.03-0.067-0.094-0.077
				c0.091-0.083-0.244-0.345-0.401-0.468c-0.109,0.008,0.106,0.059,0.059,0.118c-0.183-0.246-0.39-0.481-0.652-0.69
				c-0.044-0.004-0.03,0.056-0.038,0.091c-0.151-0.033-0.082-0.143-0.024-0.16c-0.072-0.111-0.1,0.047-0.228-0.037
				c-0.047-0.113,0.14,0.03,0.134-0.04c-0.134-0.139-0.16-0.331-0.404-0.417c0.072-0.108-0.04-0.145-0.085-0.253
				c-0.09-0.046-0.086,0.013-0.163-0.019c-0.026-0.143-0.142-0.242-0.244-0.348c-0.087,0.005,0.038,0.109,0.058,0.144
				c-0.134-0.039-0.202-0.19-0.213-0.314c-0.099-0.047-0.066,0.052-0.165,0.005c-0.013,0.074,0.098,0.126,0.024,0.16
				c-0.201-0.212-0.284-0.376-0.361-0.61c-0.137-0.071-0.046,0.109-0.167,0.056c-0.155-0.186-0.299-0.378-0.563-0.513
				c0.029-0.143-0.121-0.162-0.186-0.204c0.004-0.05,0.09-0.008,0.07-0.083c-0.232-0.079-0.328-0.474-0.502-0.419
				c-0.173-0.221-0.544-0.47-0.587-0.672c-0.193-0.062-0.188-0.22-0.412-0.267c0.029-0.12-0.123-0.153-0.083-0.278
				c-0.09-0.046-0.086,0.013-0.163-0.019c-0.364-0.396-0.683-0.814-1.151-1.159c0.035-0.031,0.036-0.093,0.1-0.023
				c-0.359-0.3-0.705-0.607-0.932-0.971c-0.029-0.1-0.226-0.12-0.284-0.206c0.01-0.025,0.066,0.001,0.068-0.032
				c-0.127-0.085-0.287-0.195-0.341-0.374c-0.064-0.018-0.129-0.036-0.194-0.053c-0.223-0.39-0.601-0.707-0.962-1.031
				c0.007-0.019,0.034-0.016,0.035-0.041c-0.619-0.567-1.087-1.207-1.675-1.789c0.024-0.142-0.447-0.511-0.681-0.774
				c-0.127-0.143-0.161-0.284-0.342-0.349c0.002-0.034,0.004-0.067,0.005-0.101c-0.188-0.011-0.153-0.243-0.377-0.308
				c-0.137-0.343-0.655-0.691-0.86-1.079c-0.043-0.012-0.086-0.024-0.129-0.036c-0.274-0.496-0.811-0.867-1.075-1.368
				c-0.278-0.143-0.284-0.418-0.56-0.563c-0.003-0.162-0.224-0.218-0.242-0.373c-0.355-0.286-0.6-0.626-0.834-0.97
				c-0.662-0.694-1.16-1.466-1.819-2.16c0.002-0.034,0.004-0.067,0.006-0.101c-0.01-0.038-0.057-0.018-0.066,0.007
				c-0.274-0.404-0.524-0.675-0.795-1.087c-0.043-0.012-0.086-0.024-0.129-0.036c-0.052-0.076,0.101-0.085-0.057-0.169
				c-0.049-0.002,0.011,0.036-0.004,0.075c-0.063-0.037-0.112-0.12-0.058-0.143c-0.904-1.05-1.89-2.347-2.712-3.411"/>
			<path class="st3" d="M115.944,356.797c0.072,0.055,0.2,0.083,0.187,0.179C116.034,356.933,115.947,356.885,115.944,356.797z"/>
			<path class="st3" d="M111.007,352.221c-0.01,0.025-0.065-0.001-0.067,0.033c0.008,0.037,0.08,0.043,0.128,0.06
				c-0.069,0.098-0.015,0.087-0.042,0.167c-0.127-0.078-0.239-0.162-0.28-0.281c0.183,0.035,0.012-0.054,0.041-0.142
				C110.953,352.068,110.92,352.173,111.007,352.221z"/>
			<path class="st3" d="M122.237,354.576c-0.125-0.046-0.187-0.122-0.252-0.197C122.075,354.345,122.173,354.516,122.237,354.576z"
				/>
			<path class="st3" d="M119.856,353.69c-0.061,0.104-0.354-0.19-0.283-0.231C119.743,353.5,119.694,353.646,119.856,353.69z"/>
			<path class="st3" d="M115.791,352.978c-0.141-0.124-0.208-0.191-0.342-0.349C115.615,352.72,115.74,352.831,115.791,352.978z"/>
			<path class="st3" d="M118.642,356.085c-0.061,0.036-0.164-0.116-0.221-0.163C118.502,355.878,118.597,356.033,118.642,356.085z"
				/>
			<path class="st3" d="M120.098,357.686c-0.117-0.008-0.051-0.124-0.025-0.134C120.136,357.557,120.17,357.696,120.098,357.686z"/>
			<path class="st3" d="M120.12,360.295c-0.102-0.016-0.088-0.088-0.124-0.136C120.011,360.165,120.142,360.179,120.12,360.295z"/>
			<path class="st3" d="M117.474,358.239c-0.118-0.025-0.216-0.134-0.154-0.17C117.399,358.112,117.491,358.149,117.474,358.239z"/>
			<path class="st3" d="M117.107,357.755c-0.082,0.038-0.243-0.094-0.254-0.172C117.006,357.607,117,357.708,117.107,357.755z"/>
			<path class="st3" d="M123.239,359.088c0.145,0.093,0.195,0.232,0.31,0.34C123.44,359.407,123.248,359.236,123.239,359.088z"/>
			<path class="st3" d="M114.498,356.832c-0.113-0.034-0.221-0.151-0.153-0.196C114.448,356.676,114.53,356.727,114.498,356.832z"/>
			<path class="st3" d="M118.866,358.01c-0.105-0.031-0.1-0.115-0.155-0.17C118.788,357.789,118.873,357.94,118.866,358.01z"/>
			<path class="st3" d="M124.012,359.352c-0.064,0.075-0.087-0.069-0.16-0.07C123.906,359.185,123.954,359.313,124.012,359.352z"/>
			<path class="st3" d="M123.757,359.23c-0.033-0.009-0.065-0.018-0.098-0.027c0.003-0.109-0.039-0.057-0.124-0.136
				c0.009-0.034,0.097,0.018,0.1-0.023c0.09,0.051,0.035,0.111,0.159,0.095C123.805,359.195,123.768,359.199,123.757,359.23z"/>
			<path class="st3" d="M123.436,359.091c-0.123-0.022-0.112-0.109-0.155-0.17C123.393,358.948,123.467,358.994,123.436,359.091z"/>
			<path class="st3" d="M119.509,357.651c-0.149-0.089,0.059-0.115,0.045-0.217c0.042,0.028,0.057,0.07,0.059,0.118
				C119.503,357.518,119.615,357.643,119.509,357.651z"/>
			<path class="st3" d="M122.943,358.496c-0.032-0.009-0.065-0.018-0.097-0.027c0.002-0.034,0.004-0.068,0.005-0.101
				C122.897,358.403,122.975,358.423,122.943,358.496z"/>
			<path class="st3" d="M119.327,357.371c0.093,0.021,0.177,0.046,0.158,0.12c-0.096-0.036-0.157-0.087-0.189-0.154
				c-0.065-0.025,0.003,0.075,0.028,0.084c-0.11,0.011-0.194-0.2-0.246-0.298c-0.154,0.016,0.004-0.053-0.194-0.053
				c-0.065-0.192,0.082-0.22-0.044-0.395c0.104,0.038,0.214,0.154,0.12,0.212c0.215-0.012,0.173,0.197,0.346,0.274
				C119.216,357.208,119.33,357.294,119.327,357.371z"/>
			<path class="st3" d="M115.669,356.44c-0.061-0.048-0.172-0.135-0.089-0.178C115.665,356.298,115.736,356.405,115.669,356.44z"/>
			<path class="st3" d="M119.812,357.505c-0.057-0.022-0.072-0.064-0.059-0.118c0.043,0.012,0.086,0.024,0.129,0.036
				C119.918,357.515,119.777,357.413,119.812,357.505z"/>
			<path class="st3" d="M124.448,358.579c-0.08-0.091-0.099,0.004-0.195-0.029c0.048-0.096-0.152-0.073-0.122-0.161
				C124.237,358.483,124.462,358.404,124.448,358.579z"/>
			<path class="st3" d="M122.345,358.025c-0.117-0.017-0.095-0.102-0.089-0.178C122.365,357.868,122.304,357.971,122.345,358.025z"
				/>
			<path class="st3" d="M123.457,358.101c-0.026-0.042-0.024-0.112,0.041-0.142c0.135,0.048,0.17,0.276,0.019,0.261
				C123.55,358.154,123.546,358.062,123.457,358.101z"/>
			<path class="st3" d="M118.054,356.026c0.163,0.044,0.167,0.164,0.149,0.296c0.042,0.061,0.165,0.084,0.222,0.138
				c-0.019-0.028-0.037-0.056,0.003-0.05c-0.103-0.073-0.225-0.239-0.147-0.321c0.136,0.033,0.099,0.149,0.152,0.221
				c0.054,0.015,0.108,0.03,0.162,0.044c0.05,0.138,0.29,0.309,0.109,0.413c0.054,0.024,0.062-0.003,0.067-0.032
				c0.138,0.072-0.001,0.134-0.104,0.099c0.016-0.137-0.038-0.026-0.128-0.061c-0.02-0.162-0.248-0.223-0.275-0.382
				c-0.049,0.016-0.083,0.006-0.129-0.036c0.034-0.066,0.031-0.157-0.059-0.118C118.073,356.162,118.181,356.162,118.054,356.026z"
				/>
			<path class="st3" d="M122.194,357.779c-0.032-0.009-0.065-0.018-0.097-0.027c-0.003-0.093,0.066-0.105,0.076-0.183
				c0.106-0.002,0.02,0.088,0.127,0.086c0.007,0.061-0.095,0.002-0.101,0.049C122.197,357.728,122.195,357.754,122.194,357.779z"/>
			<path class="st3" d="M112.72,355.117c-0.098,0.004-0.133-0.144-0.058-0.143C112.772,354.978,112.708,355.066,112.72,355.117z"/>
			<path class="st3" d="M114.675,355.401c0.081,0.061-0.236-0.05-0.156-0.145C114.63,355.275,114.611,355.358,114.675,355.401z"/>
			<path class="st3" d="M123.085,357.693c-0.007,0.028-0.06,0.005-0.099-0.002c0.002-0.033,0.004-0.067,0.006-0.1
				C123.132,357.617,123.03,357.67,123.085,357.693z"/>
			<path class="st3" d="M122.15,357.384c-0.073-0.039-0.164-0.068-0.224-0.113c0.002-0.042,0.005-0.084,0.007-0.125
				c0.064,0.026,0.101,0.023,0.1-0.024C122.077,357.207,122.093,357.305,122.15,357.384z"/>
			<path class="st3" d="M123.06,357.558c-0.14,0.049-0.172-0.161-0.284-0.206c0.059-0.083,0.234,0.206,0.229,0.012
				c0.089,0.006,0.062,0.068,0.127,0.086c-0.053,0.022-0.116,0.032-0.136,0.09C123.016,357.546,123.038,357.552,123.06,357.558z"/>
			<path class="st3" d="M121.739,357.092c-0.113-0.053-0.074-0.193-0.221-0.163C121.605,356.819,121.852,356.976,121.739,357.092z"
				/>
			<path class="st3" d="M121.222,356.95c-0.01-0.064,0.062-0.038,0.039-0.117c-0.055-0.024-0.062,0.003-0.067,0.032
				c-0.071-0.023-0.066-0.083-0.058-0.143c0.068,0.031,0.063-0.019,0.068-0.058c0.044,0.012,0.087,0.024,0.13,0.036
				c-0.012,0.049-0.09,0.025-0.103,0.074c0.004,0.067,0.057-0.019,0.129,0.036C121.314,356.855,121.355,356.999,121.222,356.95z"/>
			<path class="st3" d="M120.707,356.757c-0.15-0.034-0.221-0.106-0.218-0.213C120.603,356.594,120.691,356.658,120.707,356.757z"/>
			<path class="st3" d="M122.681,357.275c-0.099-0.1-0.159-0.14-0.151-0.246c0.03,0.108,0.213,0.143,0.249,0.247
				C122.734,357.262,122.688,357.247,122.681,357.275z"/>
			<path class="st3" d="M118.089,355.984c-0.032-0.009-0.065-0.018-0.096-0.027c0.029-0.08-0.012-0.125-0.124-0.136
				c0.002-0.034,0.004-0.067,0.005-0.101C117.959,355.803,118.072,355.871,118.089,355.984z"/>
			<path class="st3" d="M122.494,357.096c-0.096-0.027-0.106-0.096-0.19-0.129C122.365,356.916,122.517,357.026,122.494,357.096z"/>
			<path class="st3" d="M113.891,354.725c-0.053-0.105-0.212-0.159-0.248-0.273C113.758,354.52,113.973,354.641,113.891,354.725z"/>
			<path class="st3" d="M123.24,357.251c-0.228,0.009-0.389-0.263-0.44-0.351c-0.014,0.073-0.07,0.057-0.162-0.045
				c0.016-0.027,0.044-0.04,0.1-0.023c-0.117-0.096-0.352-0.247-0.31-0.341c0.157,0.091,0.199,0.167,0.384,0.182
				c0.055,0.088,0.164,0.15,0.116,0.287c0.042-0.033,0.069-0.084,0.137-0.09c0.056,0.038,0.097,0.084,0.124,0.136
				c-0.02,0.04-0.022,0.1-0.072,0.108C123.2,357.182,123.118,357.19,123.24,357.251z"/>
			<path class="st3" d="M121.558,356.787c-0.136-0.074-0.117-0.127-0.055-0.194C121.621,356.701,121.452,356.674,121.558,356.787z"
				/>
			<path class="st3" d="M122.538,356.879c0.081,0.018,0.098,0.067,0.159,0.095C122.669,357.06,122.522,356.956,122.538,356.879z"/>
			<path class="st3" d="M117.402,355.361c-0.027,0.086,0.065,0.116,0.055,0.194c-0.1-0.025-0.153-0.074-0.224-0.113
				c-0.006-0.095,0.057-0.116,0.137-0.115c-0.033-0.082-0.059-0.167-0.186-0.204c-0.02-0.075,0.067-0.033,0.07-0.083
				c0.059,0.156,0.157,0.151,0.181,0.305c0.053,0.015,0.108,0.03,0.161,0.045c-0.004,0.043,0.021,0.072,0.061,0.093
				C117.577,355.505,117.496,355.357,117.402,355.361z"/>
			<path class="st3" d="M117.715,355.626c-0.121-0.023-0.188-0.072-0.189-0.154C117.596,355.52,117.703,355.55,117.715,355.626z"/>
			<path class="st3" d="M122.152,356.747c-0.082-0.026-0.124-0.071-0.124-0.136c0.103,0.06,0.029-0.074,0.132-0.015
				C122.202,356.64,122.197,356.727,122.152,356.747z"/>
			<path class="st3" d="M112.612,354.092c-0.091-0.021-0.09-0.087-0.09-0.152C112.577,353.978,112.632,354.018,112.612,354.092z"/>
			<path class="st3" d="M122.382,356.734c-0.085-0.016-0.139-0.048-0.125-0.111c0.058,0.019,0.07-0.012,0.131,0.01
				C122.386,356.667,122.384,356.7,122.382,356.734z"/>
			<path class="st3" d="M119.832,355.929c-0.146-0.036-0.169-0.13-0.218-0.213c0.03-0.011,0.075-0.007,0.131,0.011
				C119.714,355.823,119.858,355.835,119.832,355.929z"/>
			<path class="st3" d="M121.905,356.449c-0.158-0.054-0.116-0.205-0.214-0.289c0.144,0.061,0.135,0.196,0.282,0.256
				C121.963,356.442,121.907,356.416,121.905,356.449z"/>
			<path class="st3" d="M121.071,356.092c0.03-0.03,0.106-0.008,0.164-0.006c-0.002,0.034-0.004,0.067-0.006,0.101
				C121.13,356.178,121.172,356.1,121.071,356.092z"/>
			<path class="st3" d="M122.361,356.523c-0.031,0.066-0.103-0.044-0.161-0.044c0.002-0.042,0.005-0.084,0.007-0.126
				c0.124,0.062,0.12-0.057,0.195,0.028c0.026,0.099-0.141-0.013-0.166,0.031C122.265,356.455,122.343,356.475,122.361,356.523z"/>
			<path class="st3" d="M117.123,355.055c-0.134-0.064-0.017-0.106-0.122-0.162C117.079,354.833,117.155,354.98,117.123,355.055z"/>
			<path class="st3" d="M120.915,355.946c-0.081-0.05-0.107-0.128-0.153-0.195C120.834,355.806,120.94,355.845,120.915,355.946z"/>
			<path class="st3" d="M111.863,353.376c-0.086-0.016-0.08-0.075-0.091-0.127C111.888,353.26,111.929,353.346,111.863,353.376z"/>
			<path class="st3" d="M120.181,355.566c-0.118-0.033-0.142-0.111-0.221-0.163C120.012,355.371,120.198,355.482,120.181,355.566z"
				/>
			<path class="st3" d="M116.409,354.297c0.088,0.072,0.191,0.136,0.25,0.222C116.565,354.616,116.402,354.402,116.409,354.297z"/>
			<path class="st3" d="M122.242,355.7c0.049,0.002-0.011-0.035,0.004-0.076c0.104,0.007,0.121,0.056,0.159,0.095
				c-0.109,0.02-0.009,0.038-0.007,0.125c-0.03,0.012-0.074,0.007-0.131-0.01c0.006,0.038,0.096,0.035,0.094,0.077
				c0.034-0.007,0.037-0.049,0.1-0.023c-0.081,0.133-0.073,0.253-0.303,0.146c0.009-0.034,0.097,0.018,0.099-0.023
				c-0.077-0.085-0.128-0.11-0.256-0.121c-0.012-0.092-0.192-0.104-0.152-0.22c-0.082,0.01-0.13-0.111-0.162-0.045
				c-0.112-0.083,0.059-0.074,0.103-0.074c0.097,0.035,0.111,0.109,0.256,0.122c0.013-0.063-0.124-0.054-0.092-0.127
				c0.072,0.004,0.099,0.1,0.098,0.002C122.125,355.593,122.192,355.642,122.242,355.7z"/>
			<path class="st3" d="M120.741,355.516c-0.187-0.116,0.041-0.172,0.019-0.352c-0.046-0.084-0.188-0.121-0.218-0.213
				c0.127-0.02,0.164,0.179,0.194,0.054c0.109,0.059,0.125,0.19,0.253,0.172c0.016,0.057,0.088,0.107,0.026,0.135
				C120.81,355.176,120.713,355.389,120.741,355.516z"/>
			<path class="st3" d="M111.491,352.967c-0.166-0.103-0.175-0.131-0.417-0.192c0.067-0.106,0.034-0.187,0.115-0.3
				c0.058,0.013,0.067,0.05,0.128,0.061c-0.016,0.062-0.107,0.042-0.075,0.158c0.103,0.051,0.05-0.069,0.102-0.074
				C111.469,352.733,111.486,352.866,111.491,352.967z"/>
			<path class="st3" d="M116.377,354.288c-0.1-0.051-0.134-0.118-0.089-0.178C116.32,354.167,116.363,354.22,116.377,354.288z"/>
			<path class="st3" d="M122.493,355.897c-0.007-0.061,0.095-0.002,0.101-0.049C122.695,355.916,122.546,355.988,122.493,355.897z"
				/>
			<path class="st3" d="M120.587,355.346c-0.053-0.007-0.054-0.039-0.096-0.052c0.004-0.067,0.007-0.134,0.011-0.201
				C120.621,355.151,120.676,355.326,120.587,355.346z"/>
			<path class="st3" d="M116.126,354.065c-0.09-0.006-0.062-0.068-0.127-0.086c0.032-0.066,0.05-0.015,0.131,0.01
				C116.129,354.016,116.127,354.04,116.126,354.065z"/>
			<path class="st3" d="M118.588,354.668c-0.094-0.031-0.187-0.215-0.024-0.16C118.536,354.578,118.616,354.597,118.588,354.668z"/>
			<path class="st3" d="M121.63,355.48c-0.001-0.075,0.135-0.041,0.164-0.006C121.786,355.528,121.71,355.506,121.63,355.48z"/>
			<path class="st3" d="M116.165,353.949c-0.087-0.039-0.123-0.104-0.121-0.186c0.039,0.022,0.065,0.05,0.061,0.094
				c0.027,0.012,0.031-0.002,0.034-0.016C116.182,353.859,116.162,353.909,116.165,353.949z"/>
			<path class="st3" d="M116.66,353.906c-0.112-0.028-0.045-0.142-0.155-0.17C116.582,353.685,116.675,353.832,116.66,353.906z"/>
			<path class="st3" d="M123.325,355.692c-0.129-0.096-0.067-0.102-0.155-0.17c0.03-0.029,0.053-0.066,0.133-0.04
				c-0.066,0.005-0.015,0.125,0.03,0.059C123.372,355.592,123.357,355.643,123.325,355.692z"/>
			<path class="st3" d="M110.315,351.648c-0.046-0.043-0.143-0.062-0.124-0.136C110.294,351.528,110.335,351.573,110.315,351.648z"
				/>
			<path class="st3" d="M117.695,353.579c-0.085-0.016-0.138-0.047-0.125-0.111C117.655,353.485,117.709,353.516,117.695,353.579z"
				/>
			<path class="st3" d="M114.72,352.76c-0.125-0.015-0.118-0.155,0.005-0.101C114.777,352.724,114.721,352.69,114.72,352.76z"/>
			<path class="st3" d="M117.124,353.218c-0.065-0.075-0.022-0.201-0.184-0.229c0.113-0.029,0.286,0.123,0.283,0.231
				C117.173,353.262,117.145,353.166,117.124,353.218z"/>
			<path class="st3" d="M109.536,350.897c-0.13-0.044-0.173-0.129-0.218-0.213C109.425,350.656,109.515,350.806,109.536,350.897z"/>
			<path class="st3" d="M121.894,354.251c-0.049,0.053-0.167-0.064-0.225-0.087C121.709,354.115,121.89,354.202,121.894,354.251z"/>
			<path class="st3" d="M119.414,353.364c-0.092-0.004-0.082-0.058-0.16-0.07c0.062-0.119-0.091-0.136-0.086-0.228
				c0.106,0.031,0.119,0.106,0.256,0.121C119.4,353.283,119.402,353.259,119.414,353.364z"/>
			<path class="st3" d="M114.892,352.016c-0.059-0.091-0.163-0.066-0.224-0.113c-0.017-0.099,0.057-0.097,0.168-0.056
				C114.815,351.922,114.931,351.932,114.892,352.016z"/>
			<path class="st3" d="M120.505,353.231c-0.081-0.051-0.088-0.137-0.086-0.228C120.539,353.035,120.506,353.14,120.505,353.231z"/>
			<path class="st3" d="M117.661,352.396c-0.085-0.016-0.139-0.047-0.125-0.111C117.621,352.302,117.675,352.333,117.661,352.396z"
				/>
			<path class="st3" d="M118.795,352.683c-0.123-0.031-0.149-0.108-0.153-0.196C118.704,352.547,118.788,352.597,118.795,352.683z"
				/>
			<path class="st3" d="M117.896,352.308c-0.083-0.022-0.038-0.03-0.029-0.059c-0.105-0.133-0.251-0.215-0.179-0.33
				c0.109,0.078,0.098,0.214,0.248,0.273C117.943,352.252,117.925,352.286,117.896,352.308z"/>
			<path class="st3" d="M115.571,351.591c-0.09-0.079-0.176-0.16-0.182-0.28C115.477,351.391,115.571,351.469,115.571,351.591z"/>
			<path class="st3" d="M120.039,352.745c-0.072-0.047-0.113-0.109-0.121-0.187c0.065,0.026,0.102,0.022,0.1-0.023
				c0.133,0.025,0.166,0.099,0.221,0.163c-0.073,0.065-0.09-0.101-0.191-0.104C119.955,352.595,120.05,352.704,120.039,352.745z"/>
			<path class="st3" d="M118.143,351.993c-0.102-0.016-0.082-0.091-0.158-0.12C118.017,351.828,118.165,351.931,118.143,351.993z"/>
			<path class="st3" d="M118.274,352.004c0.024,0.089-0.108,0.005-0.103,0.074C118.086,352.024,118.176,351.943,118.274,352.004z"/>
			<path class="st3" d="M117.364,351.83c0.014-0.102-0.033-0.112-0.126-0.111c0.008-0.093,0.041-0.061,0.008-0.151
				c0.056,0.038,0.079,0.093,0.192,0.104c0.015,0.057,0.076,0.093,0.056,0.168C117.465,351.852,117.42,351.847,117.364,351.83z"/>
			<path class="st3" d="M112.642,350.528c-0.028-0.003-0.03-0.018-0.031-0.034c-0.021-0.006-0.043-0.012-0.065-0.018
				c0.076-0.034-0.022-0.093,0.01-0.176C112.669,350.353,112.695,350.462,112.642,350.528z"/>
			<path class="st3" d="M108.021,349.178c0.069-0.032,0.063,0.029,0.128,0.061C108.139,349.311,107.992,349.257,108.021,349.178z"/>
			<path class="st3" d="M120.182,352.53c-0.087-0.031-0.151-0.074-0.19-0.129C120.007,352.372,120.234,352.445,120.182,352.53z"/>
			<path class="st3" d="M113.655,350.604c-0.104-0.048-0.166-0.116-0.186-0.205C113.573,350.447,113.635,350.515,113.655,350.604z"
				/>
			<path class="st3" d="M119.515,352.116c-0.098,0.007-0.166-0.02-0.225-0.088c0.031-0.087,0.113,0.03,0.165-0.005
				c-0.004-0.132-0.108-0.089-0.188-0.154c-0.005-0.045,0.058-0.05,0.004-0.076C119.406,351.778,119.528,351.979,119.515,352.116z"
				/>
			<path class="st3" d="M114.409,350.633c-0.012-0.084-0.096-0.134-0.086-0.228c0.159,0.029,0.127,0.151,0.218,0.213
				C114.531,350.66,114.482,350.66,114.409,350.633z"/>
			<path class="st3" d="M117.105,351.171c0.075,0.013,0.124,0.038,0.16,0.069C117.258,351.315,117.068,351.255,117.105,351.171z"/>
			<path class="st3" d="M119.145,351.682c-0.076-0.013-0.124-0.038-0.161-0.07c0.018-0.016,0.036-0.032,0.037-0.067
				C119.103,351.572,119.144,351.617,119.145,351.682z"/>
			<path class="st3" d="M117.01,351.094c-0.11-0.021-0.048-0.124-0.089-0.178C116.988,350.958,117.016,351.018,117.01,351.094z"/>
			<path class="st3" d="M116.341,350.731c-0.03,0.011-0.075,0.007-0.131-0.011c0.073-0.079-0.046-0.054-0.024-0.16
				C116.301,350.587,116.353,350.643,116.341,350.731z"/>
			<path class="st3" d="M116.341,350.731c0.162,0.019,0.086,0.154,0.219,0.188C116.473,350.959,116.296,350.835,116.341,350.731z"/>
			<path class="st3" d="M118.759,351.525c-0.086-0.024-0.204-0.033-0.158-0.12C118.656,351.444,118.775,351.452,118.759,351.525z"/>
			<path class="st3" d="M116.727,350.863c-0.028-0.052-0.118-0.074-0.091-0.152C116.742,350.732,116.806,350.826,116.727,350.863z"
				/>
			<path class="st3" d="M116.422,350.447c-0.011-0.056,0.026-0.06,0.038-0.091c0.122,0.043,0.23,0.059,0.286,0.181
				c-0.026,0.038-0.059-0.013-0.097-0.027c0.016,0.058,0.077,0.094,0.057,0.169c-0.068-0.004-0.108,0.043-0.163-0.019
				c0.083-0.055,0.053-0.095,0.045-0.217C116.524,350.435,116.523,350.497,116.422,350.447z"/>
			<path class="st3" d="M116.444,350.632c-0.127-0.102-0.239-0.211-0.276-0.357C116.328,350.366,116.59,350.541,116.444,350.632z"/>
			<path class="st3" d="M118.194,351.063c-0.113-0.051-0.033-0.098,0.007-0.126C118.276,350.965,118.213,351.053,118.194,351.063z"
				/>
			<path class="st3" d="M118.684,351.096c-0.093-0.085-0.21-0.16-0.214-0.289c0.111,0.012,0.048,0.107,0.124,0.136
				c0.085,0.032-0.023-0.149,0.103-0.074C118.621,350.961,118.738,351.039,118.684,351.096z"/>
			<path class="st3" d="M115.52,350.122c0.062-0.092,0.326-0.047,0.322,0.114C115.659,350.116,115.634,350.142,115.52,350.122z"/>
			<path class="st3" d="M116.137,350.241c-0.007,0.028-0.06,0.005-0.099-0.002c0.003-0.042,0.005-0.084,0.007-0.126
				C116.175,350.109,116.051,350.226,116.137,350.241z"/>
			<path class="st3" d="M117.467,350.531c-0.053-0.007-0.055-0.039-0.096-0.052c0.016-0.044,0.018-0.105,0.103-0.074
				C117.472,350.447,117.47,350.489,117.467,350.531z"/>
			<path class="st3" d="M117.956,350.615c0.013-0.084,0.073-0.115,0.169-0.106C118.175,350.576,118.089,350.666,117.956,350.615z"/>
			<path class="st3" d="M116.118,350.006c0.051-0.025,0.224,0.016,0.191,0.104C116.189,350.06,116.115,350.127,116.118,350.006z"/>
			<path class="st3" d="M118.029,350.456c-0.127-0.038-0.093-0.136-0.224-0.113c0.064-0.107-0.021-0.091-0.055-0.194
				c0.028,0.028,0.071,0.047,0.128,0.061C117.877,350.318,118.026,350.352,118.029,350.456z"/>
			<path class="st3" d="M117.686,350.132c-0.17,0.008-0.195-0.265-0.41-0.317C117.448,349.715,117.588,350.036,117.686,350.132z"/>
			<path class="st3" d="M117.428,350.061c-0.068-0.008-0.085-0.041-0.128-0.061c-0.019-0.075,0.067-0.033,0.07-0.082
				C117.469,349.978,117.384,349.974,117.428,350.061z"/>
			<path class="st3" d="M116.809,349.355c-0.063-0.035-0.083-0.091-0.09-0.153c0.101,0.009,0.059,0.087,0.159,0.095
				C116.865,349.327,116.819,349.321,116.809,349.355z"/>
			<path class="st3" d="M114.592,348.463c-0.094,0.111-0.175-0.1-0.221-0.163C114.44,348.261,114.473,348.446,114.592,348.463z"/>
			<path class="st3" d="M111,347.524c-0.096-0.029-0.079-0.174,0.039-0.117C111.062,347.486,110.99,347.46,111,347.524z"/>
			<path class="st3" d="M114.668,348.28c0.067,0.033-0.051,0.082-0.04,0.142c-0.061-0.028-0.139-0.047-0.125-0.111
				C114.553,348.295,114.636,348.316,114.668,348.28z"/>
			<path class="st3" d="M114.536,348.295c-0.107-0.038-0.055-0.172,0.071-0.108C114.631,348.275,114.574,348.275,114.536,348.295z"
				/>
			<path class="st3" d="M116.027,348.654c-0.076-0.085-0.161-0.167-0.182-0.28c0.126,0.013,0.047,0.124,0.19,0.129
				C116.032,348.554,116.03,348.604,116.027,348.654z"/>
			<path class="st3" d="M114.835,348.249c-0.032-0.009-0.065-0.018-0.097-0.027c0.002-0.033,0.004-0.067,0.005-0.1
				C114.789,348.157,114.867,348.176,114.835,348.249z"/>
			<path class="st3" d="M113.904,347.84c0.097,0.089,0.228,0.009,0.222,0.138C114.057,348.004,113.928,347.911,113.904,347.84z"/>
			<path class="st3" d="M110.472,346.971c-0.06-0.02-0.107-0.046-0.127-0.086c-0.024-0.089,0.109-0.005,0.103-0.074
				c-0.044-0.096-0.082,0.03-0.163-0.019c0.031-0.064-0.042-0.078-0.025-0.135c0.113,0.011,0.135,0.066,0.191,0.104
				c0.028-0.119-0.169-0.131-0.151-0.246c-0.115-0.053-0.159,0.014-0.226-0.062c0.032-0.065,0.05-0.015,0.131,0.01
				c0.031-0.113-0.214-0.093-0.152-0.221c0.292,0.203,0.49,0.45,0.684,0.699c-0.057-0.03-0.134-0.05-0.159-0.095
				C110.506,346.849,110.519,346.942,110.472,346.971z"/>
			<path class="st3" d="M114.259,347.963c0.006-0.076-0.063-0.117-0.089-0.178c-0.059,0.007-0.047,0.09-0.166,0.031
				c-0.065-0.114,0.046-0.081,0.074-0.158c0.125,0.054,0.118,0.171,0.284,0.206C114.365,347.938,114.36,348.002,114.259,347.963z"/>
			<path class="st3" d="M115.715,348.339c-0.11-0.028-0.09-0.119-0.087-0.203C115.734,348.167,115.691,348.269,115.715,348.339z"/>
			<path class="st3" d="M113.193,347.644c-0.032-0.009-0.065-0.018-0.097-0.027c0.002-0.033,0.004-0.067,0.005-0.101
				C113.187,347.532,113.206,347.581,113.193,347.644z"/>
			<path class="st3" d="M115.345,347.905c0.106,0.072,0.194,0.151,0.249,0.247C115.476,348.172,115.384,348.002,115.345,347.905z"/>
			<path class="st3" d="M114.496,347.824c-0.103,0.001-0.077-0.061-0.126-0.086C114.386,347.687,114.561,347.757,114.496,347.824z"
				/>
			<path class="st3" d="M115.313,347.896c-0.1-0.023-0.141-0.129-0.09-0.153C115.279,347.783,115.333,347.822,115.313,347.896z"/>
			<path class="st3" d="M114.498,347.187c-0.086-0.016-0.104-0.064-0.091-0.128C114.492,347.075,114.511,347.124,114.498,347.187z"
				/>
			<path class="st3" d="M111.598,344.984c-0.144,0.029-0.099,0.08-0.108,0.175c-0.156-0.066-0.094-0.169-0.256-0.122
				c-0.006-0.069,0.071-0.046,0.133-0.04c-0.105-0.143-0.259-0.312-0.304-0.441C111.283,344.686,111.309,344.96,111.598,344.984z"/>
			<path class="st3" d="M120.059,362.013c-0.095-0.036-0.068-0.13-0.121-0.187C119.997,361.88,120.078,361.923,120.059,362.013z"/>
			<path class="st3" d="M117.676,358.754c0.011,0.056-0.026,0.061-0.038,0.091c-0.044-0.02-0.023-0.07-0.027-0.109
				c-0.026,0.006-0.054,0.012-0.098-0.001C117.54,358.662,117.601,358.725,117.676,358.754z"/>
			<path class="st3" d="M122.493,360.132c0.043,0.08-0.109-0.102-0.194-0.053c0.012-0.049,0.069-0.049,0.103-0.074
				C122.521,360.055,122.372,360.082,122.493,360.132z"/>
			<path class="st3" d="M120.459,359.495c0.003,0.056-0.031,0.073-0.101,0.048c0.044-0.021,0.024-0.07-0.027-0.109
				C120.344,359.378,120.416,359.487,120.459,359.495z"/>
			<path class="st3" d="M121.049,359.505c0.034-0.007,0.037-0.049,0.1-0.023c0.007,0.061-0.01,0.095-0.039,0.117
				c-0.061-0.02-0.018-0.089-0.093-0.102C121.025,359.469,121.05,359.491,121.049,359.505z"/>
			<path class="st3" d="M116.427,358.18c-0.133-0.025,0.004-0.063,0.006-0.101c-0.004-0.067-0.058,0.019-0.13-0.035
				c0.016-0.138-0.089-0.218-0.214-0.289c0.019-0.032,0.051-0.05,0.07-0.082c0.015,0.1,0.141,0.267,0.308,0.365
				C116.425,358.113,116.484,358.152,116.427,358.18z"/>
			<path class="st3" d="M121.609,359.48c-0.164-0.219-0.315-0.345-0.394-0.593c0.056,0.01,0.081,0.066,0.097,0.027
				c0.099,0.06,0.014,0.057,0.058,0.143c0.074-0.054,0.249,0.249,0.255,0.147C121.727,359.217,121.663,359.407,121.609,359.48z"/>
			<path class="st3" d="M115.05,357.546c-0.113-0.02-0.283-0.223-0.342-0.35C114.818,357.315,114.94,357.427,115.05,357.546z"/>
			<path class="st3" d="M121.206,359.038c-0.038-0.071-0.137-0.113-0.12-0.211C121.221,358.851,121.166,358.967,121.206,359.038z"/>
			<path class="st3" d="M116.145,357.337c0.015,0.061-0.064,0.019-0.069,0.058c-0.066-0.025-0.061-0.085-0.092-0.127
				C116.007,357.212,116.03,357.355,116.145,357.337z"/>
			<path class="st3" d="M124.026,359.1c0.002-0.024,0.04-0.009,0.066-0.007c0.016-0.057-0.056-0.071-0.025-0.135
				c0.086,0.057,0.18,0.109,0.152,0.22C124.121,359.131,124.145,359.087,124.026,359.1z"/>
			<path class="st3" d="M121.314,357.664c-0.033-0.11-0.105-0.058-0.188-0.154c0.043-0.078,0.052-0.07,0.073-0.133
				C121.221,357.474,121.357,357.612,121.314,357.664z"/>
			<path class="st3" d="M114.142,355.534c0.09,0.002-0.052-0.104,0.039-0.117c0.086,0.016,0.02,0.105,0.125,0.111
				c-0.084,0.018-0.034,0.126-0.202,0.098c-0.007-0.062-0.027-0.118-0.09-0.153C114.026,355.417,114.099,355.526,114.142,355.534z"
				/>
			<path class="st3" d="M113.796,355.26c-0.127-0.053-0.072-0.194-0.25-0.222c0.014-0.085,0.087,0.026,0.1-0.024
				C113.693,355.098,113.769,355.167,113.796,355.26z"/>
			<path class="st3" d="M113.555,354.863c0.058,0.019,0.07-0.012,0.13,0.01c0.044,0.118,0.146,0.207,0.28,0.281
				c-0.157,0.05-0.193-0.168-0.384-0.182c0.035-0.099-0.072-0.129-0.189-0.154c-0.065-0.113-0.024-0.132-0.052-0.244
				c0.047,0.026,0.079,0.06,0.126,0.086c0.015,0.061-0.064,0.019-0.069,0.058c0.005,0.022,0.031,0.034,0.029,0.059
				c0.052,0.003,0.032-0.072,0.132-0.015C113.596,354.81,113.594,354.836,113.555,354.863z"/>
			<path class="st3" d="M124.33,356.53c-0.008,0.027-0.033,0.005-0.032-0.009c-0.046-0.015-0.091-0.03-0.098-0.002
				c-0.044-0.02-0.023-0.07-0.027-0.109C124.239,356.444,124.274,356.492,124.33,356.53z"/>
			<path class="st3" d="M122.373,355.098c-0.018,0.049-0.332-0.161-0.313-0.29c0.038,0.018,0.074,0.155,0.127,0.086
				C122.289,354.942,122.223,355.072,122.373,355.098z"/>
			<path class="st3" d="M121.33,354.352c-0.095-0.056-0.25-0.03-0.253-0.172c0.152-0.044,0.192,0.178,0.323,0.089
				C121.436,354.361,121.294,354.259,121.33,354.352z"/>
			<path class="st3" d="M115.768,352.206c-0.036,0.068-0.085-0.053-0.128-0.061c-0.005-0.045,0.059-0.05,0.004-0.075
				c-0.005-0.023,0.014-0.02,0.034-0.016c0.021,0.006,0.043,0.012,0.065,0.018c-0.042-0.007-0.05,0.142-0.004,0.075
				C115.788,352.17,115.707,352.183,115.768,352.206z"/>
			<path class="st3" d="M119.429,352.5c-0.063,0.029-0.177-0.126-0.254-0.172c-0.083,0.067-0.28-0.038-0.357-0.073
				c0.099-0.041,0.239-0.039,0.364-0.053c-0.159,0.094,0.124,0.096,0.218,0.213C119.362,352.443,119.362,352.468,119.429,352.5z"/>
			<path class="st3" d="M118.597,352.093c-0.09,0.01-0.213-0.174-0.315-0.24c0.015-0.081,0.137,0.105,0.163,0.019
				C118.451,351.913,118.474,352.04,118.597,352.093z"/>
			<path class="st3" d="M119.022,352.133c0.019,0.089-0.067,0.021-0.065-0.018c-0.055-0.016-0.085-0.004-0.1,0.023
				c-0.042-0.021-0.049-0.058-0.095-0.077c0.057,0.018,0.191-0.012,0.004-0.075c0.012-0.032,0.082,0.001,0.131,0.01
				C118.898,352.062,118.94,352.108,119.022,352.133z"/>
			<path class="st3" d="M118.147,351.305c0.042,0.021,0.048,0.059,0.094,0.077c0.019,0.084-0.091,0.024-0.072,0.108
				C118.126,351.432,118.167,351.411,118.147,351.305z"/>
			<path class="st3" d="M115.882,349.507c0.061,0.035-0.037,0.03-0.032-0.009c-0.044,0.005-0.063,0.037-0.07,0.083
				c-0.071-0.046-0.016-0.175,0.073-0.133C115.845,349.476,115.857,349.495,115.882,349.507z"/>
			<path class="st3" d="M111.995,348.539c-0.037-0.015-0.017-0.03,0.001-0.025c0.01-0.078-0.18-0.061-0.122-0.161
				c0.136,0.016,0.124,0.104,0.189,0.154C112.053,348.531,111.997,348.505,111.995,348.539z"/>
			<path d="M107.289,349.682c0,0,3.194,3.312,4.243,4.343l0.137-0.368l-4.496-4.338L107.289,349.682z"/>
		</g>
		<path class="st3" d="M111.532,354.024c0,0-4.466-4.121-13.42-14.491l1.769-0.77"/>
	</g>
</g>
</svg>