<!-- Generator: Adobe Illustrator 19.0.1, SVG Export Plug-In  -->
<svg version="1.1"
	 xmlns="http://www.w3.org/2000/svg" xmlns:xlink="http://www.w3.org/1999/xlink" xmlns:a="http://ns.adobe.com/AdobeSVGViewerExtensions/3.0/"
	 x="0px" y="0px" width="397.08px" height="392.324px" viewBox="0 0 397.08 392.324"
	 style="enable-background:new 0 0 397.08 392.324;" xml:space="preserve">
<style type="text/css">
	.st0{fill-rule:evenodd;clip-rule:evenodd;}
	.st1{fill:none;stroke:#000000;stroke-width:10;stroke-miterlimit:10;}
	.st2{fill:none;}
	.st3{fill:#FFFFFF;}
</style>
<defs>
</defs>
<g>
	<path class="st0" d="M168.959,47.912l-98.753,53.835l-8.53,59.808l-2.806-1.403l-3.144,6.288l4.545,2.273l-38.495,50.995
		l139.331,76.647l30.859-62.38l4.917,2.708l3.099-5.654l-11.636-5.929l-22.564-56.354l116.447-79.348l7.916,11.617l-107.046,72.942
		l21.287,52.057l2.75,6.724l0.007,0.017v148.566l-12.179,11.003L45.551,303.297v-54.474L0,223.757l47.565-61.849l9.932-69.534
		l83.692-45.063c13.443-7.129,27.002-14.076,27.002-14.076l-2.626,2.097l-5.13,3.396l1.458,0.754"/>
	<path d="M179.293,86.036c0,0,13.959-50.71,43.833-86.036L397.08,68.76c-43.955,67.899-53.874,172.101-82.789,215.154V150.409
		L185.458,89.398"/>
	<polygon points="54.398,169.978 50.762,163.963 179.293,86.036 187.112,89.77 	"/>
	<path class="st1" d="M52.58,299.455"/>
	<polygon class="st2" points="21.776,219.707 161.107,296.355 191.737,234.463 60.271,168.712 	"/>
	<polygon class="st2" points="59.609,256.559 59.609,294.997 193.084,375.232 193.084,263.434 167.189,315.758 	"/>
	<polygon points="316.943,148.398 314.894,141.528 204.008,226.35 206.841,232.975 	"/>
	<polygon class="st2" points="60.271,168.712 21.776,219.707 161.107,296.355 191.737,234.463 190.086,233.638 	"/>
	<polygon class="st2" points="59.609,256.559 59.609,294.997 193.084,375.232 193.084,263.434 167.189,315.758 	"/>
	<polygon class="st2" points="59.609,256.559 59.609,294.997 193.084,375.232 193.084,263.434 167.189,315.758 	"/>
	<polygon class="st2" points="60.271,168.712 21.776,219.707 161.107,296.355 191.737,234.463 190.086,233.638 	"/>
	<path class="st3" d="M193.084,375.232L59.609,294.997v-38.438l107.58,59.199l25.896-52.324V375.232z"/>
	<polygon points="55.727,166.439 60.271,168.712 190.086,233.638 191.737,234.463 196.968,237.079 200.112,230.792 188.256,224.862 
		61.676,161.555 58.87,160.152 	"/>
	<path d="M239.915,242.978v4.774c0,3.479,3.996,5.44,6.748,3.312l35.007-27.075c4.11-3.179,6.516-5.546,6.516-10.741v-6.054
		c0-3.487-4.013-5.446-6.762-3.301l-35.05,27.35C242.298,234.423,239.915,237.807,239.915,242.978z"/>
	<path class="st3" d="M192.715,264.181c0,0,0.342-0.541,0.431-1.275c0,0-0.062,0.694-0.062,1.109"/>
	<path class="st3" d="M187.122,224.295l1.223,0.612c0,0-0.161-0.254-0.555-1.207"/>
	<g>
		<path class="st0" d="M179.831,28.992c-0.053-0.02-0.107-0.041-0.161-0.061c0.034,0.119-0.057,0.076-0.04,0.173
			C179.774,29.167,179.841,29.13,179.831,28.992z"/>
		<path class="st0" d="M179.509,29.096c-0.075,0.045-0.148-0.044-0.242-0.091c0.035,0.106,0.122,0.184,0.243,0.242
			C179.509,29.196,179.509,29.146,179.509,29.096z"/>
		<path class="st0" d="M178.582,29.308c-0.038,0.007-0.061,0.082-0.081,0.007c-0.088-0.039-0.018,0.127-0.039,0.173
			c-0.109-0.082-0.207-0.086-0.323-0.084c0.166,0.212,0.016,0.271-0.039,0.398c0.066-0.027,0.099-0.095,0.242-0.021
			c-0.114-0.145-0.032-0.106-0.001-0.226c0.033,0.033,0.066,0.065,0.122,0.083c0.005-0.094,0.058-0.124,0.161-0.089
			C178.628,29.46,178.628,29.371,178.582,29.308z"/>
		<path class="st0" d="M176.445,29.666c-0.121-0.048-0.204,0.033-0.12,0.143C176.372,29.77,176.441,29.76,176.445,29.666z"/>
		<path class="st0" d="M181.539,31.818c-0.077,0.023-0.247-0.073-0.201,0.112C181.431,31.927,181.525,31.925,181.539,31.818z"/>
		<path class="st0" d="M178.107,31.271c-0.124,0.002-0.02,0.115-0.08,0.233c0.033-0.008,0.066-0.014,0.122,0.009
			C178.043,31.321,178.254,31.405,178.107,31.271z"/>
		<path class="st0" d="M181.139,32.568c0.042,0.1,0.186,0.021,0.323,0.123C181.431,32.539,181.235,32.584,181.139,32.568z"/>
		<path class="st0" d="M180.292,32.774c-0.059,0.048-0.161,0.038-0.161,0.165c0.112-0.004,0.189-0.053,0.322-0.028
			C180.483,32.82,180.264,32.866,180.292,32.774z"/>
		<path class="st0" d="M175.726,31.085c-0.101-0.177-0.14,0.038-0.202,0.036C175.602,31.268,175.668,31.088,175.726,31.085z"/>
		<path class="st0" d="M176.011,31.719c0.125,0.076,0.048-0.111,0.202,0.001c-0.018-0.091-0.072-0.161-0.163-0.212
			C176.096,31.671,175.908,31.588,176.011,31.719z"/>
		<path class="st0" d="M173.667,30.832c-0.122-0.021-0.233-0.029-0.241,0.098C173.512,30.905,173.623,30.912,173.667,30.832z"/>
		<path class="st0" d="M181.952,34.004c-0.114-0.074-0.104,0.014-0.202-0.039c-0.018,0.111,0.087,0.153,0.203,0.19
			C181.952,34.104,181.952,34.054,181.952,34.004z"/>
		<path class="st0" d="M180.902,33.644c-0.14-0.082-0.17-0.022-0.242-0.016C180.698,33.722,180.954,33.79,180.902,33.644z"/>
		<path class="st0" d="M181.469,34.159c-0.035-0.02-0.038,0-0.041,0.022c-0.264-0.044-0.323,0.177-0.564,0.163
			c-0.021,0.138,0.104,0.194,0.123,0.309c0.151,0.028,0.002-0.13,0.08-0.157c0.128,0.027,0.125,0.118,0.202,0.076
			c-0.108-0.146,0.037-0.171,0.039-0.286c0.124,0.074,0.147,0.017,0.242,0.054C181.6,34.237,181.419,34.262,181.469,34.159z"/>
		<path class="st0" d="M174.883,32.044c0.067,0.009-0.003,0.139-0.04,0.136c0.064,0.161,0.06-0.065,0.161,0.023
			c0.034-0.107-0.064-0.14-0.082-0.219c-0.094-0.023-0.167-0.018-0.242-0.016C174.691,32.083,174.831,32.076,174.883,32.044z"/>
		<path class="st0" d="M174.682,32.231c-0.12-0.167-0.198,0.039-0.322-0.009C174.44,32.427,174.624,32.286,174.682,32.231z"/>
		<path class="st0" d="M173.796,32.497c0.066,0.087,0.254,0.141,0.242,0.017C173.976,32.433,173.761,32.342,173.796,32.497z"/>
		<path class="st0" d="M182.606,35.792c-0.145-0.066-0.306,0.147-0.079,0.233C182.477,35.848,182.591,35.884,182.606,35.792z"/>
		<path class="st0" d="M179.899,34.881c-0.124-0.134-0.31-0.031-0.282,0.156c0.069,0.013,0.077,0.059,0.081,0.106
			C179.888,35.216,179.743,34.853,179.899,34.881z"/>
		<path class="st0" d="M173.352,32.63c-0.036,0.01-0.072,0.018-0.081-0.031c-0.035,0.191-0.29,0.095-0.321,0.292
			C173.126,32.77,173.454,33.025,173.352,32.63z"/>
		<path class="st0" d="M181.64,36.178c-0.136-0.09-0.062,0.093-0.08,0.158c0.032-0.008,0.065-0.015,0.121,0.008
			C181.649,36.298,181.637,36.242,181.64,36.178z"/>
		<path class="st0" d="M172.91,32.914c-0.027-0.123-0.086,0.004-0.161-0.061c0.163,0.14-0.061,0.05-0.039,0.21
			c0.154,0.114,0.007-0.165,0.161-0.051C172.866,32.957,172.863,32.902,172.91,32.914z"/>
		<path class="st0" d="M172.628,32.995c-0.162,0.03-0.35-0.161-0.363,0.013c0.193,0.019,0.102,0.195,0.284,0.22
			C172.408,33.041,172.64,33.127,172.628,32.995z"/>
		<path class="st0" d="M182.452,37.349c-0.117,0.023-0.186,0.177,0.001,0.263C182.465,37.487,182.514,37.493,182.452,37.349z"/>
		<path class="st0" d="M171.944,33.375c-0.172-0.075-0.175,0.071-0.282,0.081c-0.088-0.039-0.087-0.128-0.081-0.219
			c-0.196,0.007,0.016,0.267-0.2,0.338c0.128,0.09,0.091,0.037,0.242,0.091c0.011-0.149-0.056-0.014-0.162-0.098
			C171.599,33.475,171.876,33.561,171.944,33.375z"/>
		<path class="st0" d="M176.797,35.887c-0.146-0.028-0.157,0.144-0.12,0.256C176.776,36.108,176.874,36.05,176.797,35.887z"/>
		<path class="st0" d="M179.546,37.04c-0.08,0.032-0.051-0.023-0.161-0.061c0.013,0.081,0.082,0.131,0.122,0.196
			C179.561,37.184,179.539,37.093,179.546,37.04z"/>
		<path class="st0" d="M177.451,37.751c-0.105,0.025-0.204,0.058-0.2,0.225C177.296,37.88,177.536,37.898,177.451,37.751z"/>
		<path class="st0" d="M181.094,40.143c-0.101-0.044-0.125,0.012-0.202-0.001c-0.029,0.091,0.19,0.045,0.161,0.136
			C181.108,40.287,181.087,40.197,181.094,40.143z"/>
		<path class="st0" d="M183.235,40.991c-0.131-0.021-0.164,0.085-0.16,0.24C183.133,41.161,183.308,41.113,183.235,40.991z"/>
		<path class="st0" d="M174.75,38.12c-0.054-0.021-0.108-0.041-0.161-0.061c0.024,0.043,0.049,0.086,0,0.075
			C174.614,38.235,174.793,38.231,174.75,38.12z"/>
		<path class="st0" d="M181.057,40.993c-0.154-0.038-0.163,0.113-0.363,0.013c0.011,0.081,0.108,0.116,0.162,0.174
			c-0.017,0.081-0.178,0.033-0.08,0.158c0.078,0.014,0.031-0.134,0.161-0.052C180.829,41.079,181.059,41.167,181.057,40.993z"/>
		<path class="st0" d="M174.834,38.941c-0.032,0.02-0.111-0.02-0.121,0.029c-0.008,0.11,0.145,0.188,0.203,0.153
			C174.965,39.019,174.785,39.044,174.834,38.941z"/>
		<path class="st0" d="M179.971,41.748c-0.109-0.128-0.402-0.018-0.282,0.156C179.768,41.832,179.803,41.703,179.971,41.748z"/>
		<path class="st0" d="M178.641,41.884c-0.083,0.017-0.205-0.017-0.201,0.112C178.532,41.992,178.627,41.991,178.641,41.884z"/>
		<path class="st0" d="M177.754,42.075c-0.082-0.02-0.079,0.072-0.161,0.052c0.012,0.056,0.101,0.069,0.162,0.099
			C177.754,42.175,177.754,42.124,177.754,42.075z"/>
		<path class="st0" d="M177.512,42.321c-0.127-0.066-0.106,0.061-0.201,0.036C177.332,42.43,177.569,42.474,177.512,42.321z"/>
		<path class="st0" d="M171.774,40.302c-0.007,0.029,0.016,0.042,0.041,0.053c-0.006,0.042-0.074,0.003-0.121-0.008
			c-0.024,0.058,0.119,0.2,0.001,0.188c0.005,0.134,0.133-0.03,0.122,0.083C171.868,40.569,171.978,40.363,171.774,40.302z"/>
		<path class="st0" d="M171.695,40.61c-0.069-0.04-0.076,0.001-0.081,0.045c-0.057-0.019-0.114-0.037-0.121-0.083
			c-0.055-0.009-0.033,0.081-0.04,0.135c0.067,0.025,0.134,0.05,0.202,0.076C171.622,40.664,171.712,40.707,171.695,40.61z"/>
		<path class="st0" d="M170.847,40.364c-0.08-0.004-0.107,0.059-0.12,0.143C170.853,40.572,170.855,40.475,170.847,40.364z"/>
		<path class="st0" d="M176.142,42.592c-0.111,0.017,0.041,0.2,0.122,0.234C176.366,42.771,176.186,42.678,176.142,42.592z"/>
		<path class="st0" d="M176.547,42.821c-0.139,0.015-0.348,0.023-0.241,0.248C176.365,42.957,176.593,43.067,176.547,42.821z"/>
		<path class="st0" d="M176.022,42.697c-0.049,0.061-0.152,0.051-0.161,0.165c0.088-0.01,0.134-0.075,0.242-0.059
			C176.093,42.758,176.022,42.747,176.022,42.697z"/>
		<path class="st0" d="M175.334,42.437c-0.136,0.15-0.246,0.085,0.082,0.294C175.44,42.606,175.369,42.531,175.334,42.437z"/>
		<path class="st0" d="M170.283,40.753c-0.127-0.041-0.194-0.003-0.201,0.112C170.165,40.848,170.287,40.882,170.283,40.753z"/>
		<path class="st0" d="M169.115,41.062c-0.073,0.256-0.332,0.226-0.28,0.496c0.141-0.09,0.277-0.187,0.361-0.352
			c0.048,0.024,0.034,0.081,0.041,0.128C169.446,41.352,169.287,41.138,169.115,41.062z"/>
		<path class="st0" d="M174.33,43.373c-0.162-0.013,0.121,0.225,0.001,0.188C174.458,43.737,174.411,43.414,174.33,43.373z"/>
		<path class="st0" d="M174.291,43.508c-0.087-0.001-0.142,0.039-0.12,0.18C174.255,43.686,174.293,43.624,174.291,43.508z"/>
		<path class="st0" d="M168.352,41.788c-0.054-0.02-0.108-0.04-0.161-0.061c-0.005,0.066,0.049,0.098,0.041,0.166
			C168.262,41.846,168.359,41.886,168.352,41.788z"/>
		<path class="st0" d="M172.435,43.596c0.018,0.079,0.116,0.112,0.082,0.219C172.635,43.792,172.594,43.53,172.435,43.596z"/>
		<path class="st0" d="M175.145,44.996"/>
		<path class="st0" d="M176.635,44.47"/>
		<path class="st0" d="M178.526,43.419"/>
		<path class="st0" d="M168.696,48.055c2.656-1.514,9.789-4.765,9.789-4.765c0.047,0.024,0.677-0.24,0.765-0.275
			c-0.066-0.142-0.128,0.029-0.202-0.001c0-0.075-0.001-0.15-0.001-0.226c0.072,0.022,0.085,0.078,0.162,0.099
			c0.115-0.162-0.083-0.403,0.2-0.413c0.089,0.083-0.047,0.186-0.039,0.286c0.054,0.058,0.15,0.092,0.162,0.174
			c0.01-0.061-0.141-0.442,0.119-0.406c0.071,0.036,0.092,0.1,0.082,0.181c0.156,0.047-0.018-0.315,0.16-0.315
			c0.138,0.024,0.052,0.173,0.203,0.189c0.008-0.029-0.016-0.041-0.04-0.053c-0.06-0.069,0.098-0.073-0.041-0.204
			c0.053,0.003,0.215-0.037,0.08-0.158c0.063-0.004,0.06-0.097,0.161-0.052c0.079,0.094,0.014,0.269,0.123,0.347
			c0.025-0.059,0.063-0.141,0.079-0.233c0.098,0.022,0.088,0.102,0.202,0.114c0.092-0.104,0.242-0.133,0.362-0.201
			c0.09,0.04-0.052,0.075,0.001,0.189c0.217-0.006-0.032-0.388,0.281-0.27c0.022-0.047-0.048-0.213,0.04-0.173
			c-0.01-0.101-0.069,0.026-0.162-0.062c0-0.037-0.001-0.075,0-0.113c0.198,0.034,0.238-0.139,0.443-0.095
			c0.109,0.132-0.043,0.241-0.201,0.149c-0.004,0.095-0.022,0.171-0.08,0.196c0.059-0.045,0.366,0.062,0.323-0.179
			c0.143,0.034,0.1,0.171,0.243,0.205c-0.069-0.231,0.181-0.349,0.361-0.465c0.121,0.07-0.038,0.066,0.001,0.15
			c0.084-0.05,0.115,0.062,0.242,0.092c0.047-0.139,0.209-0.126,0.241-0.285c0.274,0.081,0.118-0.116,0.2-0.413
			c-0.076,0.064-0.114,0.176-0.241,0.172c-0.015,0.059,0.032,0.083,0.081,0.106c-0.024,0.069-0.077,0.099-0.161,0.089
			c-0.082-0.019,0.008-0.105,0.04-0.097c-0.093-0.069-0.478-0.199-0.444,0.02c-0.186-0.12-0.402,0.017-0.483,0.156
			c-0.106-0.05-0.133-0.128-0.121,0.029c-0.341-0.058-0.579,0.018-0.725,0.214c-0.148-0.177-0.25,0.083-0.323-0.122
			c0.01,0.073-0.063,0.104-0.12,0.181c0.072,0.031,0.085-0.014,0.162,0.023c-0.021,0.048-0.06,0.072-0.08,0.12
			c-0.05-0.035-0.084-0.08-0.082-0.143c-0.119-0.055-0.124,0.037-0.242-0.017c-0.011,0.057,0.038,0.079,0.041,0.128
			c-0.106-0.051-0.202-0.089-0.161,0.052c-0.064-0.021-0.154-0.076-0.162-0.023c-0.096-0.022,0.022-0.163-0.122-0.159
			c0.08,0.249-0.338,0.351-0.524,0.253c-0.12-0.021,0.039,0.095,0.001,0.151c-0.007,0.027-0.04,0.022-0.039,0.06
			c-0.123-0.019-0.12-0.11-0.243-0.13c-0.001,0.241-0.374,0.24-0.604,0.298c0.03,0.126-0.04,0.121-0.04,0.21
			c0.191,0.06,0.005-0.14,0.161-0.127c0.016,0.111,0.011,0.079,0.162,0.174c0.003,0.244-0.183,0.216-0.322,0.104
			c-0.021-0.126,0.201,0.062,0.161-0.09c-0.092,0.047-0.252-0.081-0.243-0.204c-0.127,0.072-0.313,0.067-0.443,0.133
			c-0.076-0.166-0.048-0.097-0.202-0.114c0.04-0.072,0.139-0.069,0.282-0.006c-0.005-0.073-0.133-0.076-0.122-0.159
			c-0.044,0.079-0.179,0.042-0.242,0.097c0.005,0.098,0.136,0.126,0.243,0.167c-0.085,0.1-0.261,0.083-0.281,0.27
			c0.039,0.079,0.135,0.127,0.162,0.212c-0.089,0.106-0.108-0.136-0.242-0.13c-0.06-0.039,0.016-0.042-0.001-0.113
			c-0.258-0.115-0.432,0.15-0.726,0.027c-0.031,0.259-0.279,0.235-0.442,0.321c-0.16-0.105,0.019-0.179-0.082-0.332
			c-0.204-0.037-0.015,0.261-0.242,0.022c0.031,0.108,0.099,0.196,0.203,0.265c-0.091,0.143-0.253,0.193-0.443,0.208
			c0.115,0.228-0.083,0.229-0.2,0.263c-0.048-0.025-0.035-0.082-0.041-0.128c0.012-0.047,0.102,0.007,0.162,0.024
			c0.006-0.041-0.009-0.071-0.041-0.091c0-0.025,0-0.05,0-0.075c-0.125-0.026-0.079,0.171-0.282,0.043
			c-0.007-0.097,0.09-0.057,0.12-0.104c-0.085-0.156-0.17-0.002-0.242-0.017c-0.041-0.296-0.186,0.046-0.363,0.013
			c0.072,0.078,0.164,0.244,0.082,0.294c-0.05-0.166-0.156-0.105-0.283-0.257c0.006,0.046-0.009,0.063-0.04,0.06
			c0.151,0.125,0.002,0.183,0.082,0.332c-0.07,0.01-0.358-0.046-0.362,0.164c-0.127-0.031-0.115-0.138-0.163-0.213
			c-0.165-0.004-0.277,0.046-0.403-0.002c0,0.049,0.001,0.1,0.001,0.15c0.054,0.02,0.108,0.041,0.162,0.061
			c-0.041-0.191,0.166-0.059,0.242-0.096c-0.006,0.167-0.228,0.052-0.241,0.209c-0.246-0.323-0.325-0.015-0.605-0.078
			c0.087,0.002,0.089-0.108,0.201-0.074c-0.097-0.136-0.223,0.006-0.283,0.043c0.037,0.081,0.098,0.147,0.122,0.234
			c-0.078,0.101-0.162-0.107-0.243-0.13c0.015,0.07-0.031,0.06-0.08,0.045c0.125,0.167,0.03,0.22-0.201,0.112
			c0.196,0.14,0.015,0.075,0.042,0.279c-0.228-0.083,0.044-0.208-0.203-0.265c0.117,0.214,0,0.204,0.042,0.354
			c-0.195-0.069,0.018-0.189-0.081-0.256c-0.099,0.053-0.118,0.066-0.08,0.233c-0.179-0.062,0.019-0.1-0.082-0.181
			c-0.32-0.088-0.203,0.162-0.321,0.33c-0.095-0.035-0.119-0.11-0.243-0.129c0.007,0.172-0.169,0.103-0.201,0.224
			c-0.08-0.056-0.093-0.149-0.162-0.211c-0.012-0.065,0.038-0.05,0.04-0.097c0.109,0.015,0.078,0.107,0.122,0.159
			c0.1-0.094,0.064-0.209,0.241-0.247c-0.12,0.006-0.279-0.039-0.322,0.067c-0.126-0.037,0.102-0.07-0.041-0.129
			c0.133-0.001,0.207-0.079,0.322-0.103c-0.01-0.045-0.08-0.056-0.081-0.106c0.033-0.098,0.102,0.087,0.202,0.076
			c-0.002-0.065,0.029-0.086,0.08-0.082c-0.247-0.333,0.254-0.035,0.2-0.3c0.127,0.029,0.108,0.17,0.202,0.114
			c-0.024-0.138-0.182-0.2-0.204-0.34c-0.114-0.048-0.093,0.078-0.201,0.037c0.007,0.046,0.074,0.06,0.122,0.083
			c0.004,0.13-0.118,0.096-0.201,0.112c-0.087-0.089,0.029-0.081-0.041-0.203c0.066-0.063,0.18-0.064,0.201-0.187
			c0.127,0.029,0.107,0.17,0.202,0.114c-0.171-0.459,0.482-0.427,0.723-0.591c0.068,0.063,0.03,0.185,0.122,0.234
			c-0.272,0.094-0.584,0.136-0.805,0.297c0.036,0.115,0.164,0.045,0.12-0.067c0.132,0.056,0.194-0.015,0.203,0.152
			c0.051-0.059,0.098-0.121,0.161-0.164c0.071,0.06,0.052,0.172,0.202,0.189c-0.054-0.187,0.005-0.149,0.121-0.18
			c0.124,0.019,0.078,0.133,0.202,0.152c0.177-0.033,0.276-0.234,0.28-0.383c0.033,0.045,0.111,0.064,0.122,0.121
			c0,0.105-0.11-0.131-0.081,0.045c0.2,0.036,0.25-0.123,0.444-0.095c0-0.088-0.001-0.176-0.001-0.264
			c0.095,0.048,0.152,0.118,0.283,0.145c-0.057-0.225-0.187-0.144-0.284-0.22c0.001-0.136,0.287,0.1,0.242-0.097
			c0.177,0.053,0.083,0.256,0.284,0.295c-0.001-0.037-0.049-0.048-0.081-0.068c0.083-0.179,0.302-0.18,0.483-0.231
			c-0.007-0.159-0.226-0.203-0.283-0.145c0.036-0.091-0.084-0.385,0.08-0.308c0.113,0.079-0.059,0.078,0.041,0.166
			c0.131,0.096,0.03-0.11,0.161-0.014c-0.034-0.127-0.114-0.133-0.041-0.241c0.088,0.027,0.129,0.08,0.122,0.159
			c0.194,0.045-0.065-0.267,0.12-0.218c0.091,0.062,0.013,0.22,0.162,0.249c0.029-0.104-0.042-0.153-0.041-0.241
			c0.018-0.027,0.035-0.054,0.081-0.045c0.07,0.083-0.041,0.147,0.082,0.256c0.093-0.069,0.134,0.028,0.323,0.084
			c0.263-0.008,0.356-0.255,0.482-0.343c0.034,0.255,0.407-0.072,0.605-0.072c0.1,0.145-0.203,0.084-0.16,0.278
			c0.264,0.038,0.194-0.316,0.443-0.208c-0.007-0.047-0.074-0.06-0.122-0.083c-0.044-0.157,0.1-0.069,0.079-0.196
			c0.352,0.176,0.361-0.18,0.605-0.034c0.09-0.224,0.312-0.141,0.321-0.404c-0.08,0.032-0.051-0.023-0.162-0.061
			c0.089-0.295,0.382-0.034,0.565,0.176c-0.031-0.134-0.155-0.216-0.203-0.34c0.111-0.017,0.186-0.081,0.323-0.065
			c0.085,0.053-0.057,0.12-0.039,0.21c-0.068-0.05,0.378-0.075,0.402-0.148c0.066-0.002,0.176,0.141,0.081,0.106
			c0.101,0.125,0.082-0.043,0.121-0.067c-0.006-0.047-0.074-0.06-0.121-0.084c0.157-0.102,0.657,0.074,0.765-0.199
			c0.067,0.025,0.135,0.051,0.202,0.076c0-0.075,0.11-0.006,0.08-0.12c0.39,0.184,0.349-0.194,0.726-0.026
			c0.075-0.238,0.336-0.236,0.645-0.169c-0.045,0.146-0.006,0.207-0.039,0.323c0.194-0.119,0.255-0.417,0.483-0.306
			c-0.179-0.221-0.117-0.407-0.366-0.627c0.123-0.027,0.277-0.013,0.403-0.035c-0.191-0.23-0.434,0.12-0.646-0.169
			c-0.007-0.084,0.143,0.037,0.202,0.039c-0.113-0.174,0.155-0.102,0.12-0.293c0.055,0.095,0.113,0.189,0.284,0.22
			c-0.107-0.123-0.066-0.187-0.042-0.317c0.141,0.066,0.358,0.135,0.242-0.021c0.127,0.03,0.159,0.142,0.242,0.092
			c0.118,0.077,0.046,0.073,0.041,0.166c0.104-0.026,0.212-0.049,0.242-0.172c0.137,0.05,0.063,0.217,0.203,0.265
			c0.004-0.061-0.133-0.289,0.039-0.211c-0.036-0.068-0.033-0.158-0.163-0.174c0.068-0.123,0.068-0.09-0.001-0.263
			c-0.029-0.113,0.191,0.099,0.162-0.014c0.014-0.152-0.132-0.077-0.202-0.114c0.036-0.052,0.148-0.006,0.161-0.089
			c0.095,0.047,0.025,0.188,0.162,0.211c-0.064-0.128,0.104-0.129,0.121-0.029c-0.039-0.273,0.243-0.291,0.564-0.2
			c-0.041-0.065-0.04-0.154-0.082-0.219c-0.127-0.006-0.091-0.031-0.242-0.092c-0.019,0.073,0.058,0.094,0.121,0.121
			c-0.136,0.134-0.425,0.069-0.645,0.095c0.069-0.173,0.372-0.039,0.443-0.209c-0.098,0.01-0.196,0.019-0.322-0.009
			c0.033-0.107,0.22-0.013,0.16-0.24c0.096,0.048,0.076,0.159,0.202,0.189c-0.005-0.069,0.049-0.06,0.04-0.135
			c0.086,0.014,0.077,0.083,0.081,0.143c0.08,0.03,0.051-0.083,0.161-0.014c-0.097-0.162,0.105-0.144-0.001-0.301
			c0.177,0.027,0.133,0.177,0.283,0.22c0.018-0.127,0.28-0.132,0.363-0.051c0.05-0.166,0.177,0.001,0.242-0.134
			c0.121,0.07-0.039,0.066,0.001,0.151c0.201,0.049,0.225-0.13,0.403-0.111c-0.02-0.106-0.032-0.139-0.122-0.272
			c0.087-0.012,0.177-0.133,0.079-0.271c0.131,0.003,0.031,0.133,0.162,0.136c0.085-0.001,0.07-0.134,0.202-0.074
			c0.023-0.111-0.077-0.145-0.001-0.188c0.134,0.051,0.042,0.228,0.122,0.309c0.013,0.105-0.227-0.121-0.161,0.052
			c0.114,0.112,0.26,0.008,0.282-0.119c0.114,0.012,0.105,0.093,0.202,0.114c0.03-0.148,0.154-0.37,0.281-0.269
			c0.056,0.008,0.003-0.065-0.041-0.091c0.059-0.06,0.106-0.136,0.282-0.043c-0.029-0.126,0.069-0.085,0.04-0.211
			c-0.019,0.136-0.314-0.085-0.282,0.119c-0.161-0.099-0.117-0.198-0.324-0.198c-0.022-0.243,0.161-0.07,0.202-0.074
			c-0.02-0.174-0.154-0.051-0.243-0.167c0.024,0.107-0.015,0.129-0.121,0.066c0.025,0.13-0.075,0.088,0.001,0.189
			c0.112,0.022,0.113-0.079,0.202,0.076c-0.01,0.074-0.179-0.059-0.161,0.052c-0.114-0.083-0.051-0.168-0.203-0.152
			c0.181,0.158-0.093,0.045-0.161,0.089c-0.036-0.024-0.136-0.191-0.041-0.165c-0.053,0.035-0.317-0.067-0.363,0.05
			c-0.251-0.185-0.26,0.034-0.485-0.145c-0.066,0.105,0.035,0.212-0.079,0.27c-0.055-0.032-0.034-0.107-0.041-0.166
			c-0.216-0.12-0.225,0.031-0.363,0.013c0.023,0.087,0.064,0.103,0.122,0.084c0.045,0.162-0.143,0.079-0.039,0.211
			c-0.025-0.021-0.156-0.153-0.162-0.061c-0.118-0.078-0.046-0.073-0.041-0.166c-0.18-0.035-0.189,0.153-0.444,0.02
			c0.178,0.299-0.248-0.045-0.16,0.24c-0.107-0.176-0.136-0.018-0.243-0.129c0.059-0.061,0.106-0.136,0.282-0.044
			c-0.105-0.257,0.223-0.185,0.444-0.133c-0.054-0.084-0.108-0.167-0.083-0.295c0.001,0.36-0.865-0.052-0.683,0.531
			c-0.148,0.044-0.245,0.154-0.443,0.133c0.023,0.087,0.064,0.104,0.121,0.084c0.001,0.076,0.001,0.15,0.001,0.226
			c-0.026,0.04-0.086,0.037-0.161,0.014c-0.005-0.119,0.127-0.059,0.08-0.233c-0.114-0.037-0.168,0.005-0.283-0.032
			c0,0.05,0.001,0.1,0.001,0.151c-0.029,0.024-0.073,0.029-0.121,0.029c-0.088-0.039-0.087-0.127-0.082-0.219
			c-0.187,0.036,0.118,0.301-0.12,0.293c0.018,0.053,0.052,0.097,0.122,0.121c-0.006,0.068-0.026,0.115-0.08,0.12
			c-0.1-0.276-0.46-0.164-0.646-0.207c0.068-0.131,0.487-0.136,0.321-0.33c0.118-0.071,0.309-0.046,0.403-0.148
			c-0.104-0.157-0.181,0.037-0.283,0.006c0.04-0.125,0.086-0.066,0.04-0.248c0.227,0.202,0.138-0.039,0.364,0.175
			c0.026-0.153-0.095-0.224-0.203-0.302c0.04-0.091,0.171,0.075,0.242,0.091c-0.001-0.089,0.069-0.084,0.04-0.21
			c0.114,0.012,0.105,0.092,0.202,0.114c-0.011-0.18,0.047-0.035,0.161-0.052c0.031-0.134,0.176-0.119,0.2-0.262
			c0.129,0.015,0.084,0.129,0.162,0.174c-0.064,0.099-0.342,0.074-0.16,0.278c0.066-0.013,0.043-0.144,0.079-0.196
			c0.033,0.033,0.066,0.065,0.122,0.084c-0.003-0.165,0.009-0.184,0.161-0.127c0.04-0.161-0.163-0.186-0.123-0.347
			c0.008-0.028,0.04-0.022,0.04-0.06c0.127,0.03,0.115,0.138,0.163,0.212c0.151,0.097,0.115-0.05,0.242,0.016
			c0.014-0.058-0.032-0.083-0.081-0.106c0.071-0.131,0.383,0.05,0.322-0.254c0.289-0.031,0.365-0.24,0.685-0.154
			c-0.035-0.171,0.108-0.108,0.161-0.165c-0.075-0.141-0.125-0.153-0.122-0.272c-0.184-0.064-0.158-0.029-0.324-0.123
			c0.056,0.154,0.066,0.1,0.082,0.256c-0.06,0.085-0.219,0.039-0.2,0.225c-0.126-0.069-0.063-0.242-0.123-0.347
			c-0.101-0.042-0.181,0.135-0.282-0.031c-0.166,0.033-0.153,0.3-0.443,0.171c0.017-0.127,0.136-0.122,0.16-0.24
			c-0.072,0.006-0.103,0.066-0.243-0.017c0.064,0.124,0.046,0.134-0.08,0.045c-0.009,0.276-0.383,0.075-0.483,0.231
			c-0.122-0.008-0.072-0.111-0.082-0.181c-0.126-0.066-0.106,0.061-0.201,0.036c0.108,0.076,0.184,0.172,0.364,0.213
			c0.038,0.042,0.062,0.092,0.082,0.143c-0.04,0.036-0.108,0.035-0.161,0.051c-0.063-0.04-0.035-0.131-0.162-0.136
			c-0.017,0.072,0.028,0.11,0.041,0.165c-0.009,0.037-0.08-0.005-0.08,0.045c-0.136-0.086-0.005-0.086-0.082-0.182
			c0.007-0.103,0.192,0.026,0.161-0.127c-0.712,0.231-1.329,0.586-2.094,0.749c0.128,0.241-0.161,0.24-0.322,0.103
			c0.047,0.138,0.199,0.216,0.243,0.355c-0.073,0.119-0.228-0.1-0.282,0.044c-0.047-0.024-0.034-0.082-0.041-0.128
			c-0.125,0.025-0.13,0.205-0.282,0.194c-0.1-0.353-0.361-0.024-0.686-0.147c-0.04,0.098,0.091,0.101,0.162,0.136
			c-0.171,0.08-0.121,0.011-0.322,0.029c0.009,0.058,0.121,0.059,0.121,0.121c-0.026,0.04-0.086,0.038-0.161,0.014
			c0.034,0.056,0.054,0.121,0.041,0.204c-0.024,0.133-0.169-0.104-0.161,0.09c-0.071-0.036-0.092-0.1-0.082-0.181
			c-0.302,0.056-0.325-0.045-0.564,0.2c-0.049-0.035-0.083-0.079-0.082-0.143c-0.069,0.259-0.372,0.213-0.482,0.419
			c-0.036-0.03-0.073-0.061-0.082-0.106c-0.078,0.035-0.086,0.163-0.079,0.309c-0.105-0.017-0.145-0.07-0.122-0.159
			c-0.193,0.198-0.661,0.036-0.684,0.456c-0.124-0.019-0.078-0.133-0.202-0.152c0-0.074,0.11-0.006,0.08-0.12
			c-0.155,0.148-0.27,0.437-0.603,0.448c0.059,0.133,0.221-0.006,0.202,0.189c-0.19-0.051-0.345-0.093-0.403-0.003
			c0.069,0.202,0.094-0.034,0.202,0.001c0.016,0.158-0.11,0.132-0.161,0.203c-0.07-0.087-0.119-0.186-0.162-0.287
			c-0.173,0.152-0.169,0.43-0.482,0.457c-0.044-0.026-0.028-0.085-0.082-0.106c-0.072-0.032-0.085,0.014-0.161-0.024
			c0.004,0.142,0.046,0.125,0.001,0.226c-0.047-0.049-0.109-0.091-0.202-0.114c-0.058,0.112-0.183,0.136-0.282,0.194
			c-0.099-0.042-0.009-0.128,0.04-0.098c-0.202-0.119-0.224,0.166-0.16,0.353c-0.159-0.012-0.12-0.135-0.122-0.234
			c-0.141,0.079-0.113,0.376-0.321,0.367c-0.078-0.014-0.06-0.194,0.04-0.098c-0.112-0.1-0.221-0.098-0.323-0.047
			c0.024-0.026,0.093-0.103-0.041-0.128c0.017-0.052,0.127,0.016,0.08-0.12c-0.142-0.061-0.132,0.077-0.242,0.059
			c0.08,0.056,0.129,0.22,0.001,0.189c0.018,0.063,0.051,0.005,0.121,0.046c-0.043,0.094-0.114,0.151-0.079,0.346
			c-0.151-0.018-0.064-0.166-0.202-0.19c0.007,0.118-0.095,0.177,0.001,0.302c-0.196,0.062-0.449,0.099-0.524,0.215
			c0.046,0.062,0.116,0.112,0.082,0.219c-0.182-0.116-0.128-0.259-0.324-0.197c-0.029-0.137,0.083-0.092,0.12-0.142
			c-0.113-0.132-0.17,0.126-0.282,0.119c0.027,0.049,0.093,0.074,0.082,0.144c-0.107-0.019-0.121,0.044-0.283-0.07
			c-0.028,0.105,0.071,0.138,0.042,0.242c-0.046,0.05-0.297-0.168-0.241,0.096c-0.097-0.021-0.088-0.102-0.202-0.114
			c-0.007-0.097,0.061-0.094,0.12-0.105c-0.503-0.095-0.783,0.425-1.207,0.558c-0.058-0.069-0.077-0.159-0.082-0.257
			c-0.099,0.008-0.107,0.135-0.241,0.097c-0.006,0.092,0.063,0.141,0.122,0.196c-0.173,0.103-0.696,0.035-0.603,0.486
			c-0.152-0.087-0.003-0.132-0.082-0.219c-0.134,0.066-0.156,0.091-0.282,0.119c0.015,0.055,0.071,0.086,0.081,0.144
			c-0.092,0.125-0.549-0.054-0.442,0.209c-0.095-0.035-0.12-0.11-0.243-0.129c-0.036,0.065-0.001,0.224-0.161,0.127
			c0.121,0.329-0.393,0.13-0.402,0.412c-0.025-0.061-0.156-0.064-0.162-0.137c-0.056,0.114-0.081,0.268-0.322,0.142
			c0.013,0.092-0.006,0.142-0.039,0.173c-0.032-0.032-0.065-0.064-0.121-0.083c0.047,0.094-0.063,0.155-0.081,0.045
			c-0.004,0.111-0.123,0.152-0.282,0.156c0.113,0.1,0.067,0.139,0,0.188c-0.047-0.024-0.034-0.082-0.041-0.128
			c-0.132,0.015-0.19,0.126-0.322,0.141c-0.02-0.172,0.124-0.033,0.04-0.211c-0.08,0.007-0.172,0-0.202,0.074
			c-0.055-0.033-0.034-0.107-0.041-0.166c0.075-0.04,0.281,0.092,0.241-0.097c-0.062,0.084-0.189-0.15-0.242-0.054
			c-0.117-0.105-0.049-0.159-0.001-0.226c0.083,0.043,0.081,0.131,0.122,0.197c0.133,0.028,0.057-0.121,0.039-0.21
			c0.068-0.036,0.099-0.12,0.242-0.059c-0.169,0.058,0.019,0.23-0.12,0.255c0.037,0.118,0.164-0.026,0.122,0.159
			c-0.011,0.129-0.11-0.174-0.121-0.046c-0.018,0.171,0.035,0.07,0.162,0.137c-0.018,0.026-0.035,0.054-0.081,0.045
			c0.162,0.049,0.304-0.251,0.523-0.253c-0.16-0.129,0.053-0.074-0.041-0.204c-0.089,0.059-0.17,0.128-0.201,0.262
			c-0.32-0.325,0.094-0.399,0.119-0.556c0.251,0.049,0.211,0.26,0.405,0.341c-0.128-0.178,0.17-0.027,0.119-0.218
			c-0.042,0.062-0.265,0.1-0.323-0.084c0.246,0.111,0.033-0.151,0.282-0.119c0.143,0.034,0.1,0.171,0.243,0.205
			c0-0.063,0-0.125-0.001-0.188c-0.058-0.019-0.115-0.037-0.122-0.083c0.087-0.236,0.313-0.29,0.442-0.472
			c-0.156-0.092-0.143,0.037-0.242,0.021c0.044-0.153,0.191-0.335,0.403-0.148c-0.068,0.01-0.103,0.064-0.08,0.195
			c0.055,0.113,0.122-0.021,0.162,0.099c0.105-0.098,0.049-0.369,0.322-0.179c-0.036-0.134,0.061-0.095,0.121-0.105
			c-0.035-0.043-0.025-0.112-0.082-0.144c0.217,0.008,0.326-0.323,0.564-0.163c0.078-0.06,0.129-0.155,0.201-0.224
			c0.038,0.042,0.061,0.092,0.081,0.143c0.118,0.013-0.025-0.13-0.001-0.188c0.149,0.043,0.17,0.158,0.204,0.265
			c0.127-0.005,0.196-0.126,0.363,0.025c-0.055-0.121-0.214-0.184-0.204-0.34c-0.187-0.009,0.132,0.257-0.119,0.218
			c-0.107-0.09-0.125-0.17-0.082-0.256c0.116-0.136,0.468,0.036,0.564-0.125c0.17,0.114,0.001,0.124,0.001,0.226
			c0.125,0.039,0.125-0.086,0.161-0.165c-0.033-0.032-0.066-0.064-0.122-0.083c0.03-0.06,0.121,0.02,0.04-0.098
			c0.197,0.045,0.097-0.298,0.403-0.111c-0.08-0.128,0.075-0.24,0.201-0.112c-0.11-0.264,0.088-0.36,0.28-0.345
			c0.012-0.056-0.038-0.079-0.04-0.128c0.173,0.03,0.229-0.115,0.363,0.062c0-0.087-0.001-0.175-0.001-0.264
			c0.205,0.012,0.095,0.2,0.243,0.243c0.003-0.158,0.108-0.184,0.241-0.172c-0.055-0.095-0.04-0.23-0.082-0.332
			c0.137,0.075,0.066,0.265,0.244,0.318c-0.198-0.258,0.071-0.388,0.281-0.345c0.063-0.109-0.072-0.261,0.079-0.27
			c0.068,0.096,0.076,0.248,0.162,0.136c0.082,0.068,0.088,0.177,0.082,0.294c0.034,0.02,0.038,0,0.04-0.022
			c0.027,0.011,0.054,0.02,0.081,0.031c0.01-0.106-0.092-0.15-0.082-0.256c0.043-0.136,0.193,0.085,0.364,0.1
			c-0.006-0.145,0.182-0.037,0.201-0.15c-0.195-0.105-0.247-0.023-0.282,0.081c-0.048-0.062-0.143-0.097-0.243-0.13
			c0.108-0.021,0.006-0.134,0.202-0.074c0.049-0.103-0.131-0.078-0.081-0.181c0.187,0.081,0.35-0.056,0.524-0.103
			c-0.028-0.082-0.184-0.018-0.202,0.037c-0.186-0.191,0.032-0.275,0.16-0.278c0.158,0.094-0.134,0.088,0,0.151
			c0.207,0.079,0.007-0.138,0.161-0.127c0.078,0.32,0.279-0.209,0.605-0.034c-0.038-0.135,0.065-0.28,0.079-0.459
			c0.169,0.239,0.336-0.148,0.321-0.254c0.058,0.018,0.115,0.037,0.122,0.084c-0.031-0.1,0.125-0.054,0.12-0.218
			c0.214,0.158,0.142-0.075,0.241-0.21c0.077,0.045,0.073,0.135,0.202,0.152c0.142-0.28,0.372-0.231,0.563-0.463
			c0.082,0.052,0.08,0.143,0.162,0.099c-0.16-0.215,0.071-0.166,0.241-0.059c-0.166-0.138-0.124-0.326,0.039-0.323
			c0.136,0.112-0.126,0.071,0.001,0.188c0.073,0.032,0.085-0.014,0.162,0.024c-0.023-0.085-0.122-0.12-0.041-0.166
			c0.058,0.031,0.015,0.118,0.081,0.143c0.181-0.002,0.161-0.104,0.08-0.196c0.065-0.102,0.128,0.167,0.202,0.077
			c-0.113-0.122-0.059-0.215-0.001-0.301c0.157,0.137,0.065-0.031,0.242,0.054c-0.088-0.114,0.023-0.16,0.121-0.142
			c0.056,0.059-0.017,0.055,0.081,0.143c-0.096-0.183,0.358-0.176,0.119-0.406c0.131,0.033,0.024-0.244,0.16-0.202
			c0.147,0.084-0.004,0.118,0.041,0.278c0.107,0.001,0.136-0.097,0.242-0.097c-0.224-0.352,0.172-0.347,0.2-0.45
			c0.071,0.103,0.004,0.198,0.001,0.263c-0.068-0.012-0.076-0.058-0.081-0.106c-0.135-0.011-0.002,0.113-0.08,0.195
			c0.16-0.041,0.165-0.095,0.444,0.055c0.035-0.107-0.105-0.117-0.122-0.196c0.269,0.126,0.579-0.341,0.805-0.372
			c0.013-0.032,0.086-0.196-0.041-0.241c0.014-0.176,0.284,0,0.12-0.218c0.114,0.037,0.102,0.145,0.162,0.212
			c-0.013,0.046-0.101-0.007-0.162-0.024c0.018,0.14,0.177,0.141,0.082,0.257c0.105-0.055,0.06-0.138,0.12-0.293
			c0.032,0.031,0.066,0.063,0.122,0.083c-0.004-0.128-0.093-0.041-0.162-0.174c0.022-0.083,0.156-0.021,0.12-0.18
			c-0.408,0.043-0.724,0.204-1.047,0.356c-0.13-0.003-0.031-0.134-0.162-0.136c-0.076,0.043-0.004,0.093,0.001,0.188
			c-0.162-0.061-0.113-0.239-0.123-0.385c0.177-0.088,0.554,0.044,0.644-0.245c0.056-0.039,0.2,0.036,0.242-0.021
			c-0.148-0.087-0.119-0.08,0.04-0.098c0.029-0.092-0.081-0.106-0.082-0.181c0.307,0.118,0.223-0.057,0.362-0.126
			c0.098,0.022,0.088,0.102,0.202,0.114c-0.098-0.111-0.094-0.223,0.039-0.21c0.097,0.022-0.022,0.163,0.122,0.159
			c-0.015-0.07,0.031-0.059,0.08-0.045c-0.031-0.046-0.043-0.101-0.04-0.165c0.22-0.036,0.322-0.063,0.564-0.012
			c-0.14-0.245,0.175-0.02,0.16-0.202c0.119,0.076-0.052,0.075,0.001,0.188c0.068-0.048,0.123-0.114,0.242-0.096
			c0.022-0.047-0.048-0.213,0.04-0.173c-0.132-0.124-0.097-0.123-0.082-0.294c-0.131,0.116-0.324-0.016-0.362,0.164
			c-0.167-0.078-0.024-0.122-0.162-0.174c-0.021,0.125,0.035,0.207,0.122,0.271c-0.017,0.066-0.087,0.062-0.08,0.158
			c-0.139-0.171-0.2-0.012-0.241,0.059c-0.14-0.086,0.009-0.148-0.082-0.294c-0.094,0.021-0.062,0.069-0.04,0.173
			c-0.059-0.029-0.198-0.099-0.323-0.047c0.056,0.07,0.041,0.178,0.042,0.279c-0.094-0.074-0.131-0.179-0.284-0.22
			c0.007,0.109-0.114,0.051-0.161,0.09c-0.026-0.074-0.123-0.109-0.162-0.174c-0.176,0.17-0.427,0.242-0.685,0.304
			c0.009,0.236-0.292,0.069-0.321,0.254c-0.424-0.156-0.391,0.45-0.806,0.184c0.035,0.12-0.057,0.076-0.04,0.173
			c-0.131-0.071-0.188-0.046-0.283-0.069c0.032-0.11,0.182-0.04,0.079-0.233c0.075,0.161,0.101,0.039,0.201,0.039
			c-0.037-0.14-0.091-0.067-0.161-0.061c-0.004-0.179,0.146-0.159,0.24-0.21c0.077,0.032-0.024,0.137-0.08,0.12
			c0.14,0.118,0.235-0.141,0.362-0.163c-0.125-0.075-0.077,0.073-0.202-0.001c0.211-0.07,0.179-0.24,0.321-0.367
			c0.107,0.028-0.037,0.197,0.121,0.197c0-0.051,0-0.101-0.001-0.151c0.259,0.009,0.396-0.197,0.443-0.359
			c-0.002,0.212,0.156,0.062,0.282,0.032c-0.041-0.075-0.039-0.166-0.122-0.121c-0.015-0.278,0.243,0.016,0.241-0.209
			c0.119,0.047,0.151,0.143,0.203,0.227c0.086,0.009,0.037-0.218-0.001-0.264c0.033-0.111,0.374,0.038,0.241-0.172
			c0.036-0.019,0.228-0.022,0.242,0.054c-0.02-0.169,0.177-0.325,0.442-0.322c-0.059,0.118-0.066,0.089-0.039,0.286
			c0.113,0.023,0.21,0.024,0.323,0.047c0.035-0.064-0.206-0.153-0.081-0.144c-0.07-0.158-0.089,0.054-0.121,0.068
			c-0.151-0.163-0.006-0.413,0.241-0.285c0.143-0.063,0.011-0.484,0.281-0.383c0-0.05-0.001-0.1-0.001-0.15
			c0.108,0.015,0.078,0.107,0.122,0.158c0.114-0.001,0.034-0.255,0.201-0.187c0.119,0.077-0.023,0.112,0.001,0.188
			c0.171-0.197,0.3-0.421,0.604-0.298c0.061-0.045,0.145-0.06,0.119-0.218c-0.081-0.018-0.126-0.055-0.121-0.121
			c0.181,0.085,0.264-0.21,0.524-0.14c0.006,0.095,0.008,0.185-0.08,0.157c0.11,0.068,0.326-0.048,0.444-0.095
			c-0.009-0.183-0.07,0.038-0.202-0.076c0-0.126,0.131-0.08,0.12-0.218c-0.05-0.035-0.083-0.08-0.081-0.143
			c-0.111-0.045-0.081,0.032-0.162-0.061c0.021-0.022,0.042-0.045,0.04-0.098c0.257,0.144,0.245,0.073,0.444,0.093
			c0.033,0.168-0.193-0.003-0.16,0.165c0.123,0.073,0.118-0.02,0.242,0.054c-0.123-0.083-0.004-0.271,0.08-0.308
			c0.047,0.024,0.034,0.082,0.041,0.128c0.151,0.098,0.114-0.05,0.242,0.017c-0.006-0.072-0.137-0.075-0.162-0.137
			c0.069-0.172,0.312-0.116,0.402-0.261c-0.107-0.14-0.085,0.079-0.202,0.036c-0.033-0.019-0.041-0.053-0.081-0.068
			c0.142-0.005,0.091-0.123,0.16-0.24c-0.121-0.147-0.182-0.044-0.12,0.105c-0.147-0.018-0.035-0.21-0.162-0.137
			c-0.001-0.116,0.117-0.221-0.082-0.294c-0.058,0.033-0.031,0.107,0.081,0.143c-0.006,0.042-0.073,0.004-0.121-0.008
			c-0.028,0.104,0.043,0.153,0.042,0.242c-0.123,0.063-0.28,0.084-0.322,0.254c-0.353-0.186-0.319,0.133-0.524,0.14
			c-0.155-0.217,0.166-0.202,0.038-0.399c-0.158,0.209-0.437,0.097-0.522,0.441c-0.15-0.082-0.266-0.159-0.242,0.059
			c-0.143-0.085-0.217-0.232-0.163-0.324c-0.09-0.055-0.057,0.05-0.121,0.029c0.108,0.067,0.046,0.226,0.203,0.265
			c-0.246-0.059-0.236,0.217-0.402,0.261c0.097-0.215,0.126-0.395,0.159-0.428c-0.209-0.159-0.233,0.244-0.321,0.367
			c-0.115-0.132-0.224-0.015-0.282,0.043c0.01,0.045,0.08,0.056,0.081,0.106c-0.008,0.028-0.041,0.023-0.04,0.06
			c-0.041-0.04-0.042-0.102-0.122-0.121c-0.17,0.09-0.254,0.292-0.402,0.411c-0.033-0.019-0.04-0.052-0.081-0.067
			c0.136-0.155,0.123-0.281,0.24-0.436c-0.233-0.041-0.292,0.143-0.483,0.155c0.027,0.123,0.086-0.004,0.161,0.061
			c0.018,0.085-0.027,0.089-0.039,0.136c-0.152-0.026-0.19-0.197-0.284-0.145c-0.004,0.066,0.05,0.098,0.041,0.166
			c0.039,0.014,0.032-0.034,0.04-0.059c0.094,0.035,0.245,0.25,0.162,0.061c0.229,0.077,0.137,0.219,0.041,0.241
			c0.038-0.137-0.187-0.029-0.202-0.189c-0.091-0.019,0,0.199-0.08,0.195c-0.137-0.068-0.047-0.219-0.001-0.264
			c-0.004-0.098-0.157-0.113-0.162-0.211c-0.126-0.026-0.106,0.137-0.242,0.097c-0.086-0.119,0.017-0.127-0.041-0.279
			c-0.19-0.111-0.107,0.135-0.282,0.044c0.038,0.116,0.126-0.005,0.242,0.092c-0.063,0.03-0.108,0.084-0.201,0.074
			c0.173,0.058,0.172,0.146,0.243,0.28c-0.007,0.027-0.04,0.022-0.04,0.06c-0.131-0.003-0.031-0.133-0.162-0.137
			c0.046,0.222-0.523,0.357-0.645,0.132c0.021,0.127-0.087,0.114,0.001,0.226c-0.168-0.021-0.158-0.139-0.283-0.182
			c0.121-0.029,0.139-0.194,0.281-0.195c-0.15-0.083-0.394,0.035-0.484,0.155c-0.08-0.031-0.052-0.122-0.162-0.136
			c-0.022,0.129-0.04,0.269-0.282,0.194c0.093,0.142-0.005,0.171,0.163,0.287c-0.148-0.081-0.09,0.133-0.282,0.081
			c0.207,0.16-0.104,0.172,0.001,0.301c-0.207,0.002-0.038-0.205-0.203-0.227c0.022,0.142-0.034,0.181-0.12,0.18
			c-0.055-0.058-0.082-0.131-0.122-0.196c0.153-0.185,0.43-0.197,0.482-0.419c-0.124-0.075-0.049,0.111-0.202-0.001
			c-0.029,0.448-0.651,0.124-0.724,0.515c-0.459-0.123-0.709,0.42-1.048,0.205c-0.096,0.025-0.177,0.068-0.282,0.082
			c0.113,0.225-0.137,0.157-0.2,0.262c-0.042-0.04-0.042-0.103-0.122-0.121c0.099,0.142-0.04,0.227-0.121,0.104
			c-0.098,0.283-0.497,0.175-0.643,0.396c0.121,0.039,0.046,0.149,0.041,0.204c-0.084-0.041-0.012-0.17-0.082-0.219
			c-0.288-0.025-0.344,0.25-0.523,0.366c-0.149-0.202-0.382-0.086-0.323,0.066c-0.114-0.075-0.104,0.013-0.202-0.039
			c0.125,0.347-0.606,0.166-0.643,0.546c-0.404-0.194-0.357,0.47-0.725,0.252c0.083-0.004,0.111-0.079,0.161-0.127
			c-0.158-0.12-0.199,0.198-0.403,0.223c-0.083,0.011-0.436-0.022-0.322,0.141c0.007,0.084-0.143-0.037-0.202-0.039
			c-0.06,0.183-0.272,0.169-0.321,0.367c-0.245-0.009-0.576,0.222-0.846,0.357c-7.243,3.178-13.586,7.529-19.915,11.899
			c-0.106-0.028-0.105-0.118-0.122-0.197c0.633-0.122,0.876-0.754,1.489-0.903c-0.049-0.13-0.012-0.132,0.039-0.21
			c0.06,0.039-0.016,0.042,0,0.113c0.128,0.017,0.055-0.228,0.242-0.134c0.006-0.104-0.122-0.134-0.122-0.235
			c0.412,0.127,0.68-0.16,0.845-0.469c0.253-0.094,0.536-0.149,0.644-0.433c0.047,0.011,0.071,0.035,0.081,0.068
			c0.225-0.365,0.863-0.471,0.924-0.816c0.11,0.038,0.082,0.094,0.162,0.061c-0.007-0.047-0.074-0.06-0.121-0.083
			c0.576-0.099,0.664-0.648,1.288-0.716c-0.096-0.197,0.255-0.172,0.362-0.239c0.18-0.111,0.169-0.365,0.362-0.276
			c0.069-0.209,0.22-0.312,0.483-0.269c0.049-0.103-0.131-0.078-0.081-0.181c-0.029-0.072,0.19,0.011,0.161,0.061
			c-0.001-0.202,0.199-0.14,0.241-0.285c0.069,0.013,0.076,0.058,0.081,0.106c0.03-0.223,0.241-0.209,0.321-0.367
			c0.169,0.189,0.027,0.015,0.202,0.039c-0.053-0.069-0.053-0.159-0.001-0.188c0.036,0.043,0.092,0.075,0.162,0.099
			c-0.063-0.254,0.341-0.1,0.361-0.427c0.069,0.024,0.105,0.067,0.121,0.12c0.182-0.2,0.764-0.469,0.723-0.629
			c0.096-0.1,0.348,0.006,0.322-0.254c0.207,0.06,0.459,0.015,0.403-0.148c0.813-0.35,1.373-0.902,2.213-1.268
			c0.011-0.057-0.038-0.079-0.041-0.128c0.121,0.041,0.12,0,0.283,0.032c0.277-0.413,1.092-0.447,1.367-0.986
			c0.072,0.022,0.085,0.078,0.161,0.098c0.164-0.136,0.292-0.318,0.523-0.366c-0.067-0.071-0.29-0.271-0.164-0.438
			c0.135,0.074,0.139,0.163,0.283,0.145c0.093,0.065,0.041,0.248-0.08,0.158c0.026,0.169,0.276,0.106,0.161-0.014
			c0.406,0.054,0.433-0.383,0.846-0.319c-0.086-0.215,0.128-0.254,0.363-0.163c0.015-0.058-0.032-0.083-0.081-0.106
			c0.293-0.041,0.466-0.24,0.765-0.274c-0.015-0.055-0.072-0.086-0.081-0.144c0.393-0.097,0.693-0.543,1.127-0.438
			c-0.001-0.037-0.049-0.048-0.08-0.068c0.395-0.157,0.684-0.454,1.167-0.498c0.163-0.264,0.671-0.394,1.006-0.559
			c0.029-0.104-0.111-0.114-0.082-0.218c0.018-0.027,0.035-0.054,0.081-0.045c0.149,0.335,0.352-0.005,0.525,0.011
			c-0.074-0.164-0.111,0.024-0.202-0.04c-0.122-0.092,0.028-0.132,0.04-0.172c0.398,0.266,0.502-0.099,0.807-0.071
			c0.029-0.104-0.111-0.114-0.081-0.219c0.009-0.037,0.079,0.005,0.08-0.045c0.055,0.032,0.035,0.107,0.042,0.166
			c0.114,0.036,0.172,0,0.161-0.127c-0.038-0.054-0.149-0.068-0.121-0.158c-0.081-0.031-0.051,0.083-0.162,0.014
			c-0.016-0.146,0.163-0.037,0.12-0.218c0.186,0.118,0.196,0.006,0.283-0.006c0.119,0.121-0.154,0.046-0.12,0.179
			c0.266,0.103-0.003,0.099,0.001,0.189c0.34,0.08,0.154-0.125,0.443-0.095c-0.007-0.072-0.137-0.074-0.162-0.137
			c0.001-0.036,0.049-0.01,0.081-0.007c-0.023-0.087-0.064-0.104-0.122-0.083c-0.014-0.205,0.13-0.205,0.119-0.406
			c0.103,0.019,0.141,0.004,0.202,0.114c0.086-0.05,0.005-0.318,0.161-0.277c0.087,0.027,0.019,0.141,0.041,0.203
			c0.123,0.036,0.075-0.13-0.001-0.188c-0.002-0.115,0.204,0.041,0.201-0.074c0.064,0.04,0.035,0.131,0.162,0.136
			c-0.065-0.253,0.204-0.475,0.362-0.276c0.075-0.065,0.234-0.02,0.2-0.225c0.274,0.151,0.242-0.19,0.444-0.02
			c-0.139-0.375,0.5-0.041,0.482-0.381c0.221-0.023,0.324-0.201,0.564-0.2c0.113,0.043-0.096,0.065,0.081,0.105
			c0.078-0.398,0.608-0.205,0.765-0.5c-0.072-0.032-0.085,0.014-0.161-0.024c-0.044-0.026-0.028-0.086-0.081-0.106
			c0.139-0.043,0.357,0.017,0.484-0.042c-0.03-0.078-0.074-0.033-0.121-0.046c-0.11-0.076,0.107-0.029,0.039-0.173
			c0.06,0.066,0.102,0.082,0.161,0.061c-0.128-0.359,0.398-0.076,0.402-0.374c0.127,0.03,0.181,0.101,0.163,0.212
			c0.127,0.066,0.106-0.061,0.201-0.037c-0.012-0.055-0.102-0.069-0.162-0.098c-0.032-0.142,0.044-0.142,0.08-0.195
			c0.071,0.036,0.092,0.1,0.082,0.181c0.062-0.18,0.273-0.168,0.402-0.261c0.063,0.04,0.035,0.132,0.162,0.136
			c-0.132-0.319,0.441-0.37,0.482-0.57c0.146,0.105,0.279-0.019,0.243,0.167c0.108-0.02,0.06-0.096-0.001-0.189
			c0.07-0.065,0.301,0.194,0.323,0.009c-0.11-0.068-0.081,0.044-0.161,0.015c0.006-0.041-0.009-0.07-0.041-0.091
			c0.209-0.103,0.526-0.063,0.563-0.388c0.108,0.15,0.11,0.122,0.283,0.22c0-0.114-0.143-0.147-0.243-0.205
			c-0.059-0.276,0.313,0.009,0.281-0.232c0.198,0.028,0.099,0.222,0.243,0.279c-0.001-0.137-0.115-0.212-0.162-0.324
			c0.003-0.138,0.158,0.058,0.161-0.014c0.055,0.033,0.034,0.107,0.041,0.166c0.099-0.003,0.149-0.141,0.039-0.211
			c0.278,0.099,0.151-0.06,0.404,0.077c0.051-0.178,0.095-0.145,0.282-0.157c-0.037-0.08-0.165-0.11-0.122-0.234
			c-0.067-0.025-0.135-0.051-0.203-0.077c-0.076,0.037,0.072,0.158-0.121,0.067c-0.015,0.059,0.032,0.083,0.081,0.106
			c-0.131,0.061-0.472,0.337-0.605,0.034c-0.087-0.039-0.018,0.127-0.039,0.173c-0.152-0.069-0.165-0.188-0.122-0.271
			c-0.067-0.01-0.261,0.12-0.08,0.195c-0.055,0.09-0.232,0.021-0.2,0.225c-0.084-0.041-0.012-0.17-0.082-0.219
			c-0.152-0.067-0.199,0.253-0.323-0.009c-0.099-0.033-0.008,0.122,0.041,0.128c-0.069,0.047-0.149,0.079-0.282,0.044
			c0.015,0.055,0.072,0.086,0.081,0.144c-0.012,0.072-0.109,0.033-0.121,0.105c-0.037-0.041-0.062-0.091-0.081-0.143
			c-0.091,0.206-0.273,0.292-0.483,0.344c-0.104-0.049,0.055-0.044-0.001-0.151c-0.118-0.042-0.088,0.11-0.242,0.021
			c0.035-0.104,0.111-0.154,0.282-0.082c-0.111-0.256,0.304-0.119,0.321-0.329c-0.319,0.08-0.508,0.274-0.765,0.35
			c0.027,0.123,0.086-0.004,0.162,0.061c-0.015,0.22-0.308-0.154-0.322,0.066c0.059,0.003,0.102-0.017,0.161-0.015
			c0.053,0.169-0.132,0.027-0.079,0.196c-0.086-0.015-0.078-0.083-0.081-0.143c-0.041,0.009-0.041,0.071-0.121,0.029
			c0.107,0.2-0.321,0.288-0.523,0.328c-0.134-0.107,0.135,0.007,0.08-0.12c-0.241,0.197-0.509,0.358-0.845,0.432
			c-0.055-0.032-0.034-0.107-0.041-0.166c-0.188-0.085-0.11,0.135-0.039,0.211c-0.096,0.098-0.12-0.156-0.283-0.144
			c-0.065,0.123,0.175,0.079,0.162,0.174c-0.174,0.085-0.217,0.34-0.523,0.252c0.083,0.22-0.058,0.176-0.12,0.293
			c-0.114-0.012-0.105-0.093-0.202-0.114c-0.04,0.185-0.19,0.227-0.321,0.292c-0.107-0.083,0.054-0.125,0.08-0.158
			c-0.168-0.061-0.261,0.099-0.281,0.269c-0.125-0.019-0.079-0.133-0.203-0.151c-0.012-0.119,0.129-0.097,0.04-0.211
			c-0.261,0.132-0.373,0.297-0.482,0.569c-0.174-0.016-0.051-0.198-0.202-0.227c-0.203,0.134-0.392,0.288-0.725,0.253
			c0.027,0.232-0.158,0.13-0.242,0.133c0.001,0.076,0.11,0.09,0.082,0.182c-0.291-0.088-0.433,0.402-0.644,0.17
			c-0.226,0.17-0.699,0.207-0.764,0.462c-0.242-0.078-0.246,0.154-0.525,0.027c0.029,0.199-0.161,0.114-0.119,0.331
			c-0.114-0.012-0.105-0.093-0.203-0.114c-0.472,0.257-1.45,0.843-1.368,0.798c-0.461,0.122-0.905,0.266-1.208,0.596
			c-0.042,0.119-0.282,0.107-0.281,0.157c-0.162,0.013-0.365,0.033-0.443,0.246c-0.08-0.03-1.45,0.617-1.449,0.655
			c-0.797,0.283-1.413,0.802-2.173,1.133c0.021,0.226-0.582,0.352-0.886,0.529c-0.165,0.096-0.216,0.271-0.443,0.208
			c0,0.05,0.001,0.101,0.001,0.151c-0.232-0.148-0.204,0.219-0.484,0.117c-0.189,0.378-0.849,0.431-1.126,0.814
			c-0.054-0.02-0.108-0.04-0.162-0.061c-0.368,0.481-1.052,0.55-1.407,1.046c-0.351-0.035-0.376,0.358-0.725,0.327
			c-0.014,0.232-0.29,0.121-0.321,0.33c-0.454,0.106-0.777,0.384-1.086,0.679c-0.858,0.429-1.518,1.114-2.373,1.545
			c0,0.05,0,0.101,0.001,0.151c-0.014,0.047-0.071-0.024-0.081-0.068c-0.362,0.348-0.686,0.522-1.045,0.882
			c-0.054-0.021-0.107-0.04-0.161-0.061c-0.069,0.065,0.12,0.211-0.08,0.195c-0.06-0.039,0.016-0.042,0-0.112
			c-0.08-0.001-0.145,0.076-0.08,0.157"/>
		<path class="st0" d="M173.477,33.278c0.092-0.017,0.252,0.054,0.241-0.097C173.596,33.16,173.485,33.153,173.477,33.278z"/>
		<path class="st0" d="M167.113,35.607c-0.01-0.044-0.08-0.056-0.081-0.106c0.012-0.046,0.101,0.007,0.161,0.024
			c-0.08-0.202-0.013-0.138-0.041-0.279c-0.162,0.002-0.304,0.027-0.363,0.163c0.228,0.109,0.011,0.088,0.042,0.242
			C167.037,35.783,167.003,35.601,167.113,35.607z"/>
		<path class="st0" d="M181.102,41.988c-0.157-0.043-0.238,0.013-0.322,0.066C180.888,42.18,181.02,42.019,181.102,41.988z"/>
		<path class="st0" d="M178.113,41.195c-0.069-0.203-0.448-0.033-0.363,0.088C177.961,41.372,177.91,41.118,178.113,41.195z"/>
		<path class="st0" d="M173.058,38.682c-0.181,0.056-0.267,0.096-0.443,0.208C172.826,38.904,172.986,38.851,173.058,38.682z"/>
		<path class="st0" d="M176.76,36.663c-0.074-0.106-0.209,0.025-0.283,0.043C176.575,36.842,176.701,36.7,176.76,36.663z"/>
		<path class="st0" d="M178.651,35.611c-0.145-0.091-0.071,0.135-0.039,0.173C178.691,35.832,178.741,35.661,178.651,35.611z"/>
		<path class="st0" d="M178.836,31.848c-0.127-0.066-0.114,0.051-0.161,0.089C178.694,31.941,178.856,32.034,178.836,31.848z"/>
		<path class="st0" d="M175.45,32.521c-0.147-0.066-0.274,0.006-0.201,0.112C175.35,32.641,175.465,32.666,175.45,32.521z"/>
		<path class="st0" d="M174.968,32.903c-0.099-0.127-0.306-0.076-0.323,0.029C174.834,33.029,174.833,32.878,174.968,32.903z"/>
		<path class="st0" d="M182.609,36.319c0.184-0.009,0.255-0.166,0.402-0.224C182.876,36.031,182.629,36.112,182.609,36.319z"/>
		<path class="st0" d="M171.695,31.966c-0.141-0.05-0.282,0.025-0.201,0.15C171.624,32.148,171.729,32.147,171.695,31.966z"/>
		<path class="st0" d="M177.152,34.067c-0.131-0.046-0.13,0.08-0.201,0.112C177.042,34.32,177.156,34.175,177.152,34.067z"/>
		<path class="st0" d="M183.578,36.61c-0.074-0.164-0.111,0.024-0.202-0.039C183.437,36.759,183.504,36.615,183.578,36.61z"/>
		<path class="st0" d="M183.256,36.563c-0.041-0.015-0.081-0.03-0.122-0.046c-0.002,0.162-0.051,0.049-0.161,0.089
			c0.009,0.058,0.12,0.059,0.122,0.121c0.114,0.004,0.05-0.13,0.202,0.001C183.313,36.657,183.268,36.619,183.256,36.563z"/>
		<path class="st0" d="M182.851,36.486c-0.153-0.075-0.145,0.06-0.201,0.112C182.79,36.656,182.884,36.654,182.851,36.486z"/>
		<path class="st0" d="M177.923,35.148c-0.19-0.002,0.065,0.218,0.042,0.354c0.054-0.005,0.075-0.052,0.08-0.12
			C177.907,35.337,178.054,35.253,177.923,35.148z"/>
		<path class="st0" d="M182.208,36.919c-0.041-0.015-0.081-0.03-0.121-0.046c0,0.05,0.001,0.101,0,0.151
			C182.146,37.013,182.243,37.053,182.208,36.919z"/>
		<path class="st0" d="M177.682,35.395c0.116,0.051,0.221,0.088,0.202-0.037c-0.12-0.031-0.199-0.01-0.242,0.059
			c-0.082-0.02,0.009-0.105,0.04-0.098c-0.135-0.112-0.251,0.12-0.322,0.217c-0.188-0.157,0.002,0.08-0.242-0.092
			c-0.092,0.222,0.087,0.39-0.078,0.534c0.131,0.036,0.273-0.037,0.161-0.202c0.265,0.206,0.226-0.135,0.443-0.095
			C177.535,35.535,177.681,35.51,177.682,35.395z"/>
		<path class="st0" d="M173.115,33.555c-0.078,0.016-0.22,0.046-0.12,0.18C173.102,33.758,173.196,33.665,173.115,33.555z"/>
		<path class="st0" d="M178.289,35.625c-0.071-0.018-0.092,0.03-0.08,0.12c0.054,0.021,0.107,0.041,0.161,0.061
			C178.419,35.703,178.239,35.727,178.289,35.625z"/>
		<path class="st0" d="M184.069,38.111c-0.104,0.062-0.122-0.091-0.243-0.129c0.054,0.182-0.192-0.026-0.161,0.127
			C183.803,38.066,184.076,38.377,184.069,38.111z"/>
		<path class="st0" d="M181.442,37.08c-0.145-0.077-0.123,0.065-0.12,0.18C181.458,37.326,181.389,37.123,181.442,37.08z"/>
		<path class="st0" d="M182.818,37.939c-0.035,0.038-0.037,0.141,0.041,0.241c0.17,0.049,0.226-0.252,0.039-0.362
			C182.936,37.944,182.926,38.074,182.818,37.939z"/>
		<path class="st0" d="M176.032,36.237c0.204,0.078,0.216-0.092,0.201-0.3c0.055-0.052,0.209,0.023,0.282-0.006
			c-0.025,0.024-0.049,0.049,0,0.075c-0.131,0.016-0.292,0.15-0.2,0.338c0.17,0.071,0.131-0.129,0.201-0.187
			c0.068,0.026,0.135,0.051,0.202,0.077c0.07-0.157,0.376-0.195,0.16-0.504c0.068,0.012,0.076,0.058,0.081,0.106
			c0.174,0.016,0.007-0.195-0.122-0.234c0.012,0.213-0.048,0.005-0.162-0.024c-0.034,0.217-0.32,0.107-0.362,0.314
			c-0.06-0.066-0.102-0.081-0.161-0.06c0.038,0.125,0.028,0.255-0.08,0.12C176.063,36.055,176.196,36.149,176.032,36.237z"/>
		<path class="st0" d="M181.242,37.305c-0.04-0.015-0.081-0.03-0.122-0.046c-0.01,0.131,0.076,0.21,0.082,0.332
			c0.131,0.096,0.031-0.11,0.161-0.014c0.012-0.082-0.117-0.086-0.122-0.159C181.242,37.381,181.242,37.343,181.242,37.305z"/>
		<path class="st0" d="M169.4,32.902c-0.12-0.09-0.173,0.093-0.08,0.158C169.456,33.15,169.382,32.966,169.4,32.902z"/>
		<path class="st0" d="M171.827,34.196c0.103-0.018-0.294-0.133-0.202,0.074C171.764,34.338,171.746,34.203,171.827,34.196z"/>
		<path class="st0" d="M182.335,38.207c-0.007-0.047-0.074-0.06-0.122-0.083c0.001,0.05,0.001,0.1,0.001,0.151
			C182.388,38.358,182.265,38.193,182.335,38.207z"/>
		<path class="st0" d="M181.163,37.839c-0.092-0.008-0.206-0.044-0.283-0.032c0,0.063,0.001,0.125,0.001,0.188
			c0.081,0.018,0.126,0.056,0.122,0.121C181.062,38.032,181.088,37.904,181.163,37.839z"/>
		<path class="st0" d="M182.295,38.38c-0.17-0.194-0.222,0.084-0.363,0.051c0.068,0.172,0.301-0.095,0.283,0.182
			c0.11,0.069,0.081-0.044,0.161-0.014c-0.064-0.078-0.141-0.148-0.162-0.249C182.242,38.359,182.269,38.37,182.295,38.38z"/>
		<path class="st0" d="M180.639,37.904c-0.143-0.022-0.103,0.216-0.282,0.044C180.457,38.183,180.771,38.171,180.639,37.904z"/>
		<path class="st0" d="M179.993,37.659c-0.016,0.085,0.074,0.11,0.041,0.204c-0.069-0.012-0.076-0.058-0.081-0.106
			c-0.088-0.028-0.086,0.062-0.08,0.157c0.086,0.015,0.077,0.083,0.081,0.144c0.054,0.02,0.108,0.041,0.162,0.061
			c-0.012-0.081-0.11-0.115-0.122-0.197c0.009-0.093,0.07,0.078,0.162,0.061C180.101,37.876,180.16,37.705,179.993,37.659z"/>
		<path class="st0" d="M179.346,37.49c-0.188-0.082-0.279-0.039-0.282,0.119C179.209,37.635,179.32,37.619,179.346,37.49z"/>
		<path class="st0" d="M181.812,38.46c-0.128,0.06-0.205,0.065-0.201,0.225c0.043-0.131,0.271-0.021,0.322-0.141
			C181.876,38.525,181.819,38.507,181.812,38.46z"/>
		<path class="st0" d="M176.073,36.327c-0.04-0.015-0.081-0.03-0.121-0.045c0.032,0.141-0.022,0.171-0.161,0.089
			c0,0.05,0,0.101,0,0.15C175.901,36.477,176.044,36.477,176.073,36.327z"/>
		<path class="st0" d="M181.57,38.556c-0.12-0.045-0.137,0.046-0.242,0.022C181.4,38.706,181.595,38.679,181.57,38.556z"/>
		<path class="st0" d="M170.819,34.491c-0.072,0.106-0.271,0.046-0.322,0.179C170.644,34.674,170.916,34.685,170.819,34.491z"/>
		<path class="st0" d="M182.5,38.984c-0.281-0.212-0.496,0.042-0.564,0.125c-0.012-0.117-0.082-0.144-0.202-0.076
			c0.018,0.053,0.052,0.097,0.122,0.121c-0.15,0.038-0.448,0.052-0.403,0.224c0.2,0.006,0.256-0.068,0.484,0.07
			c0.073-0.08,0.212-0.074,0.16-0.315c0.05,0.085,0.08,0.182,0.163,0.25c0.071-0.007,0.125-0.037,0.161-0.09
			c-0.023-0.075-0.022-0.164-0.082-0.219C182.447,39.049,182.345,38.965,182.5,38.984z"/>
		<path class="st0" d="M180.398,38.189c-0.173-0.011-0.152,0.082-0.08,0.233C180.47,38.368,180.26,38.259,180.398,38.189z"/>
		<path class="st0" d="M181.612,38.911c0.101,0.044,0.125-0.011,0.202,0.001C181.783,38.761,181.596,38.784,181.612,38.911z"/>
		<path class="st0" d="M175.187,36.631c-0.028-0.148,0.087-0.111,0.079-0.233c-0.125-0.051-0.193-0.027-0.283-0.032
			c-0.013,0.133,0.063,0.217,0.163,0.287c-0.046,0.089-0.082,0.192-0.241,0.134c-0.029,0.091,0.081,0.106,0.081,0.181
			c0.082-0.175,0.203-0.082,0.241-0.284c0.067,0.025,0.134,0.051,0.201,0.076c-0.002-0.065,0.03-0.086,0.081-0.082
			C175.411,36.576,175.303,36.719,175.187,36.631z"/>
		<path class="st0" d="M175.59,36.521c-0.151-0.072-0.237-0.06-0.242,0.058C175.437,36.57,175.57,36.62,175.59,36.521z"/>
		<path class="st0" d="M181.127,38.765c-0.103-0.034-0.157-0.005-0.161,0.09c0.13,0.003,0.031,0.133,0.162,0.136
			C181.183,38.964,181.182,38.834,181.127,38.765z"/>
		<path class="st0" d="M169.205,34.294c-0.113-0.048-0.116,0.048-0.12,0.142C169.155,34.429,169.225,34.419,169.205,34.294z"/>
		<path class="st0" d="M181.411,38.985c-0.106-0.051-0.174-0.052-0.161,0.052c0.072,0.023,0.085,0.079,0.162,0.099
			C181.411,39.085,181.411,39.035,181.411,38.985z"/>
		<path class="st0" d="M178.218,37.928c-0.182-0.075-0.216,0.042-0.282,0.119c0.036,0.042,0.092,0.075,0.162,0.098
			C178.066,37.978,178.245,38.087,178.218,37.928z"/>
		<path class="st0" d="M180.805,38.981c-0.198-0.059-0.156,0.196-0.281,0.232c0.181,0.037,0.178-0.167,0.363-0.126
			C180.876,39.043,180.806,39.031,180.805,38.981z"/>
		<path class="st0" d="M179.755,38.772c0.035,0.07,0.13,0.104,0.202,0.152c0-0.05-0.001-0.1-0.001-0.151
			C179.833,38.698,179.88,38.848,179.755,38.772z"/>
		<path class="st0" d="M181.371,39.271c-0.035-0.123-0.13-0.027-0.202-0.076c0,0.063,0.001,0.125,0.001,0.188
			c0.156,0.018,0.144,0.188,0.243,0.129c0.038-0.122-0.175-0.104-0.203-0.19C181.25,39.287,181.346,39.326,181.371,39.271z"/>
		<path class="st0" d="M174.825,36.832c-0.169-0.025-0.028,0.139-0.161,0.128C174.757,37.116,174.859,36.968,174.825,36.832z"/>
		<path class="st0" d="M179.554,38.847c-0.103,0.002-0.14,0.092-0.201,0.149C179.446,38.98,179.578,39.015,179.554,38.847z"/>
		<path class="st0" d="M168.238,34.68c-0.106-0.052-0.104,0.039-0.12,0.105C168.262,34.87,168.318,34.78,168.238,34.68z"/>
		<path class="st0" d="M178.626,38.759c-0.148-0.055-0.181,0.038-0.282,0.044C178.406,38.893,178.642,38.895,178.626,38.759z"/>
		<path class="st0" d="M173.899,37.309c0.113-0.027,0.244-0.031,0.322-0.103C174.11,36.982,173.897,37.15,173.899,37.309z"/>
		<path class="st0" d="M181.175,40.362c0.06,0.04-0.016,0.042,0.001,0.113c0.129,0.08,0.153,0.025,0.201,0
			c-0.134-0.125-0.009-0.063-0.001-0.188c-0.036-0.043-0.091-0.075-0.162-0.099c0.009-0.05,0.121,0.033,0.121-0.029
			c0.042,0.04,0.042,0.102,0.122,0.121c-0.092-0.264-0.075-0.431-0.365-0.476c0.009,0.057,0.12,0.059,0.121,0.121
			c-0.1,0.056-0.164,0.048-0.323-0.047c-0.02,0.123-0.243-0.017-0.201,0.187c-0.1-0.086-0.167,0.047-0.202-0.076
			c-0.143,0.023,0.069,0.159,0.122,0.197c0.122,0.034,0.144-0.062,0.323,0.047c0.012,0.103-0.157-0.029-0.121,0.105
			c0.089,0.057,0.128-0.059,0.121,0.083C181.024,40.415,181.11,40.402,181.175,40.362z"/>
		<path class="st0" d="M179.314,39.32c-0.238,0.006,0.04,0.285,0.003,0.527c-0.062,0.082-0.239,0.012-0.282,0.119
			c0.155,0.139,0.213-0.117,0.242,0.091c0.137,0.009,0.166-0.166,0.323-0.028c0.023-0.069,0.116-0.078,0.04-0.173
			C179.379,39.873,179.271,39.479,179.314,39.32z"/>
		<path class="st0" d="M167.756,34.948c-0.211,0.005-0.223,0.037-0.525-0.086c0.076,0.211,0.031,0.301,0.124,0.535
			c0.072,0.032,0.085-0.014,0.162,0.023c-0.016-0.104-0.13-0.154-0.082-0.294c0.13,0.016,0.058,0.145,0.122,0.197
			C167.714,35.268,167.743,35.091,167.756,34.948z"/>
		<path class="st0" d="M173.858,37.294c-0.127-0.013-0.172,0.054-0.12,0.18C173.782,37.42,173.838,37.38,173.858,37.294z"/>
		<path class="st0" d="M181.497,40.296c-0.012,0.082,0.117,0.086,0.122,0.159C181.748,40.444,181.567,40.209,181.497,40.296z"/>
		<path class="st0" d="M179.113,39.432c-0.065-0.035-0.069,0.009-0.121-0.008c0,0.101,0.001,0.201,0.002,0.302
			C179.144,39.745,179.223,39.538,179.113,39.432z"/>
		<path class="st0" d="M173.536,37.398c-0.111-0.069-0.081,0.044-0.161,0.014c0.035,0.123,0.061,0.065,0.162,0.099
			C173.537,37.473,173.536,37.435,173.536,37.398z"/>
		<path class="st0" d="M176.608,38.672c-0.118-0.037-0.244,0.148-0.039,0.211C176.539,38.756,176.638,38.798,176.608,38.672z"/>
		<path class="st0" d="M180.408,40.147c-0.006,0.108,0.164,0.177,0.202,0.152C180.603,40.214,180.507,40.179,180.408,40.147z"/>
		<path class="st0" d="M173.577,37.601c-0.11-0.019-0.158,0.043-0.161,0.165c0.049,0.002,0.083-0.017,0.08-0.083
			c0.034,0.006,0.038,0.029,0.041,0.053C173.592,37.745,173.571,37.655,173.577,37.601z"/>
		<path class="st0" d="M174.185,38.094c-0.14-0.058-0.064,0.166-0.201,0.112C174.076,38.348,174.199,38.215,174.185,38.094z"/>
		<path class="st0" d="M182.511,41.318c-0.165,0.026-0.089,0.089-0.201,0.112c0.036,0.068,0.061,0.142,0.162,0.174
			c-0.081-0.064-0.011-0.195,0.04-0.06C182.562,41.503,182.547,41.417,182.511,41.318z"/>
		<path class="st0" d="M166.226,35.836c-0.059,0.022-0.18-0.035-0.161,0.09C166.192,35.991,166.245,35.96,166.226,35.836z"/>
		<path class="st0" d="M175.442,39.471c-0.105-0.05-0.173-0.052-0.161,0.052C175.386,39.573,175.455,39.575,175.442,39.471z"/>
		<path class="st0" d="M171.724,38.065c-0.156-0.088-0.155,0.121,0,0.151C171.791,38.166,171.721,38.166,171.724,38.065z"/>
		<path class="st0" d="M174.716,39.498c-0.085,0.052-0.039,0.273-0.241,0.171c0.138,0.141,0.36,0.072,0.363-0.088
			C174.779,39.476,174.739,39.591,174.716,39.498z"/>
		<path class="st0" d="M165.22,36.244c-0.162-0.05-0.221,0.036-0.282,0.119C165.069,36.497,165.189,36.359,165.22,36.244z"/>
		<path class="st0" d="M180.659,42.159c-0.057-0.119-0.209-0.052-0.283-0.07C180.423,42.196,180.651,42.227,180.659,42.159z"/>
		<path class="st0" d="M177.548,41.283c-0.114-0.075-0.104,0.013-0.202-0.039c0.069,0.227-0.12,0.118-0.119,0.255
			c0.132,0.048,0.154-0.049,0.323,0.047C177.526,41.388,177.527,41.425,177.548,41.283z"/>
		<path class="st0" d="M171.891,39.293c-0.078,0.081-0.205-0.046-0.283-0.032c-0.027,0.129,0.065,0.191,0.203,0.228
			C171.791,39.363,171.935,39.45,171.891,39.293z"/>
		<path class="st0" d="M178.885,42.427c-0.102,0.004-0.117,0.122-0.12,0.255C178.916,42.742,178.881,42.559,178.885,42.427z"/>
		<path class="st0" d="M175.329,41.157c-0.106-0.051-0.174-0.052-0.161,0.052C175.273,41.259,175.341,41.261,175.329,41.157z"/>
		<path class="st0" d="M176.743,41.73c-0.154-0.063-0.19,0.027-0.201,0.15C176.623,41.847,176.729,41.849,176.743,41.73z"/>
		<path class="st0" d="M175.613,41.49c-0.104-0.041-0.049,0.009-0.04,0.06c-0.137,0.101-0.322,0.094-0.241,0.322
			c0.139-0.018,0.134-0.225,0.322-0.179C175.667,41.611,175.647,41.547,175.613,41.49z"/>
		<path class="st0" d="M172.703,40.502c-0.116,0.036-0.226,0.079-0.241,0.247C172.576,40.711,172.695,40.679,172.703,40.502z"/>
		<path class="st0" d="M178.281,42.724c-0.091,0.006-0.146,0.059-0.16,0.165c0.082,0.019,0.127,0.056,0.122,0.121
			c0.165,0.079,0.21,0,0.282-0.043c-0.086-0.158-0.117,0.069-0.242-0.016C178.168,42.87,178.293,42.795,178.281,42.724z"/>
		<path class="st0" d="M175.898,42.162c-0.127-0.066-0.106,0.061-0.202,0.037C175.733,42.291,175.922,42.271,175.898,42.162z"/>
		<path class="st0" d="M176.06,42.261c0.035-0.108-0.133-0.102-0.122-0.197C175.83,42.067,175.935,42.263,176.06,42.261z"/>
		<path class="st0" d="M174.928,41.72c0.011,0.16-0.048,0.134-0.162,0.052c0.005,0.142,0.046,0.125,0.001,0.226
			c0.072-0.006,0.102-0.066,0.243,0.017c0.023-0.07,0.1-0.069,0.079-0.195C175.054,41.776,174.998,41.744,174.928,41.72z"/>
		<path class="st0" d="M169.027,39.488c-0.035-0.02-0.038,0-0.04,0.022c-0.027-0.01-0.054-0.021-0.081-0.031
			c0.092,0.116-0.033,0.116,0.002,0.264C169.05,39.766,169.088,39.631,169.027,39.488z"/>
		<path class="st0" d="M163.248,37.415c0.083,0.107,0.079,0.013,0.162,0.024C163.402,37.327,163.217,37.276,163.248,37.415z"/>
		<path class="st0" d="M178.445,43.162c-0.11-0.031-0.19-0.023-0.242,0.021C178.219,43.239,178.504,43.331,178.445,43.162z"/>
		<path class="st0" d="M170.281,40.263c-0.131-0.02-0.211,0.025-0.241,0.135C170.17,40.418,170.251,40.373,170.281,40.263z"/>
		<path class="st0" d="M177.598,43.181c-0.121-0.096-0.206-0.116-0.283-0.07c0.033,0.153,0.141,0.056,0.203,0.152
			c-0.013,0.188-0.138,0.035-0.242,0.059c-0.009,0.061,0.069,0.123,0,0.113C177.442,43.576,177.605,43.391,177.598,43.181z"/>
		<path class="st0" d="M171.213,40.878c-0.02,0.112-0.127,0.11-0.12,0.255c0.198,0.096,0.166-0.108,0.282-0.119
			C171.364,40.945,171.305,40.902,171.213,40.878z"/>
		<path class="st0" d="M174.568,42.448c0.094,0.047,0.155,0.053,0.202,0.039C174.766,42.374,174.529,42.295,174.568,42.448z"/>
		<path class="st0" d="M177.115,43.486c-0.094-0.047-0.156-0.053-0.202-0.039c0.021,0.039,0.043,0.077,0.041,0.129
			C177.056,43.61,177.11,43.58,177.115,43.486z"/>
		<path class="st0" d="M174.447,42.478c-0.136-0.065-0.067,0.138-0.12,0.18C174.411,42.656,174.45,42.593,174.447,42.478z"/>
		<path class="st0" d="M173.6,42.42c-0.037-0.043-0.092-0.075-0.162-0.099c0.085,0.178-0.06,0.039-0.039,0.211
			C173.543,42.595,173.61,42.558,173.6,42.42z"/>
		<path class="st0" d="M173.6,42.42c0.201,0.114,0.116-0.148,0.281-0.081C173.777,42.206,173.551,42.23,173.6,42.42z"/>
		<path class="st0" d="M176.63,43.378c-0.107-0.039-0.254-0.131-0.202,0.037C176.498,43.406,176.646,43.498,176.63,43.378z"/>
		<path class="st0" d="M174.085,42.566c-0.038,0.05-0.149,0.005-0.121,0.142C174.095,42.77,174.179,42.688,174.085,42.566z"/>
		<path class="st0" d="M173.683,42.903c-0.017,0.072,0.028,0.11,0.041,0.166c0.153,0.044,0.288,0.115,0.363-0.013
			c-0.03-0.078-0.073-0.033-0.122-0.046c0.023-0.07,0.1-0.069,0.08-0.195c-0.084-0.053-0.131-0.157-0.202-0.114
			c0.099,0.152,0.06,0.184,0.042,0.354C173.808,43.009,173.811,42.919,173.683,42.903z"/>
		<path class="st0" d="M173.722,42.654c-0.163,0.037-0.308,0.098-0.362,0.277C173.563,42.939,173.896,42.914,173.722,42.654z"/>
		<path class="st0" d="M175.905,43.555c-0.142-0.024-0.046,0.114,0.001,0.188C176,43.769,175.928,43.586,175.905,43.555z"/>
		<path class="st0" d="M172.551,42.588c0.07,0.187,0.399,0.352,0.404,0.115C172.722,42.718,172.694,42.658,172.551,42.588z"/>
		<path class="st0" d="M173.32,42.953c-0.007-0.047-0.074-0.059-0.122-0.083c0.001,0.063,0.001,0.125,0.001,0.188
			C173.358,43.179,173.213,42.901,173.32,42.953z"/>
		<path class="st0" d="M174.977,43.693c-0.066-0.035-0.07,0.009-0.121-0.008c0.017,0.078,0.015,0.167,0.122,0.197
			C174.978,43.819,174.978,43.756,174.977,43.693z"/>
		<path class="st0" d="M175.584,43.998c0.011,0.132,0.083,0.23,0.202,0.302C175.852,44.245,175.752,44.04,175.584,43.998z"/>
		<path class="st0" d="M173.281,43.277c0.061,0.081,0.277,0.171,0.242,0.016C173.372,43.262,173.286,43.099,173.281,43.277z"/>
		<path class="st0" d="M175.666,44.291c-0.159-0.056-0.123,0.117-0.282-0.031c0.073,0.211-0.031,0.114-0.079,0.233
			c0.036-0.016,0.091-0.006,0.162,0.023C175.47,44.36,175.655,44.439,175.666,44.291z"/>
		<path class="st0" d="M175.223,44.462c-0.209-0.159-0.256,0.214-0.524,0.102C174.904,44.859,175.096,44.516,175.223,44.462z"/>
		<path class="st0" d="M174.9,44.34c-0.085-0.048-0.107-0.015-0.162-0.023c-0.029,0.091,0.08,0.106,0.082,0.181
			C174.946,44.497,174.84,44.428,174.9,44.34z"/>
		<path class="st0" d="M174.095,44.825c-0.08-0.004-0.107,0.06-0.121,0.143c0.125,0.075,0.077-0.074,0.202,0.001
			C174.162,44.914,174.105,44.883,174.095,44.825z"/>
		<path class="st0" d="M171.308,44.184c-0.11-0.243-0.222-0.008-0.282,0.044C171.108,44.344,171.16,44.105,171.308,44.184z"/>
		<path class="st0" d="M166.822,42.413c-0.121-0.042-0.107,0.184,0.041,0.203C166.896,42.522,166.806,42.496,166.822,42.413z"/>
		<path class="st0" d="M171.39,44.516c0.085,0.01-0.058-0.164-0.041-0.241c-0.077-0.013-0.174-0.052-0.161,0.052
			C171.249,44.393,171.353,44.436,171.39,44.516z"/>
		<path class="st0" d="M171.229,44.38c-0.134-0.037-0.078,0.202,0.081,0.219C171.344,44.491,171.274,44.442,171.229,44.38z"/>
		<path class="st0" d="M173.088,45.158c-0.099,0.057-0.208,0.102-0.241,0.247c0.156,0.092,0.065-0.139,0.242-0.021
			C173.089,45.309,173.089,45.233,173.088,45.158z"/>
		<path class="st0" d="M171.594,44.706c-0.041-0.015-0.081-0.031-0.122-0.046c0,0.05,0.001,0.1,0.001,0.15
			C171.531,44.799,171.629,44.84,171.594,44.706z"/>
		<path class="st0" d="M170.422,44.488c0.125-0.044,0.282,0.186,0.282-0.006C170.62,44.383,170.456,44.406,170.422,44.488z"/>
		<path class="st0" d="M166.138,42.755c-0.075-0.023-0.135-0.026-0.162,0.014c-0.035,0.108,0.134,0.103,0.122,0.197
			c-0.06,0.101-0.1-0.116-0.203-0.114c0.035,0.119-0.056,0.076-0.039,0.173c0.14,0.082,0.17,0.022,0.242,0.016
			c0.027,0.197-0.216,0.043-0.201,0.225c-0.145-0.024-0.195-0.158-0.283-0.107c0.036,0.123,0.061,0.065,0.162,0.099
			c0.031,0.191-0.27-0.053-0.201,0.187c0.372-0.039,0.631-0.225,0.886-0.417c-0.072-0.006-0.168-0.044-0.202-0.001
			C166.173,42.962,166.194,42.837,166.138,42.755z"/>
		<path class="st0" d="M170.866,44.618c0.002,0.116-0.085,0.114-0.12,0.18c-0.072-0.061-0.052-0.172-0.202-0.189
			c-0.087,0.109,0.052,0.158,0.082,0.294c0.157,0.031,0.156-0.145,0.363-0.05C170.996,44.748,170.993,44.649,170.866,44.618z"/>
		<path class="st0" d="M172.685,45.344c-0.138-0.055-0.119,0.094-0.119,0.218C172.697,45.609,172.651,45.424,172.685,45.344z"/>
		<path class="st0" d="M169.533,44.152c-0.04-0.016-0.081-0.031-0.121-0.046c0,0.05,0,0.101,0.001,0.151
			C169.519,44.308,169.545,44.254,169.533,44.152z"/>
		<path class="st0" d="M172.202,45.65c0.134-0.012,0.249-0.05,0.322-0.141C172.38,45.377,172.257,45.544,172.202,45.65z"/>
		<path class="st0" d="M171.151,45.027c-0.127-0.091-0.098,0.022-0.161,0.014C171.006,45.13,171.227,45.181,171.151,45.027z"/>
		<path class="st0" d="M172.162,45.635c-0.125-0.053-0.181,0.064-0.12,0.143C172.113,45.77,172.182,45.76,172.162,45.635z"/>
		<path class="st0" d="M171.115,45.953c-0.107-0.052-0.132,0.002-0.12,0.105C171.101,46.109,171.127,46.056,171.115,45.953z"/>
		<path class="st0" d="M167.406,46.618c-0.175-0.168-0.117-0.202-0.123-0.348c-0.196-0.04-0.126,0.163-0.323-0.047
			c-0.012,0.095,0.085,0.129,0.162,0.174c-0.138,0.115-0.338,0.226-0.402,0.374C167,46.775,167.048,46.4,167.406,46.618z"/>
		<path class="st0" d="M178.864,29.303c-0.119-0.031-0.092,0.13-0.161,0.165C178.78,29.442,178.882,29.451,178.864,29.303z"/>
		<path class="st0" d="M175.73,31.951c0.017-0.072-0.028-0.11-0.041-0.166c-0.055-0.01-0.033,0.081-0.04,0.135
			c-0.032-0.032-0.066-0.064-0.121-0.083C175.556,31.965,175.635,31.927,175.73,31.951z"/>
		<path class="st0" d="M181.751,34.153c0.057-0.078-0.14,0.053-0.242-0.092c0.012,0.081,0.082,0.131,0.122,0.197
			C181.782,34.289,181.6,34.121,181.751,34.153z"/>
		<path class="st0" d="M179.205,33.303c0.007-0.079-0.033-0.132-0.122-0.158c0.053,0.07,0.026,0.123-0.04,0.135
			C179.056,33.373,179.152,33.277,179.205,33.303z"/>
		<path class="st0" d="M179.934,33.804c0.041,0.039,0.042,0.102,0.122,0.121c0.013-0.083-0.007-0.147-0.041-0.203
			c-0.076-0.025-0.027,0.114-0.121,0.067C179.901,33.834,179.934,33.825,179.934,33.804z"/>
		<path class="st0" d="M174.155,31.694c-0.165-0.08,0.002,0.095,0.001,0.151c-0.009,0.093-0.07-0.078-0.162-0.062
			c0.012,0.215-0.123,0.239-0.281,0.232c0.022,0.064,0.06,0.117,0.082,0.181c0.024-0.131,0.19-0.264,0.402-0.261
			C174.149,31.79,174.224,31.785,174.155,31.694z"/>
		<path class="st0" d="M180.622,34.328c-0.215,0.174-0.409,0.225-0.522,0.516c0.069,0.034,0.104-0.025,0.121,0.046
			c0.126-0.001,0.02-0.07,0.08-0.157c0.088,0.142,0.322-0.143,0.323,0.009C180.753,34.813,180.685,34.48,180.622,34.328z"/>
		<path class="st0" d="M172.419,31.413c-0.14-0.069-0.362,0.076-0.443,0.208C172.118,31.545,172.276,31.489,172.419,31.413z"/>
		<path class="st0" d="M180.099,34.618c-0.051,0.071-0.176,0.044-0.16,0.202C180.106,34.902,180.045,34.685,180.099,34.618z"/>
		<path class="st0" d="M173.756,32.67c0.022-0.075-0.077-0.083-0.081-0.144c-0.083-0.021-0.081,0.07-0.121,0.105
			C173.579,32.731,173.616,32.543,173.756,32.67z"/>
		<path class="st0" d="M183.58,36.987c0.001,0.037,0.049,0.048,0.081,0.068c0.017,0.097-0.073,0.054-0.039,0.173
			c0.109-0.007,0.229,0,0.201-0.187C183.699,37.025,183.726,37.11,183.58,36.987z"/>
		<path class="st0" d="M180.149,36.704c-0.047,0.13-0.133-0.007-0.241,0.059c0.049,0.15,0.059,0.146,0.082,0.256
			C180.024,36.899,180.2,36.817,180.149,36.704z"/>
		<path class="st0" d="M171.178,33.537c0.111,0.076-0.071,0.105,0.041,0.204c0.106,0.051,0.031-0.134,0.161-0.052
			c-0.103-0.099-0.034-0.213-0.243-0.318c-0.013,0.083-0.041,0.147-0.12,0.143C171.028,33.607,171.124,33.511,171.178,33.537z"/>
		<path class="st0" d="M170.735,33.633c-0.16-0.034-0.1,0.218-0.322,0.103c0.012,0.136,0.109,0.038,0.122,0.122
			C170.598,33.778,170.697,33.745,170.735,33.633z"/>
		<path class="st0" d="M170.414,33.999c0.072,0.023,0.085,0.078,0.161,0.099c0.061-0.133,0.192-0.174,0.363-0.163
			c-0.191-0.21-0.248,0.075-0.484-0.07c0.037,0.174-0.096,0.124-0.242,0.059c-0.087,0.108-0.038,0.17-0.079,0.309
			c0.06,0.003,0.102-0.017,0.161-0.014c0.022-0.075-0.077-0.083-0.081-0.143c0.008-0.028,0.04-0.023,0.04-0.06
			c0.064,0.041,0.035,0.132,0.162,0.137C170.461,34.112,170.461,34.073,170.414,33.999z"/>
		<path class="st0" d="M183.8,40.979c-0.008-0.046-0.04-0.036-0.04-0.016c-0.057-0.018-0.114-0.037-0.121-0.083
			c-0.055-0.009-0.033,0.081-0.04,0.135C183.683,41.025,183.729,40.986,183.8,40.979z"/>
		<path class="st0" d="M181.301,41.349c-0.019-0.087-0.419-0.057-0.403,0.148c0.048,0.007,0.101-0.16,0.162-0.014
			C181.187,41.501,181.114,41.255,181.301,41.349z"/>
		<path class="st0" d="M179.97,41.522c-0.121-0.001-0.31-0.175-0.323,0.028c0.184,0.196,0.247-0.091,0.404,0.153
			C180.101,41.6,179.92,41.625,179.97,41.522z"/>
		<path class="st0" d="M172.982,39.781c-0.04-0.131-0.108,0.002-0.162-0.023c-0.009,0.061,0.07,0.124,0,0.113
			c-0.008,0.029,0.016,0.042,0.041,0.053c0.027,0.01,0.054,0.02,0.081,0.03c-0.052-0.026-0.053-0.25-0.001-0.113
			C173.005,39.852,172.907,39.762,172.982,39.781z"/>
		<path class="st0" d="M177.514,42.548c-0.076-0.097-0.226,0.028-0.323,0.028c-0.099-0.17-0.348-0.189-0.445-0.205
			c0.12,0.146,0.292,0.265,0.445,0.394c-0.191-0.275,0.159-0.031,0.282-0.119C177.429,42.574,177.43,42.537,177.514,42.548z"/>
		<path class="st0" d="M176.464,42.414c-0.111-0.093-0.274,0.067-0.403,0.073c0.014,0.13,0.176-0.032,0.202,0.114
			C176.273,42.547,176.31,42.382,176.464,42.414z"/>
		<path class="st0" d="M176.99,42.725c0.028-0.113-0.081-0.088-0.081-0.031c-0.069-0.025-0.105-0.068-0.122-0.121
			c-0.053-0.007-0.063,0.042-0.121,0.029c0.072,0.024,0.235,0.184,0.001,0.113c0.013,0.056,0.101,0.07,0.162,0.099
			C176.833,42.721,176.888,42.691,176.99,42.725z"/>
		<path class="st0" d="M175.862,43.163c0.053,0.006,0.063-0.043,0.121-0.03c0.029-0.104-0.111-0.114-0.082-0.219
			C175.844,42.961,175.893,43.027,175.862,43.163z"/>
		<path class="st0" d="M172.961,43.795c0.077,0.003-0.044-0.075-0.04-0.015c-0.054-0.046-0.076-0.109-0.082-0.181
			c-0.09,0.005-0.03,0.24,0.082,0.256C172.914,43.809,172.929,43.791,172.961,43.795z"/>
		<path class="st0" d="M168.11,41.81c-0.046-0.011-0.022,0.029,0,0.037c0.007,0.121-0.225-0.069-0.161,0.127
			c0.169,0.096,0.16-0.042,0.242-0.059C168.181,41.871,168.111,41.86,168.11,41.81z"/>
		<path d="M162.194,36.324c0,0,4.319-2.294,5.675-2.873l0.147,0.654l-5.805,2.369L162.194,36.324z"/>
	</g>
</g>
</svg>